%TF.GenerationSoftware,KiCad,Pcbnew,7.0.9*%
%TF.CreationDate,2023-11-17T12:10:22-05:00*%
%TF.ProjectId,TamagotchiPCB,54616d61-676f-4746-9368-695043422e6b,rev?*%
%TF.SameCoordinates,Original*%
%TF.FileFunction,Copper,L1,Top*%
%TF.FilePolarity,Positive*%
%FSLAX46Y46*%
G04 Gerber Fmt 4.6, Leading zero omitted, Abs format (unit mm)*
G04 Created by KiCad (PCBNEW 7.0.9) date 2023-11-17 12:10:22*
%MOMM*%
%LPD*%
G01*
G04 APERTURE LIST*
%TA.AperFunction,NonConductor*%
%ADD10C,0.200000*%
%TD*%
%ADD11C,0.200000*%
%TA.AperFunction,ComponentPad*%
%ADD12R,1.700000X1.700000*%
%TD*%
%TA.AperFunction,ComponentPad*%
%ADD13O,1.700000X1.700000*%
%TD*%
%TA.AperFunction,ComponentPad*%
%ADD14R,1.524000X1.524000*%
%TD*%
%TA.AperFunction,ComponentPad*%
%ADD15C,1.524000*%
%TD*%
%TA.AperFunction,ComponentPad*%
%ADD16O,3.048000X1.850000*%
%TD*%
%TA.AperFunction,Conductor*%
%ADD17C,0.762000*%
%TD*%
%TA.AperFunction,Profile*%
%ADD18C,0.100000*%
%TD*%
G04 APERTURE END LIST*
D10*
X138240000Y-41910000D02*
X197040000Y-41910000D01*
X197040000Y-141430000D01*
X138240000Y-141430000D01*
X138240000Y-41910000D01*
D11*
D10*
X157941101Y-137771980D02*
X157893482Y-137819600D01*
X157893482Y-137819600D02*
X157750625Y-137867219D01*
X157750625Y-137867219D02*
X157655387Y-137867219D01*
X157655387Y-137867219D02*
X157512530Y-137819600D01*
X157512530Y-137819600D02*
X157417292Y-137724361D01*
X157417292Y-137724361D02*
X157369673Y-137629123D01*
X157369673Y-137629123D02*
X157322054Y-137438647D01*
X157322054Y-137438647D02*
X157322054Y-137295790D01*
X157322054Y-137295790D02*
X157369673Y-137105314D01*
X157369673Y-137105314D02*
X157417292Y-137010076D01*
X157417292Y-137010076D02*
X157512530Y-136914838D01*
X157512530Y-136914838D02*
X157655387Y-136867219D01*
X157655387Y-136867219D02*
X157750625Y-136867219D01*
X157750625Y-136867219D02*
X157893482Y-136914838D01*
X157893482Y-136914838D02*
X157941101Y-136962457D01*
X158798244Y-137867219D02*
X158798244Y-137343409D01*
X158798244Y-137343409D02*
X158750625Y-137248171D01*
X158750625Y-137248171D02*
X158655387Y-137200552D01*
X158655387Y-137200552D02*
X158464911Y-137200552D01*
X158464911Y-137200552D02*
X158369673Y-137248171D01*
X158798244Y-137819600D02*
X158703006Y-137867219D01*
X158703006Y-137867219D02*
X158464911Y-137867219D01*
X158464911Y-137867219D02*
X158369673Y-137819600D01*
X158369673Y-137819600D02*
X158322054Y-137724361D01*
X158322054Y-137724361D02*
X158322054Y-137629123D01*
X158322054Y-137629123D02*
X158369673Y-137533885D01*
X158369673Y-137533885D02*
X158464911Y-137486266D01*
X158464911Y-137486266D02*
X158703006Y-137486266D01*
X158703006Y-137486266D02*
X158798244Y-137438647D01*
X159274435Y-137867219D02*
X159274435Y-137200552D01*
X159274435Y-137295790D02*
X159322054Y-137248171D01*
X159322054Y-137248171D02*
X159417292Y-137200552D01*
X159417292Y-137200552D02*
X159560149Y-137200552D01*
X159560149Y-137200552D02*
X159655387Y-137248171D01*
X159655387Y-137248171D02*
X159703006Y-137343409D01*
X159703006Y-137343409D02*
X159703006Y-137867219D01*
X159703006Y-137343409D02*
X159750625Y-137248171D01*
X159750625Y-137248171D02*
X159845863Y-137200552D01*
X159845863Y-137200552D02*
X159988720Y-137200552D01*
X159988720Y-137200552D02*
X160083959Y-137248171D01*
X160083959Y-137248171D02*
X160131578Y-137343409D01*
X160131578Y-137343409D02*
X160131578Y-137867219D01*
X160607768Y-137867219D02*
X160607768Y-137200552D01*
X160607768Y-136867219D02*
X160560149Y-136914838D01*
X160560149Y-136914838D02*
X160607768Y-136962457D01*
X160607768Y-136962457D02*
X160655387Y-136914838D01*
X160655387Y-136914838D02*
X160607768Y-136867219D01*
X160607768Y-136867219D02*
X160607768Y-136962457D01*
X161226815Y-137867219D02*
X161131577Y-137819600D01*
X161131577Y-137819600D02*
X161083958Y-137724361D01*
X161083958Y-137724361D02*
X161083958Y-136867219D01*
X161750625Y-137867219D02*
X161655387Y-137819600D01*
X161655387Y-137819600D02*
X161607768Y-137771980D01*
X161607768Y-137771980D02*
X161560149Y-137676742D01*
X161560149Y-137676742D02*
X161560149Y-137391028D01*
X161560149Y-137391028D02*
X161607768Y-137295790D01*
X161607768Y-137295790D02*
X161655387Y-137248171D01*
X161655387Y-137248171D02*
X161750625Y-137200552D01*
X161750625Y-137200552D02*
X161893482Y-137200552D01*
X161893482Y-137200552D02*
X161988720Y-137248171D01*
X161988720Y-137248171D02*
X162036339Y-137295790D01*
X162036339Y-137295790D02*
X162083958Y-137391028D01*
X162083958Y-137391028D02*
X162083958Y-137676742D01*
X162083958Y-137676742D02*
X162036339Y-137771980D01*
X162036339Y-137771980D02*
X161988720Y-137819600D01*
X161988720Y-137819600D02*
X161893482Y-137867219D01*
X161893482Y-137867219D02*
X161750625Y-137867219D01*
X163274435Y-137867219D02*
X163274435Y-136867219D01*
X163274435Y-136867219D02*
X163607768Y-137581504D01*
X163607768Y-137581504D02*
X163941101Y-136867219D01*
X163941101Y-136867219D02*
X163941101Y-137867219D01*
X164560149Y-137867219D02*
X164464911Y-137819600D01*
X164464911Y-137819600D02*
X164417292Y-137771980D01*
X164417292Y-137771980D02*
X164369673Y-137676742D01*
X164369673Y-137676742D02*
X164369673Y-137391028D01*
X164369673Y-137391028D02*
X164417292Y-137295790D01*
X164417292Y-137295790D02*
X164464911Y-137248171D01*
X164464911Y-137248171D02*
X164560149Y-137200552D01*
X164560149Y-137200552D02*
X164703006Y-137200552D01*
X164703006Y-137200552D02*
X164798244Y-137248171D01*
X164798244Y-137248171D02*
X164845863Y-137295790D01*
X164845863Y-137295790D02*
X164893482Y-137391028D01*
X164893482Y-137391028D02*
X164893482Y-137676742D01*
X164893482Y-137676742D02*
X164845863Y-137771980D01*
X164845863Y-137771980D02*
X164798244Y-137819600D01*
X164798244Y-137819600D02*
X164703006Y-137867219D01*
X164703006Y-137867219D02*
X164560149Y-137867219D01*
X165322054Y-137867219D02*
X165322054Y-137200552D01*
X165322054Y-137391028D02*
X165369673Y-137295790D01*
X165369673Y-137295790D02*
X165417292Y-137248171D01*
X165417292Y-137248171D02*
X165512530Y-137200552D01*
X165512530Y-137200552D02*
X165607768Y-137200552D01*
X165941102Y-137867219D02*
X165941102Y-137200552D01*
X165941102Y-136867219D02*
X165893483Y-136914838D01*
X165893483Y-136914838D02*
X165941102Y-136962457D01*
X165941102Y-136962457D02*
X165988721Y-136914838D01*
X165988721Y-136914838D02*
X165941102Y-136867219D01*
X165941102Y-136867219D02*
X165941102Y-136962457D01*
X166560149Y-137867219D02*
X166464911Y-137819600D01*
X166464911Y-137819600D02*
X166417292Y-137724361D01*
X166417292Y-137724361D02*
X166417292Y-136867219D01*
X167083959Y-137867219D02*
X166988721Y-137819600D01*
X166988721Y-137819600D02*
X166941102Y-137724361D01*
X166941102Y-137724361D02*
X166941102Y-136867219D01*
X167607769Y-137867219D02*
X167512531Y-137819600D01*
X167512531Y-137819600D02*
X167464912Y-137771980D01*
X167464912Y-137771980D02*
X167417293Y-137676742D01*
X167417293Y-137676742D02*
X167417293Y-137391028D01*
X167417293Y-137391028D02*
X167464912Y-137295790D01*
X167464912Y-137295790D02*
X167512531Y-137248171D01*
X167512531Y-137248171D02*
X167607769Y-137200552D01*
X167607769Y-137200552D02*
X167750626Y-137200552D01*
X167750626Y-137200552D02*
X167845864Y-137248171D01*
X167845864Y-137248171D02*
X167893483Y-137295790D01*
X167893483Y-137295790D02*
X167941102Y-137391028D01*
X167941102Y-137391028D02*
X167941102Y-137676742D01*
X167941102Y-137676742D02*
X167893483Y-137771980D01*
X167893483Y-137771980D02*
X167845864Y-137819600D01*
X167845864Y-137819600D02*
X167750626Y-137867219D01*
X167750626Y-137867219D02*
X167607769Y-137867219D01*
X169417293Y-138248171D02*
X169369674Y-138200552D01*
X169369674Y-138200552D02*
X169274436Y-138057695D01*
X169274436Y-138057695D02*
X169226817Y-137962457D01*
X169226817Y-137962457D02*
X169179198Y-137819600D01*
X169179198Y-137819600D02*
X169131579Y-137581504D01*
X169131579Y-137581504D02*
X169131579Y-137391028D01*
X169131579Y-137391028D02*
X169179198Y-137152933D01*
X169179198Y-137152933D02*
X169226817Y-137010076D01*
X169226817Y-137010076D02*
X169274436Y-136914838D01*
X169274436Y-136914838D02*
X169369674Y-136771980D01*
X169369674Y-136771980D02*
X169417293Y-136724361D01*
X169750627Y-136962457D02*
X169798246Y-136914838D01*
X169798246Y-136914838D02*
X169893484Y-136867219D01*
X169893484Y-136867219D02*
X170131579Y-136867219D01*
X170131579Y-136867219D02*
X170226817Y-136914838D01*
X170226817Y-136914838D02*
X170274436Y-136962457D01*
X170274436Y-136962457D02*
X170322055Y-137057695D01*
X170322055Y-137057695D02*
X170322055Y-137152933D01*
X170322055Y-137152933D02*
X170274436Y-137295790D01*
X170274436Y-137295790D02*
X169703008Y-137867219D01*
X169703008Y-137867219D02*
X170322055Y-137867219D01*
X170941103Y-136867219D02*
X171036341Y-136867219D01*
X171036341Y-136867219D02*
X171131579Y-136914838D01*
X171131579Y-136914838D02*
X171179198Y-136962457D01*
X171179198Y-136962457D02*
X171226817Y-137057695D01*
X171226817Y-137057695D02*
X171274436Y-137248171D01*
X171274436Y-137248171D02*
X171274436Y-137486266D01*
X171274436Y-137486266D02*
X171226817Y-137676742D01*
X171226817Y-137676742D02*
X171179198Y-137771980D01*
X171179198Y-137771980D02*
X171131579Y-137819600D01*
X171131579Y-137819600D02*
X171036341Y-137867219D01*
X171036341Y-137867219D02*
X170941103Y-137867219D01*
X170941103Y-137867219D02*
X170845865Y-137819600D01*
X170845865Y-137819600D02*
X170798246Y-137771980D01*
X170798246Y-137771980D02*
X170750627Y-137676742D01*
X170750627Y-137676742D02*
X170703008Y-137486266D01*
X170703008Y-137486266D02*
X170703008Y-137248171D01*
X170703008Y-137248171D02*
X170750627Y-137057695D01*
X170750627Y-137057695D02*
X170798246Y-136962457D01*
X170798246Y-136962457D02*
X170845865Y-136914838D01*
X170845865Y-136914838D02*
X170941103Y-136867219D01*
X171655389Y-136962457D02*
X171703008Y-136914838D01*
X171703008Y-136914838D02*
X171798246Y-136867219D01*
X171798246Y-136867219D02*
X172036341Y-136867219D01*
X172036341Y-136867219D02*
X172131579Y-136914838D01*
X172131579Y-136914838D02*
X172179198Y-136962457D01*
X172179198Y-136962457D02*
X172226817Y-137057695D01*
X172226817Y-137057695D02*
X172226817Y-137152933D01*
X172226817Y-137152933D02*
X172179198Y-137295790D01*
X172179198Y-137295790D02*
X171607770Y-137867219D01*
X171607770Y-137867219D02*
X172226817Y-137867219D01*
X172845865Y-136867219D02*
X172941103Y-136867219D01*
X172941103Y-136867219D02*
X173036341Y-136914838D01*
X173036341Y-136914838D02*
X173083960Y-136962457D01*
X173083960Y-136962457D02*
X173131579Y-137057695D01*
X173131579Y-137057695D02*
X173179198Y-137248171D01*
X173179198Y-137248171D02*
X173179198Y-137486266D01*
X173179198Y-137486266D02*
X173131579Y-137676742D01*
X173131579Y-137676742D02*
X173083960Y-137771980D01*
X173083960Y-137771980D02*
X173036341Y-137819600D01*
X173036341Y-137819600D02*
X172941103Y-137867219D01*
X172941103Y-137867219D02*
X172845865Y-137867219D01*
X172845865Y-137867219D02*
X172750627Y-137819600D01*
X172750627Y-137819600D02*
X172703008Y-137771980D01*
X172703008Y-137771980D02*
X172655389Y-137676742D01*
X172655389Y-137676742D02*
X172607770Y-137486266D01*
X172607770Y-137486266D02*
X172607770Y-137248171D01*
X172607770Y-137248171D02*
X172655389Y-137057695D01*
X172655389Y-137057695D02*
X172703008Y-136962457D01*
X172703008Y-136962457D02*
X172750627Y-136914838D01*
X172750627Y-136914838D02*
X172845865Y-136867219D01*
X174131579Y-137867219D02*
X173560151Y-137867219D01*
X173845865Y-137867219D02*
X173845865Y-136867219D01*
X173845865Y-136867219D02*
X173750627Y-137010076D01*
X173750627Y-137010076D02*
X173655389Y-137105314D01*
X173655389Y-137105314D02*
X173560151Y-137152933D01*
X175036341Y-136867219D02*
X174560151Y-136867219D01*
X174560151Y-136867219D02*
X174512532Y-137343409D01*
X174512532Y-137343409D02*
X174560151Y-137295790D01*
X174560151Y-137295790D02*
X174655389Y-137248171D01*
X174655389Y-137248171D02*
X174893484Y-137248171D01*
X174893484Y-137248171D02*
X174988722Y-137295790D01*
X174988722Y-137295790D02*
X175036341Y-137343409D01*
X175036341Y-137343409D02*
X175083960Y-137438647D01*
X175083960Y-137438647D02*
X175083960Y-137676742D01*
X175083960Y-137676742D02*
X175036341Y-137771980D01*
X175036341Y-137771980D02*
X174988722Y-137819600D01*
X174988722Y-137819600D02*
X174893484Y-137867219D01*
X174893484Y-137867219D02*
X174655389Y-137867219D01*
X174655389Y-137867219D02*
X174560151Y-137819600D01*
X174560151Y-137819600D02*
X174512532Y-137771980D01*
X175464913Y-136962457D02*
X175512532Y-136914838D01*
X175512532Y-136914838D02*
X175607770Y-136867219D01*
X175607770Y-136867219D02*
X175845865Y-136867219D01*
X175845865Y-136867219D02*
X175941103Y-136914838D01*
X175941103Y-136914838D02*
X175988722Y-136962457D01*
X175988722Y-136962457D02*
X176036341Y-137057695D01*
X176036341Y-137057695D02*
X176036341Y-137152933D01*
X176036341Y-137152933D02*
X175988722Y-137295790D01*
X175988722Y-137295790D02*
X175417294Y-137867219D01*
X175417294Y-137867219D02*
X176036341Y-137867219D01*
X176417294Y-136962457D02*
X176464913Y-136914838D01*
X176464913Y-136914838D02*
X176560151Y-136867219D01*
X176560151Y-136867219D02*
X176798246Y-136867219D01*
X176798246Y-136867219D02*
X176893484Y-136914838D01*
X176893484Y-136914838D02*
X176941103Y-136962457D01*
X176941103Y-136962457D02*
X176988722Y-137057695D01*
X176988722Y-137057695D02*
X176988722Y-137152933D01*
X176988722Y-137152933D02*
X176941103Y-137295790D01*
X176941103Y-137295790D02*
X176369675Y-137867219D01*
X176369675Y-137867219D02*
X176988722Y-137867219D01*
X177845865Y-137200552D02*
X177845865Y-137867219D01*
X177607770Y-136819600D02*
X177369675Y-137533885D01*
X177369675Y-137533885D02*
X177988722Y-137533885D01*
X178274437Y-138248171D02*
X178322056Y-138200552D01*
X178322056Y-138200552D02*
X178417294Y-138057695D01*
X178417294Y-138057695D02*
X178464913Y-137962457D01*
X178464913Y-137962457D02*
X178512532Y-137819600D01*
X178512532Y-137819600D02*
X178560151Y-137581504D01*
X178560151Y-137581504D02*
X178560151Y-137391028D01*
X178560151Y-137391028D02*
X178512532Y-137152933D01*
X178512532Y-137152933D02*
X178464913Y-137010076D01*
X178464913Y-137010076D02*
X178417294Y-136914838D01*
X178417294Y-136914838D02*
X178322056Y-136771980D01*
X178322056Y-136771980D02*
X178274437Y-136724361D01*
D12*
%TO.P,Buzzer1,1,Pin_1*%
%TO.N,Buzzer*%
X146050000Y-99060000D03*
D13*
%TO.P,Buzzer1,2,Pin_2*%
%TO.N,GND*%
X146050000Y-101600000D03*
%TD*%
D14*
%TO.P,U1,1,EN*%
%TO.N,unconnected-(U1-EN-Pad1)*%
X180340000Y-88900000D03*
D15*
%TO.P,U1,2,SENSOR_VP*%
%TO.N,unconnected-(U1-SENSOR_VP-Pad2)*%
X180340000Y-86360000D03*
%TO.P,U1,3,SENSOR_VN*%
%TO.N,unconnected-(U1-SENSOR_VN-Pad3)*%
X180340000Y-83820000D03*
%TO.P,U1,4,IO34*%
%TO.N,unconnected-(U1-IO34-Pad4)*%
X180340000Y-81280000D03*
%TO.P,U1,5,IO35*%
%TO.N,unconnected-(U1-IO35-Pad5)*%
X180340000Y-78740000D03*
%TO.P,U1,6,IO32*%
%TO.N,unconnected-(U1-IO32-Pad6)*%
X180340000Y-76200000D03*
%TO.P,U1,7,IO33*%
%TO.N,unconnected-(U1-IO33-Pad7)*%
X180340000Y-73660000D03*
%TO.P,U1,8,IO25*%
%TO.N,unconnected-(U1-IO25-Pad8)*%
X180340000Y-71120000D03*
%TO.P,U1,9,IO26*%
%TO.N,unconnected-(U1-IO26-Pad9)*%
X180340000Y-68580000D03*
%TO.P,U1,10,IO27*%
%TO.N,unconnected-(U1-IO27-Pad10)*%
X180340000Y-66040000D03*
%TO.P,U1,11,IO14*%
%TO.N,unconnected-(U1-IO14-Pad11)*%
X180340000Y-63500000D03*
%TO.P,U1,12,IO12*%
%TO.N,unconnected-(U1-IO12-Pad12)*%
X180340000Y-60960000D03*
%TO.P,U1,13,IO13*%
%TO.N,unconnected-(U1-IO13-Pad13)*%
X180340000Y-58420000D03*
%TO.P,U1,14,GND*%
%TO.N,GND*%
X180340000Y-55880000D03*
%TO.P,U1,15,VIN*%
%TO.N,Battery+*%
X180340000Y-53340000D03*
%TO.P,U1,16,3V3*%
%TO.N,3.3V*%
X154940000Y-53340000D03*
%TO.P,U1,17,GND*%
%TO.N,GND*%
X154940000Y-55880000D03*
%TO.P,U1,18,IO15*%
%TO.N,unconnected-(U1-IO15-Pad18)*%
X154940000Y-58420000D03*
%TO.P,U1,19,IO2*%
%TO.N,unconnected-(U1-IO2-Pad19)*%
X154940000Y-60960000D03*
%TO.P,U1,20,IO4*%
%TO.N,Left*%
X154940000Y-63500000D03*
%TO.P,U1,21,IO16*%
%TO.N,unconnected-(U1-IO16-Pad21)*%
X154940000Y-66040000D03*
%TO.P,U1,22,IO17*%
%TO.N,Buzzer*%
X154940000Y-68580000D03*
%TO.P,U1,23,IO5*%
%TO.N,unconnected-(U1-IO5-Pad23)*%
X154940000Y-71120000D03*
%TO.P,U1,24,IO18*%
%TO.N,Back*%
X154940000Y-73660000D03*
%TO.P,U1,25,IO19*%
%TO.N,Right*%
X154940000Y-76200000D03*
%TO.P,U1,26,IO21*%
%TO.N,SDA*%
X154940000Y-78740000D03*
%TO.P,U1,27,RXD0/IO3*%
%TO.N,unconnected-(U1-RXD0{slash}IO3-Pad27)*%
X154940000Y-81280000D03*
%TO.P,U1,28,TXD0/IO1*%
%TO.N,unconnected-(U1-TXD0{slash}IO1-Pad28)*%
X154940000Y-83820000D03*
%TO.P,U1,29,IO22*%
%TO.N,SCL*%
X154940000Y-86360000D03*
%TO.P,U1,30,IO23*%
%TO.N,Enter*%
X154940000Y-88900000D03*
%TD*%
D12*
%TO.P,MPU6050,1,Pin_1*%
%TO.N,unconnected-(MPU6050-Pin_1-Pad1)*%
X158765000Y-99060000D03*
D13*
%TO.P,MPU6050,2,Pin_2*%
%TO.N,unconnected-(MPU6050-Pin_2-Pad2)*%
X161305000Y-99060000D03*
%TO.P,MPU6050,3,Pin_3*%
%TO.N,unconnected-(MPU6050-Pin_3-Pad3)*%
X163845000Y-99060000D03*
%TO.P,MPU6050,4,Pin_4*%
%TO.N,unconnected-(MPU6050-Pin_4-Pad4)*%
X166385000Y-99060000D03*
%TO.P,MPU6050,5,Pin_5*%
%TO.N,SDA*%
X168925000Y-99060000D03*
%TO.P,MPU6050,6,Pin_6*%
%TO.N,SCL*%
X171465000Y-99060000D03*
%TO.P,MPU6050,7,Pin_7*%
%TO.N,GND*%
X174005000Y-99060000D03*
%TO.P,MPU6050,8,Pin_8*%
%TO.N,3.3V*%
X176545000Y-99060000D03*
%TD*%
%TO.P,Battery1,2,Pin_2*%
%TO.N,GND*%
X189230000Y-101600000D03*
D12*
%TO.P,Battery1,1,Pin_1*%
%TO.N,Battery+*%
X189230000Y-99060000D03*
%TD*%
D16*
%TO.P,Left1,1,1*%
%TO.N,3.3V*%
X184966000Y-111760000D03*
X172466000Y-111760000D03*
%TO.P,Left1,2,2*%
%TO.N,Left*%
X184966000Y-116760000D03*
X172466000Y-116760000D03*
%TD*%
%TO.P,Back1,1,1*%
%TO.N,3.3V*%
X184966000Y-126492000D03*
X172466000Y-126492000D03*
%TO.P,Back1,2,2*%
%TO.N,Back*%
X184966000Y-131492000D03*
X172466000Y-131492000D03*
%TD*%
%TO.P,Right1,1,1*%
%TO.N,3.3V*%
X163322000Y-111760000D03*
X150822000Y-111760000D03*
%TO.P,Right1,2,2*%
%TO.N,Right*%
X163322000Y-116760000D03*
X150822000Y-116760000D03*
%TD*%
D12*
%TO.P,OLED_Screen1,1,Pin_1*%
%TO.N,GND*%
X171440000Y-53340000D03*
D13*
%TO.P,OLED_Screen1,2,Pin_2*%
%TO.N,3.3V*%
X168900000Y-53340000D03*
%TO.P,OLED_Screen1,3,Pin_3*%
%TO.N,SCL*%
X166360000Y-53340000D03*
%TO.P,OLED_Screen1,4,Pin_4*%
%TO.N,SDA*%
X163820000Y-53340000D03*
%TD*%
D16*
%TO.P,Enter1,1,1*%
%TO.N,3.3V*%
X163322000Y-126746000D03*
X150822000Y-126746000D03*
%TO.P,Enter1,2,2*%
%TO.N,Enter*%
X163322000Y-131746000D03*
X150822000Y-131746000D03*
%TD*%
D17*
%TO.N,SCL*%
X171465000Y-99060000D02*
X168417000Y-102108000D01*
X162560000Y-48260000D02*
X166360000Y-52060000D01*
X168417000Y-102108000D02*
X155956000Y-102108000D01*
X155956000Y-102108000D02*
X149606000Y-95758000D01*
X149606000Y-95758000D02*
X149606000Y-51308000D01*
X149606000Y-51308000D02*
X152654000Y-48260000D01*
X152654000Y-48260000D02*
X162560000Y-48260000D01*
X166360000Y-52060000D02*
X166360000Y-53340000D01*
%TO.N,3.3V*%
X163322000Y-126746000D02*
X150822000Y-126746000D01*
X172212000Y-126746000D02*
X172466000Y-126492000D01*
X163322000Y-126746000D02*
X172212000Y-126746000D01*
X184966000Y-126492000D02*
X172466000Y-126492000D01*
X189484000Y-126492000D02*
X184966000Y-126492000D01*
X191008000Y-124968000D02*
X189484000Y-126492000D01*
X191008000Y-113792000D02*
X191008000Y-124968000D01*
X188976000Y-111760000D02*
X191008000Y-113792000D01*
X184966000Y-111760000D02*
X188976000Y-111760000D01*
X172466000Y-111760000D02*
X184966000Y-111760000D01*
X163322000Y-111760000D02*
X172466000Y-111760000D01*
X150822000Y-111760000D02*
X163322000Y-111760000D01*
X146304000Y-110744000D02*
X147320000Y-111760000D01*
X147320000Y-105664000D02*
X146304000Y-106680000D01*
X147320000Y-111760000D02*
X150822000Y-111760000D01*
X176545000Y-102347000D02*
X173228000Y-105664000D01*
X146304000Y-106680000D02*
X146304000Y-110744000D01*
X176545000Y-99060000D02*
X176545000Y-102347000D01*
X173228000Y-105664000D02*
X147320000Y-105664000D01*
X173482000Y-57404000D02*
X169418000Y-57404000D01*
X169418000Y-57404000D02*
X167894000Y-55880000D01*
%TO.N,SDA*%
X151130000Y-77724000D02*
X152146000Y-78740000D01*
X151130000Y-52070000D02*
X151130000Y-77724000D01*
X153670000Y-49530000D02*
X151130000Y-52070000D01*
X160010000Y-49530000D02*
X153670000Y-49530000D01*
X163820000Y-53340000D02*
X160010000Y-49530000D01*
X152146000Y-78740000D02*
X154940000Y-78740000D01*
X151130000Y-79756000D02*
X152146000Y-78740000D01*
X151130000Y-88900000D02*
X151130000Y-79756000D01*
X165107500Y-91440000D02*
X153670000Y-91440000D01*
X168925000Y-95257500D02*
X165107500Y-91440000D01*
X168925000Y-99060000D02*
X168925000Y-95257500D01*
X153670000Y-91440000D02*
X151130000Y-88900000D01*
%TO.N,3.3V*%
X176545000Y-99060000D02*
X176545000Y-60467000D01*
X154940000Y-52578000D02*
X155448000Y-52070000D01*
X155448000Y-52070000D02*
X159258000Y-52070000D01*
X154940000Y-53340000D02*
X154940000Y-52578000D01*
X163068000Y-55880000D02*
X167894000Y-55880000D01*
X159258000Y-52070000D02*
X163068000Y-55880000D01*
X176545000Y-60467000D02*
X173482000Y-57404000D01*
X168900000Y-54874000D02*
X168900000Y-53340000D01*
X167894000Y-55880000D02*
X168900000Y-54874000D01*
%TO.N,Battery+*%
X189230000Y-57150000D02*
X185420000Y-53340000D01*
X185420000Y-53340000D02*
X180340000Y-53340000D01*
X189230000Y-99060000D02*
X189230000Y-57150000D01*
%TO.N,SCL*%
X162560000Y-86360000D02*
X154940000Y-86360000D01*
X171465000Y-95265000D02*
X162560000Y-86360000D01*
X171465000Y-99060000D02*
X171465000Y-95265000D01*
%TD*%
%TA.AperFunction,Conductor*%
%TO.N,GND*%
G36*
X196226843Y-42630207D02*
G01*
X196296084Y-42685426D01*
X196334511Y-42765218D01*
X196339500Y-42809500D01*
X196339500Y-140530500D01*
X196319793Y-140616843D01*
X196264574Y-140686084D01*
X196184782Y-140724511D01*
X196140500Y-140729500D01*
X139139500Y-140729500D01*
X139053157Y-140709793D01*
X138983916Y-140654574D01*
X138945489Y-140574782D01*
X138940500Y-140530500D01*
X138940500Y-136529183D01*
X141505500Y-136529183D01*
X141544603Y-136788608D01*
X141544606Y-136788623D01*
X141621938Y-137039327D01*
X141735772Y-137275703D01*
X141735776Y-137275711D01*
X141883564Y-137492476D01*
X142062015Y-137684801D01*
X142062021Y-137684807D01*
X142164581Y-137766595D01*
X142267141Y-137848384D01*
X142267141Y-137848385D01*
X142494359Y-137979569D01*
X142537585Y-137996533D01*
X142738584Y-138075420D01*
X142994370Y-138133802D01*
X143131710Y-138144093D01*
X143190502Y-138148500D01*
X143190506Y-138148500D01*
X143321498Y-138148500D01*
X143376191Y-138144401D01*
X143517630Y-138133802D01*
X143773416Y-138075420D01*
X144017643Y-137979568D01*
X144244857Y-137848386D01*
X144449981Y-137684805D01*
X144628433Y-137492479D01*
X144776228Y-137275704D01*
X144890063Y-137039323D01*
X144967396Y-136788615D01*
X145006500Y-136529182D01*
X145006500Y-136266818D01*
X144969299Y-136020010D01*
X156620698Y-136020010D01*
X156620698Y-138952522D01*
X179261815Y-138952522D01*
X179261815Y-136529183D01*
X190273500Y-136529183D01*
X190312603Y-136788608D01*
X190312606Y-136788623D01*
X190389938Y-137039327D01*
X190503772Y-137275703D01*
X190503776Y-137275711D01*
X190651564Y-137492476D01*
X190830015Y-137684801D01*
X190830021Y-137684807D01*
X190932581Y-137766595D01*
X191035141Y-137848384D01*
X191035141Y-137848385D01*
X191262359Y-137979569D01*
X191305585Y-137996533D01*
X191506584Y-138075420D01*
X191762370Y-138133802D01*
X191899710Y-138144093D01*
X191958502Y-138148500D01*
X191958506Y-138148500D01*
X192089498Y-138148500D01*
X192144191Y-138144401D01*
X192285630Y-138133802D01*
X192541416Y-138075420D01*
X192785643Y-137979568D01*
X193012857Y-137848386D01*
X193217981Y-137684805D01*
X193396433Y-137492479D01*
X193544228Y-137275704D01*
X193658063Y-137039323D01*
X193735396Y-136788615D01*
X193774500Y-136529182D01*
X193774500Y-136266818D01*
X193735396Y-136007385D01*
X193658063Y-135756677D01*
X193544228Y-135520296D01*
X193544223Y-135520288D01*
X193396435Y-135303523D01*
X193217984Y-135111198D01*
X193217978Y-135111192D01*
X193012858Y-134947615D01*
X193012858Y-134947614D01*
X192785640Y-134816430D01*
X192620301Y-134751540D01*
X192541416Y-134720580D01*
X192477469Y-134705984D01*
X192285633Y-134662198D01*
X192089498Y-134647500D01*
X192089494Y-134647500D01*
X191958506Y-134647500D01*
X191958502Y-134647500D01*
X191762366Y-134662198D01*
X191506584Y-134720580D01*
X191262360Y-134816430D01*
X191262359Y-134816430D01*
X191035141Y-134947614D01*
X191035141Y-134947615D01*
X190830021Y-135111192D01*
X190830015Y-135111198D01*
X190651564Y-135303523D01*
X190503776Y-135520288D01*
X190503772Y-135520296D01*
X190389938Y-135756672D01*
X190312606Y-136007376D01*
X190312603Y-136007391D01*
X190273500Y-136266816D01*
X190273500Y-136529183D01*
X179261815Y-136529183D01*
X179261815Y-136020010D01*
X156620698Y-136020010D01*
X144969299Y-136020010D01*
X144967396Y-136007385D01*
X144890063Y-135756677D01*
X144776228Y-135520296D01*
X144776223Y-135520288D01*
X144628435Y-135303523D01*
X144449984Y-135111198D01*
X144449978Y-135111192D01*
X144244858Y-134947615D01*
X144244858Y-134947614D01*
X144017640Y-134816430D01*
X143852301Y-134751540D01*
X143773416Y-134720580D01*
X143709469Y-134705984D01*
X143517633Y-134662198D01*
X143321498Y-134647500D01*
X143321494Y-134647500D01*
X143190506Y-134647500D01*
X143190502Y-134647500D01*
X142994366Y-134662198D01*
X142738584Y-134720580D01*
X142494360Y-134816430D01*
X142494359Y-134816430D01*
X142267141Y-134947614D01*
X142267141Y-134947615D01*
X142062021Y-135111192D01*
X142062015Y-135111198D01*
X141883564Y-135303523D01*
X141735776Y-135520288D01*
X141735772Y-135520296D01*
X141621938Y-135756672D01*
X141544606Y-136007376D01*
X141544603Y-136007391D01*
X141505500Y-136266816D01*
X141505500Y-136529183D01*
X138940500Y-136529183D01*
X138940500Y-131807626D01*
X148693778Y-131807626D01*
X148723467Y-132052133D01*
X148782874Y-132257231D01*
X148791992Y-132288710D01*
X148897580Y-132511231D01*
X149037496Y-132713934D01*
X149208115Y-132891568D01*
X149208117Y-132891569D01*
X149208117Y-132891570D01*
X149339385Y-132990210D01*
X149405020Y-133039532D01*
X149623110Y-133153994D01*
X149856736Y-133231991D01*
X149856734Y-133231991D01*
X149978292Y-133251745D01*
X150099849Y-133271500D01*
X150099851Y-133271500D01*
X151482476Y-133271500D01*
X151482478Y-133271500D01*
X151666504Y-133256644D01*
X151666512Y-133256641D01*
X151666517Y-133256641D01*
X151774870Y-133229934D01*
X151905649Y-133197700D01*
X152132242Y-133101158D01*
X152340414Y-132969518D01*
X152524774Y-132806189D01*
X152680546Y-132615402D01*
X152803697Y-132402098D01*
X152891037Y-132171802D01*
X152940304Y-131930477D01*
X152945255Y-131807626D01*
X161193778Y-131807626D01*
X161223467Y-132052133D01*
X161282874Y-132257231D01*
X161291992Y-132288710D01*
X161397580Y-132511231D01*
X161537496Y-132713934D01*
X161708115Y-132891568D01*
X161708117Y-132891569D01*
X161708117Y-132891570D01*
X161839385Y-132990210D01*
X161905020Y-133039532D01*
X162123110Y-133153994D01*
X162356736Y-133231991D01*
X162356734Y-133231991D01*
X162478292Y-133251745D01*
X162599849Y-133271500D01*
X162599851Y-133271500D01*
X163982476Y-133271500D01*
X163982478Y-133271500D01*
X164166504Y-133256644D01*
X164166512Y-133256641D01*
X164166517Y-133256641D01*
X164274870Y-133229934D01*
X164405649Y-133197700D01*
X164632242Y-133101158D01*
X164840414Y-132969518D01*
X165024774Y-132806189D01*
X165180546Y-132615402D01*
X165303697Y-132402098D01*
X165391037Y-132171802D01*
X165440304Y-131930477D01*
X165450222Y-131684374D01*
X165434346Y-131553626D01*
X170337778Y-131553626D01*
X170367467Y-131798133D01*
X170405801Y-131930477D01*
X170435992Y-132034710D01*
X170541580Y-132257231D01*
X170681496Y-132459934D01*
X170852115Y-132637568D01*
X170852117Y-132637569D01*
X170852117Y-132637570D01*
X170983385Y-132736210D01*
X171049020Y-132785532D01*
X171267110Y-132899994D01*
X171500736Y-132977991D01*
X171500734Y-132977991D01*
X171622292Y-132997745D01*
X171743849Y-133017500D01*
X171743851Y-133017500D01*
X173126476Y-133017500D01*
X173126478Y-133017500D01*
X173310504Y-133002644D01*
X173310512Y-133002641D01*
X173310517Y-133002641D01*
X173444905Y-132969517D01*
X173549649Y-132943700D01*
X173776242Y-132847158D01*
X173984414Y-132715518D01*
X174168774Y-132552189D01*
X174324546Y-132361402D01*
X174447697Y-132148098D01*
X174535037Y-131917802D01*
X174584304Y-131676477D01*
X174589255Y-131553626D01*
X182837778Y-131553626D01*
X182867467Y-131798133D01*
X182905801Y-131930477D01*
X182935992Y-132034710D01*
X183041580Y-132257231D01*
X183181496Y-132459934D01*
X183352115Y-132637568D01*
X183352117Y-132637569D01*
X183352117Y-132637570D01*
X183483385Y-132736210D01*
X183549020Y-132785532D01*
X183767110Y-132899994D01*
X184000736Y-132977991D01*
X184000734Y-132977991D01*
X184122292Y-132997745D01*
X184243849Y-133017500D01*
X184243851Y-133017500D01*
X185626476Y-133017500D01*
X185626478Y-133017500D01*
X185810504Y-133002644D01*
X185810512Y-133002641D01*
X185810517Y-133002641D01*
X185944905Y-132969517D01*
X186049649Y-132943700D01*
X186276242Y-132847158D01*
X186484414Y-132715518D01*
X186668774Y-132552189D01*
X186824546Y-132361402D01*
X186947697Y-132148098D01*
X187035037Y-131917802D01*
X187084304Y-131676477D01*
X187094222Y-131430374D01*
X187064533Y-131185868D01*
X186996008Y-130949290D01*
X186890420Y-130726769D01*
X186750504Y-130524066D01*
X186579885Y-130346432D01*
X186579882Y-130346429D01*
X186382980Y-130198468D01*
X186164888Y-130084005D01*
X185931262Y-130006008D01*
X185931265Y-130006008D01*
X185741269Y-129975132D01*
X185688151Y-129966500D01*
X184305522Y-129966500D01*
X184244180Y-129971452D01*
X184121492Y-129981356D01*
X184121482Y-129981358D01*
X183882351Y-130040299D01*
X183655763Y-130136839D01*
X183655758Y-130136841D01*
X183447589Y-130268479D01*
X183447586Y-130268482D01*
X183263230Y-130431806D01*
X183263223Y-130431813D01*
X183107455Y-130622597D01*
X183107451Y-130622603D01*
X182984304Y-130835898D01*
X182896962Y-131066199D01*
X182847696Y-131307522D01*
X182847696Y-131307523D01*
X182837778Y-131553624D01*
X182837778Y-131553626D01*
X174589255Y-131553626D01*
X174594222Y-131430374D01*
X174564533Y-131185868D01*
X174496008Y-130949290D01*
X174390420Y-130726769D01*
X174250504Y-130524066D01*
X174079885Y-130346432D01*
X174079882Y-130346429D01*
X173882980Y-130198468D01*
X173664888Y-130084005D01*
X173431262Y-130006008D01*
X173431265Y-130006008D01*
X173241269Y-129975132D01*
X173188151Y-129966500D01*
X171805522Y-129966500D01*
X171744180Y-129971452D01*
X171621492Y-129981356D01*
X171621482Y-129981358D01*
X171382351Y-130040299D01*
X171155763Y-130136839D01*
X171155758Y-130136841D01*
X170947589Y-130268479D01*
X170947586Y-130268482D01*
X170763230Y-130431806D01*
X170763223Y-130431813D01*
X170607455Y-130622597D01*
X170607451Y-130622603D01*
X170484304Y-130835898D01*
X170396962Y-131066199D01*
X170347696Y-131307522D01*
X170347696Y-131307523D01*
X170337778Y-131553624D01*
X170337778Y-131553626D01*
X165434346Y-131553626D01*
X165420533Y-131439868D01*
X165352008Y-131203290D01*
X165246420Y-130980769D01*
X165106504Y-130778066D01*
X164935885Y-130600432D01*
X164935882Y-130600429D01*
X164738980Y-130452468D01*
X164520888Y-130338005D01*
X164287262Y-130260008D01*
X164287265Y-130260008D01*
X164097269Y-130229132D01*
X164044151Y-130220500D01*
X162661522Y-130220500D01*
X162600180Y-130225452D01*
X162477492Y-130235356D01*
X162477482Y-130235358D01*
X162238351Y-130294299D01*
X162011763Y-130390839D01*
X162011758Y-130390841D01*
X161803589Y-130522479D01*
X161803586Y-130522482D01*
X161619230Y-130685806D01*
X161619223Y-130685813D01*
X161463455Y-130876597D01*
X161463451Y-130876603D01*
X161340304Y-131089898D01*
X161252962Y-131320199D01*
X161203696Y-131561522D01*
X161203696Y-131561523D01*
X161193778Y-131807624D01*
X161193778Y-131807626D01*
X152945255Y-131807626D01*
X152950222Y-131684374D01*
X152920533Y-131439868D01*
X152852008Y-131203290D01*
X152746420Y-130980769D01*
X152606504Y-130778066D01*
X152435885Y-130600432D01*
X152435882Y-130600429D01*
X152238980Y-130452468D01*
X152020888Y-130338005D01*
X151787262Y-130260008D01*
X151787265Y-130260008D01*
X151597269Y-130229132D01*
X151544151Y-130220500D01*
X150161522Y-130220500D01*
X150100180Y-130225452D01*
X149977492Y-130235356D01*
X149977482Y-130235358D01*
X149738351Y-130294299D01*
X149511763Y-130390839D01*
X149511758Y-130390841D01*
X149303589Y-130522479D01*
X149303586Y-130522482D01*
X149119230Y-130685806D01*
X149119223Y-130685813D01*
X148963455Y-130876597D01*
X148963451Y-130876603D01*
X148840304Y-131089898D01*
X148752962Y-131320199D01*
X148703696Y-131561522D01*
X148703696Y-131561523D01*
X148693778Y-131807624D01*
X148693778Y-131807626D01*
X138940500Y-131807626D01*
X138940500Y-116821626D01*
X148693778Y-116821626D01*
X148723467Y-117066133D01*
X148791989Y-117302700D01*
X148791992Y-117302710D01*
X148897580Y-117525231D01*
X149037496Y-117727934D01*
X149208115Y-117905568D01*
X149208117Y-117905569D01*
X149208117Y-117905570D01*
X149339385Y-118004210D01*
X149405020Y-118053532D01*
X149623110Y-118167994D01*
X149856736Y-118245991D01*
X149856734Y-118245991D01*
X149978292Y-118265745D01*
X150099849Y-118285500D01*
X150099851Y-118285500D01*
X151482476Y-118285500D01*
X151482478Y-118285500D01*
X151666504Y-118270644D01*
X151666512Y-118270641D01*
X151666517Y-118270641D01*
X151774870Y-118243934D01*
X151905649Y-118211700D01*
X152132242Y-118115158D01*
X152340414Y-117983518D01*
X152524774Y-117820189D01*
X152680546Y-117629402D01*
X152803697Y-117416098D01*
X152891037Y-117185802D01*
X152940304Y-116944477D01*
X152945255Y-116821626D01*
X161193778Y-116821626D01*
X161223467Y-117066133D01*
X161291989Y-117302700D01*
X161291992Y-117302710D01*
X161397580Y-117525231D01*
X161537496Y-117727934D01*
X161708115Y-117905568D01*
X161708117Y-117905569D01*
X161708117Y-117905570D01*
X161839385Y-118004210D01*
X161905020Y-118053532D01*
X162123110Y-118167994D01*
X162356736Y-118245991D01*
X162356734Y-118245991D01*
X162478292Y-118265745D01*
X162599849Y-118285500D01*
X162599851Y-118285500D01*
X163982476Y-118285500D01*
X163982478Y-118285500D01*
X164166504Y-118270644D01*
X164166512Y-118270641D01*
X164166517Y-118270641D01*
X164274870Y-118243934D01*
X164405649Y-118211700D01*
X164632242Y-118115158D01*
X164840414Y-117983518D01*
X165024774Y-117820189D01*
X165180546Y-117629402D01*
X165303697Y-117416098D01*
X165391037Y-117185802D01*
X165440304Y-116944477D01*
X165445255Y-116821626D01*
X170337778Y-116821626D01*
X170367467Y-117066133D01*
X170435989Y-117302700D01*
X170435992Y-117302710D01*
X170541580Y-117525231D01*
X170681496Y-117727934D01*
X170852115Y-117905568D01*
X170852117Y-117905569D01*
X170852117Y-117905570D01*
X170983385Y-118004210D01*
X171049020Y-118053532D01*
X171267110Y-118167994D01*
X171500736Y-118245991D01*
X171500734Y-118245991D01*
X171622292Y-118265745D01*
X171743849Y-118285500D01*
X171743851Y-118285500D01*
X173126476Y-118285500D01*
X173126478Y-118285500D01*
X173310504Y-118270644D01*
X173310512Y-118270641D01*
X173310517Y-118270641D01*
X173418870Y-118243934D01*
X173549649Y-118211700D01*
X173776242Y-118115158D01*
X173984414Y-117983518D01*
X174168774Y-117820189D01*
X174324546Y-117629402D01*
X174447697Y-117416098D01*
X174535037Y-117185802D01*
X174584304Y-116944477D01*
X174589255Y-116821626D01*
X182837778Y-116821626D01*
X182867467Y-117066133D01*
X182935989Y-117302700D01*
X182935992Y-117302710D01*
X183041580Y-117525231D01*
X183181496Y-117727934D01*
X183352115Y-117905568D01*
X183352117Y-117905569D01*
X183352117Y-117905570D01*
X183483385Y-118004210D01*
X183549020Y-118053532D01*
X183767110Y-118167994D01*
X184000736Y-118245991D01*
X184000734Y-118245991D01*
X184122292Y-118265745D01*
X184243849Y-118285500D01*
X184243851Y-118285500D01*
X185626476Y-118285500D01*
X185626478Y-118285500D01*
X185810504Y-118270644D01*
X185810512Y-118270641D01*
X185810517Y-118270641D01*
X185918870Y-118243934D01*
X186049649Y-118211700D01*
X186276242Y-118115158D01*
X186484414Y-117983518D01*
X186668774Y-117820189D01*
X186824546Y-117629402D01*
X186947697Y-117416098D01*
X187035037Y-117185802D01*
X187084304Y-116944477D01*
X187094222Y-116698374D01*
X187064533Y-116453868D01*
X186996008Y-116217290D01*
X186890420Y-115994769D01*
X186750504Y-115792066D01*
X186579885Y-115614432D01*
X186579882Y-115614429D01*
X186382980Y-115466468D01*
X186164888Y-115352005D01*
X185931262Y-115274008D01*
X185931265Y-115274008D01*
X185741269Y-115243132D01*
X185688151Y-115234500D01*
X184305522Y-115234500D01*
X184244180Y-115239452D01*
X184121492Y-115249356D01*
X184121482Y-115249358D01*
X183882351Y-115308299D01*
X183655763Y-115404839D01*
X183655758Y-115404841D01*
X183447589Y-115536479D01*
X183447586Y-115536482D01*
X183263230Y-115699806D01*
X183263223Y-115699813D01*
X183107455Y-115890597D01*
X183107451Y-115890603D01*
X182984304Y-116103898D01*
X182896962Y-116334199D01*
X182847696Y-116575522D01*
X182847696Y-116575523D01*
X182837778Y-116821624D01*
X182837778Y-116821626D01*
X174589255Y-116821626D01*
X174594222Y-116698374D01*
X174564533Y-116453868D01*
X174496008Y-116217290D01*
X174390420Y-115994769D01*
X174250504Y-115792066D01*
X174079885Y-115614432D01*
X174079882Y-115614429D01*
X173882980Y-115466468D01*
X173664888Y-115352005D01*
X173431262Y-115274008D01*
X173431265Y-115274008D01*
X173241269Y-115243132D01*
X173188151Y-115234500D01*
X171805522Y-115234500D01*
X171744180Y-115239452D01*
X171621492Y-115249356D01*
X171621482Y-115249358D01*
X171382351Y-115308299D01*
X171155763Y-115404839D01*
X171155758Y-115404841D01*
X170947589Y-115536479D01*
X170947586Y-115536482D01*
X170763230Y-115699806D01*
X170763223Y-115699813D01*
X170607455Y-115890597D01*
X170607451Y-115890603D01*
X170484304Y-116103898D01*
X170396962Y-116334199D01*
X170347696Y-116575522D01*
X170347696Y-116575523D01*
X170337778Y-116821624D01*
X170337778Y-116821626D01*
X165445255Y-116821626D01*
X165450222Y-116698374D01*
X165420533Y-116453868D01*
X165352008Y-116217290D01*
X165246420Y-115994769D01*
X165106504Y-115792066D01*
X164935885Y-115614432D01*
X164935882Y-115614429D01*
X164738980Y-115466468D01*
X164520888Y-115352005D01*
X164287262Y-115274008D01*
X164287265Y-115274008D01*
X164097269Y-115243132D01*
X164044151Y-115234500D01*
X162661522Y-115234500D01*
X162600180Y-115239452D01*
X162477492Y-115249356D01*
X162477482Y-115249358D01*
X162238351Y-115308299D01*
X162011763Y-115404839D01*
X162011758Y-115404841D01*
X161803589Y-115536479D01*
X161803586Y-115536482D01*
X161619230Y-115699806D01*
X161619223Y-115699813D01*
X161463455Y-115890597D01*
X161463451Y-115890603D01*
X161340304Y-116103898D01*
X161252962Y-116334199D01*
X161203696Y-116575522D01*
X161203696Y-116575523D01*
X161193778Y-116821624D01*
X161193778Y-116821626D01*
X152945255Y-116821626D01*
X152950222Y-116698374D01*
X152920533Y-116453868D01*
X152852008Y-116217290D01*
X152746420Y-115994769D01*
X152606504Y-115792066D01*
X152435885Y-115614432D01*
X152435882Y-115614429D01*
X152238980Y-115466468D01*
X152020888Y-115352005D01*
X151787262Y-115274008D01*
X151787265Y-115274008D01*
X151597269Y-115243132D01*
X151544151Y-115234500D01*
X150161522Y-115234500D01*
X150100180Y-115239452D01*
X149977492Y-115249356D01*
X149977482Y-115249358D01*
X149738351Y-115308299D01*
X149511763Y-115404839D01*
X149511758Y-115404841D01*
X149303589Y-115536479D01*
X149303586Y-115536482D01*
X149119230Y-115699806D01*
X149119223Y-115699813D01*
X148963455Y-115890597D01*
X148963451Y-115890603D01*
X148840304Y-116103898D01*
X148752962Y-116334199D01*
X148703696Y-116575522D01*
X148703696Y-116575523D01*
X148693778Y-116821624D01*
X148693778Y-116821626D01*
X138940500Y-116821626D01*
X138940500Y-106704992D01*
X145317754Y-106704992D01*
X145321702Y-106735986D01*
X145322500Y-106748570D01*
X145322500Y-110731546D01*
X145320285Y-110818912D01*
X145330643Y-110876703D01*
X145331693Y-110884191D01*
X145337632Y-110942589D01*
X145337633Y-110942592D01*
X145346986Y-110972406D01*
X145349990Y-110984646D01*
X145355501Y-111015395D01*
X145355504Y-111015403D01*
X145377280Y-111069922D01*
X145379815Y-111077043D01*
X145397389Y-111133052D01*
X145397392Y-111133060D01*
X145412555Y-111160377D01*
X145417963Y-111171766D01*
X145429551Y-111200775D01*
X145461858Y-111249796D01*
X145465768Y-111256251D01*
X145494266Y-111307592D01*
X145514621Y-111331302D01*
X145522204Y-111341360D01*
X145539399Y-111367450D01*
X145539401Y-111367452D01*
X145539405Y-111367457D01*
X145580903Y-111408955D01*
X145586044Y-111414501D01*
X145624293Y-111459055D01*
X145649001Y-111478180D01*
X145658463Y-111486514D01*
X146617165Y-112445215D01*
X146677381Y-112508562D01*
X146725582Y-112542110D01*
X146731607Y-112546654D01*
X146777102Y-112583751D01*
X146796199Y-112593727D01*
X146804793Y-112598216D01*
X146815575Y-112604748D01*
X146841220Y-112622597D01*
X146895177Y-112645751D01*
X146901985Y-112648985D01*
X146954035Y-112676174D01*
X146984074Y-112684768D01*
X146995944Y-112688995D01*
X147002462Y-112691791D01*
X147024660Y-112701318D01*
X147082171Y-112713135D01*
X147089496Y-112714933D01*
X147145951Y-112731088D01*
X147177116Y-112733461D01*
X147189584Y-112735210D01*
X147220191Y-112741500D01*
X147278892Y-112741500D01*
X147286430Y-112741786D01*
X147344992Y-112746246D01*
X147375994Y-112742297D01*
X147388570Y-112741500D01*
X148965740Y-112741500D01*
X149052083Y-112761207D01*
X149109257Y-112802646D01*
X149208115Y-112905568D01*
X149208117Y-112905569D01*
X149208117Y-112905570D01*
X149339385Y-113004210D01*
X149405020Y-113053532D01*
X149623110Y-113167994D01*
X149856736Y-113245991D01*
X149856734Y-113245991D01*
X149978292Y-113265745D01*
X150099849Y-113285500D01*
X150099851Y-113285500D01*
X151482476Y-113285500D01*
X151482478Y-113285500D01*
X151666504Y-113270644D01*
X151666512Y-113270641D01*
X151666517Y-113270641D01*
X151774870Y-113243934D01*
X151905649Y-113211700D01*
X152132242Y-113115158D01*
X152340414Y-112983518D01*
X152524774Y-112820189D01*
X152529300Y-112814646D01*
X152599171Y-112760227D01*
X152683448Y-112741500D01*
X161465740Y-112741500D01*
X161552083Y-112761207D01*
X161609257Y-112802646D01*
X161708115Y-112905568D01*
X161708117Y-112905569D01*
X161708117Y-112905570D01*
X161839385Y-113004210D01*
X161905020Y-113053532D01*
X162123110Y-113167994D01*
X162356736Y-113245991D01*
X162356734Y-113245991D01*
X162478292Y-113265745D01*
X162599849Y-113285500D01*
X162599851Y-113285500D01*
X163982476Y-113285500D01*
X163982478Y-113285500D01*
X164166504Y-113270644D01*
X164166512Y-113270641D01*
X164166517Y-113270641D01*
X164274870Y-113243934D01*
X164405649Y-113211700D01*
X164632242Y-113115158D01*
X164840414Y-112983518D01*
X165024774Y-112820189D01*
X165029300Y-112814646D01*
X165099171Y-112760227D01*
X165183448Y-112741500D01*
X170609740Y-112741500D01*
X170696083Y-112761207D01*
X170753257Y-112802646D01*
X170852115Y-112905568D01*
X170852117Y-112905569D01*
X170852117Y-112905570D01*
X170983385Y-113004210D01*
X171049020Y-113053532D01*
X171267110Y-113167994D01*
X171500736Y-113245991D01*
X171500734Y-113245991D01*
X171622292Y-113265745D01*
X171743849Y-113285500D01*
X171743851Y-113285500D01*
X173126476Y-113285500D01*
X173126478Y-113285500D01*
X173310504Y-113270644D01*
X173310512Y-113270641D01*
X173310517Y-113270641D01*
X173418870Y-113243934D01*
X173549649Y-113211700D01*
X173776242Y-113115158D01*
X173984414Y-112983518D01*
X174168774Y-112820189D01*
X174173300Y-112814646D01*
X174243171Y-112760227D01*
X174327448Y-112741500D01*
X183109740Y-112741500D01*
X183196083Y-112761207D01*
X183253257Y-112802646D01*
X183352115Y-112905568D01*
X183352117Y-112905569D01*
X183352117Y-112905570D01*
X183483385Y-113004210D01*
X183549020Y-113053532D01*
X183767110Y-113167994D01*
X184000736Y-113245991D01*
X184000734Y-113245991D01*
X184122292Y-113265745D01*
X184243849Y-113285500D01*
X184243851Y-113285500D01*
X185626476Y-113285500D01*
X185626478Y-113285500D01*
X185810504Y-113270644D01*
X185810512Y-113270641D01*
X185810517Y-113270641D01*
X185918870Y-113243934D01*
X186049649Y-113211700D01*
X186276242Y-113115158D01*
X186484414Y-112983518D01*
X186668774Y-112820189D01*
X186673300Y-112814646D01*
X186743171Y-112760227D01*
X186827448Y-112741500D01*
X188487021Y-112741500D01*
X188573364Y-112761207D01*
X188627735Y-112799786D01*
X189968214Y-114140264D01*
X190015333Y-114215252D01*
X190026500Y-114280978D01*
X190026500Y-124479021D01*
X190006793Y-124565364D01*
X189968214Y-124619735D01*
X189135736Y-125452214D01*
X189060748Y-125499333D01*
X188995022Y-125510500D01*
X186822260Y-125510500D01*
X186735917Y-125490793D01*
X186678742Y-125449353D01*
X186579885Y-125346432D01*
X186579882Y-125346429D01*
X186382980Y-125198468D01*
X186164888Y-125084005D01*
X185931262Y-125006008D01*
X185931265Y-125006008D01*
X185741269Y-124975132D01*
X185688151Y-124966500D01*
X184305522Y-124966500D01*
X184244180Y-124971452D01*
X184121492Y-124981356D01*
X184121482Y-124981358D01*
X183882351Y-125040299D01*
X183655763Y-125136839D01*
X183655758Y-125136841D01*
X183447589Y-125268479D01*
X183447586Y-125268482D01*
X183263230Y-125431806D01*
X183263220Y-125431817D01*
X183258700Y-125437354D01*
X183188829Y-125491773D01*
X183104552Y-125510500D01*
X174322260Y-125510500D01*
X174235917Y-125490793D01*
X174178742Y-125449353D01*
X174079885Y-125346432D01*
X174079882Y-125346429D01*
X173882980Y-125198468D01*
X173664888Y-125084005D01*
X173431262Y-125006008D01*
X173431265Y-125006008D01*
X173241269Y-124975132D01*
X173188151Y-124966500D01*
X171805522Y-124966500D01*
X171744180Y-124971452D01*
X171621492Y-124981356D01*
X171621482Y-124981358D01*
X171382351Y-125040299D01*
X171155763Y-125136839D01*
X171155758Y-125136841D01*
X170947589Y-125268479D01*
X170947586Y-125268482D01*
X170763230Y-125431806D01*
X170763223Y-125431813D01*
X170607455Y-125622597D01*
X170607448Y-125622607D01*
X170582972Y-125665001D01*
X170522733Y-125729922D01*
X170440292Y-125762278D01*
X170410634Y-125764500D01*
X165178260Y-125764500D01*
X165091917Y-125744793D01*
X165034742Y-125703353D01*
X164935885Y-125600432D01*
X164935882Y-125600429D01*
X164738980Y-125452468D01*
X164520888Y-125338005D01*
X164287262Y-125260008D01*
X164287265Y-125260008D01*
X164097269Y-125229132D01*
X164044151Y-125220500D01*
X162661522Y-125220500D01*
X162600180Y-125225452D01*
X162477492Y-125235356D01*
X162477482Y-125235358D01*
X162238351Y-125294299D01*
X162011763Y-125390839D01*
X162011758Y-125390841D01*
X161803589Y-125522479D01*
X161803586Y-125522482D01*
X161619230Y-125685806D01*
X161619220Y-125685817D01*
X161614700Y-125691354D01*
X161544829Y-125745773D01*
X161460552Y-125764500D01*
X152678260Y-125764500D01*
X152591917Y-125744793D01*
X152534742Y-125703353D01*
X152435885Y-125600432D01*
X152435882Y-125600429D01*
X152238980Y-125452468D01*
X152020888Y-125338005D01*
X151787262Y-125260008D01*
X151787265Y-125260008D01*
X151597269Y-125229132D01*
X151544151Y-125220500D01*
X150161522Y-125220500D01*
X150100180Y-125225452D01*
X149977492Y-125235356D01*
X149977482Y-125235358D01*
X149738351Y-125294299D01*
X149511763Y-125390839D01*
X149511758Y-125390841D01*
X149303589Y-125522479D01*
X149303586Y-125522482D01*
X149119230Y-125685806D01*
X149119223Y-125685813D01*
X148963455Y-125876597D01*
X148963451Y-125876603D01*
X148840304Y-126089898D01*
X148752962Y-126320199D01*
X148703696Y-126561522D01*
X148703696Y-126561523D01*
X148693778Y-126807624D01*
X148693778Y-126807626D01*
X148723467Y-127052133D01*
X148789871Y-127281387D01*
X148791992Y-127288710D01*
X148897580Y-127511231D01*
X149037496Y-127713934D01*
X149208115Y-127891568D01*
X149208117Y-127891569D01*
X149208117Y-127891570D01*
X149339385Y-127990210D01*
X149405020Y-128039532D01*
X149623110Y-128153994D01*
X149856736Y-128231991D01*
X149856734Y-128231991D01*
X149978292Y-128251745D01*
X150099849Y-128271500D01*
X150099851Y-128271500D01*
X151482476Y-128271500D01*
X151482478Y-128271500D01*
X151666504Y-128256644D01*
X151666512Y-128256641D01*
X151666517Y-128256641D01*
X151774870Y-128229934D01*
X151905649Y-128197700D01*
X152132242Y-128101158D01*
X152340414Y-127969518D01*
X152524774Y-127806189D01*
X152529300Y-127800646D01*
X152599171Y-127746227D01*
X152683448Y-127727500D01*
X161465740Y-127727500D01*
X161552083Y-127747207D01*
X161609257Y-127788646D01*
X161708115Y-127891568D01*
X161708117Y-127891569D01*
X161708117Y-127891570D01*
X161839385Y-127990210D01*
X161905020Y-128039532D01*
X162123110Y-128153994D01*
X162356736Y-128231991D01*
X162356734Y-128231991D01*
X162478292Y-128251745D01*
X162599849Y-128271500D01*
X162599851Y-128271500D01*
X163982476Y-128271500D01*
X163982478Y-128271500D01*
X164166504Y-128256644D01*
X164166512Y-128256641D01*
X164166517Y-128256641D01*
X164274870Y-128229934D01*
X164405649Y-128197700D01*
X164632242Y-128101158D01*
X164840414Y-127969518D01*
X165024774Y-127806189D01*
X165029300Y-127800646D01*
X165099171Y-127746227D01*
X165183448Y-127727500D01*
X170905358Y-127727500D01*
X170991701Y-127747207D01*
X171024901Y-127767408D01*
X171049020Y-127785532D01*
X171267110Y-127899994D01*
X171500736Y-127977991D01*
X171500734Y-127977991D01*
X171622292Y-127997745D01*
X171743849Y-128017500D01*
X171743851Y-128017500D01*
X173126476Y-128017500D01*
X173126478Y-128017500D01*
X173310504Y-128002644D01*
X173310512Y-128002641D01*
X173310517Y-128002641D01*
X173444905Y-127969517D01*
X173549649Y-127943700D01*
X173776242Y-127847158D01*
X173984414Y-127715518D01*
X174168774Y-127552189D01*
X174173300Y-127546646D01*
X174243171Y-127492227D01*
X174327448Y-127473500D01*
X183109740Y-127473500D01*
X183196083Y-127493207D01*
X183253257Y-127534646D01*
X183352115Y-127637568D01*
X183352117Y-127637569D01*
X183352117Y-127637570D01*
X183471793Y-127727500D01*
X183549020Y-127785532D01*
X183767110Y-127899994D01*
X184000736Y-127977991D01*
X184000734Y-127977991D01*
X184122292Y-127997745D01*
X184243849Y-128017500D01*
X184243851Y-128017500D01*
X185626476Y-128017500D01*
X185626478Y-128017500D01*
X185810504Y-128002644D01*
X185810512Y-128002641D01*
X185810517Y-128002641D01*
X185944905Y-127969517D01*
X186049649Y-127943700D01*
X186276242Y-127847158D01*
X186484414Y-127715518D01*
X186668774Y-127552189D01*
X186673300Y-127546646D01*
X186743171Y-127492227D01*
X186827448Y-127473500D01*
X189471547Y-127473500D01*
X189558911Y-127475714D01*
X189558911Y-127475713D01*
X189558913Y-127475714D01*
X189616718Y-127465352D01*
X189624171Y-127464307D01*
X189682593Y-127458367D01*
X189712409Y-127449011D01*
X189724641Y-127446009D01*
X189755400Y-127440497D01*
X189809921Y-127418718D01*
X189817019Y-127416190D01*
X189873057Y-127398609D01*
X189900375Y-127383445D01*
X189911757Y-127378039D01*
X189940775Y-127366449D01*
X189989811Y-127334130D01*
X189996247Y-127330232D01*
X190047592Y-127301734D01*
X190071292Y-127281386D01*
X190081361Y-127273793D01*
X190107450Y-127256601D01*
X190148972Y-127215077D01*
X190154496Y-127209958D01*
X190199053Y-127171709D01*
X190218182Y-127146994D01*
X190226497Y-127137552D01*
X191693234Y-125670816D01*
X191756562Y-125610619D01*
X191790097Y-125562436D01*
X191794639Y-125556411D01*
X191831751Y-125510899D01*
X191846222Y-125483193D01*
X191852749Y-125472419D01*
X191870597Y-125446780D01*
X191893760Y-125392800D01*
X191896979Y-125386025D01*
X191924174Y-125333965D01*
X191932769Y-125303922D01*
X191936995Y-125292053D01*
X191949318Y-125263340D01*
X191961134Y-125205833D01*
X191962936Y-125198494D01*
X191964726Y-125192234D01*
X191979088Y-125142049D01*
X191981459Y-125110901D01*
X191983211Y-125098408D01*
X191989500Y-125067810D01*
X191989500Y-125009109D01*
X191989787Y-125001551D01*
X191990043Y-124998180D01*
X191994245Y-124943008D01*
X191991951Y-124924995D01*
X191990298Y-124912011D01*
X191989500Y-124899430D01*
X191989500Y-113804453D01*
X191991714Y-113717088D01*
X191991714Y-113717087D01*
X191981351Y-113659276D01*
X191980307Y-113651831D01*
X191974367Y-113593407D01*
X191965012Y-113563593D01*
X191962010Y-113551360D01*
X191956497Y-113520600D01*
X191934713Y-113466067D01*
X191932184Y-113458959D01*
X191914611Y-113402948D01*
X191914611Y-113402947D01*
X191899443Y-113375618D01*
X191894037Y-113364235D01*
X191882449Y-113335225D01*
X191874570Y-113323269D01*
X191850146Y-113286209D01*
X191846228Y-113279742D01*
X191817738Y-113228414D01*
X191817733Y-113228407D01*
X191797375Y-113204693D01*
X191789794Y-113194639D01*
X191772601Y-113168550D01*
X191731095Y-113127044D01*
X191725965Y-113121510D01*
X191687709Y-113076947D01*
X191662997Y-113057818D01*
X191653543Y-113049492D01*
X190667301Y-112063250D01*
X189678835Y-111074784D01*
X189618618Y-111011437D01*
X189597617Y-110996820D01*
X189570430Y-110977897D01*
X189564397Y-110973349D01*
X189526673Y-110942589D01*
X189518898Y-110936249D01*
X189518896Y-110936248D01*
X189518895Y-110936247D01*
X189518894Y-110936246D01*
X189491202Y-110921781D01*
X189480427Y-110915253D01*
X189454780Y-110897403D01*
X189454779Y-110897402D01*
X189454777Y-110897401D01*
X189400841Y-110874255D01*
X189394011Y-110871011D01*
X189341969Y-110843828D01*
X189341968Y-110843827D01*
X189341965Y-110843826D01*
X189311928Y-110835231D01*
X189300054Y-110831003D01*
X189271341Y-110818682D01*
X189213835Y-110806864D01*
X189206490Y-110805061D01*
X189150050Y-110788912D01*
X189150048Y-110788911D01*
X189127198Y-110787171D01*
X189118886Y-110786538D01*
X189106411Y-110784788D01*
X189098840Y-110783232D01*
X189075811Y-110778500D01*
X189075809Y-110778500D01*
X189017108Y-110778500D01*
X189009569Y-110778213D01*
X188967287Y-110774993D01*
X188951012Y-110773754D01*
X188951007Y-110773754D01*
X188945237Y-110774488D01*
X188920005Y-110777702D01*
X188907430Y-110778500D01*
X186822260Y-110778500D01*
X186735917Y-110758793D01*
X186678742Y-110717353D01*
X186579885Y-110614432D01*
X186579882Y-110614429D01*
X186382980Y-110466468D01*
X186164888Y-110352005D01*
X185931262Y-110274008D01*
X185931265Y-110274008D01*
X185741269Y-110243132D01*
X185688151Y-110234500D01*
X184305522Y-110234500D01*
X184244180Y-110239452D01*
X184121492Y-110249356D01*
X184121482Y-110249358D01*
X183882351Y-110308299D01*
X183655763Y-110404839D01*
X183655758Y-110404841D01*
X183447589Y-110536479D01*
X183447586Y-110536482D01*
X183263230Y-110699806D01*
X183263220Y-110699817D01*
X183258700Y-110705354D01*
X183188829Y-110759773D01*
X183104552Y-110778500D01*
X174322260Y-110778500D01*
X174235917Y-110758793D01*
X174178742Y-110717353D01*
X174079885Y-110614432D01*
X174079882Y-110614429D01*
X173882980Y-110466468D01*
X173664888Y-110352005D01*
X173431262Y-110274008D01*
X173431265Y-110274008D01*
X173241269Y-110243132D01*
X173188151Y-110234500D01*
X171805522Y-110234500D01*
X171744180Y-110239452D01*
X171621492Y-110249356D01*
X171621482Y-110249358D01*
X171382351Y-110308299D01*
X171155763Y-110404839D01*
X171155758Y-110404841D01*
X170947589Y-110536479D01*
X170947586Y-110536482D01*
X170763230Y-110699806D01*
X170763220Y-110699817D01*
X170758700Y-110705354D01*
X170688829Y-110759773D01*
X170604552Y-110778500D01*
X165178260Y-110778500D01*
X165091917Y-110758793D01*
X165034742Y-110717353D01*
X164935885Y-110614432D01*
X164935882Y-110614429D01*
X164738980Y-110466468D01*
X164520888Y-110352005D01*
X164287262Y-110274008D01*
X164287265Y-110274008D01*
X164097269Y-110243132D01*
X164044151Y-110234500D01*
X162661522Y-110234500D01*
X162600180Y-110239452D01*
X162477492Y-110249356D01*
X162477482Y-110249358D01*
X162238351Y-110308299D01*
X162011763Y-110404839D01*
X162011758Y-110404841D01*
X161803589Y-110536479D01*
X161803586Y-110536482D01*
X161619230Y-110699806D01*
X161619220Y-110699817D01*
X161614700Y-110705354D01*
X161544829Y-110759773D01*
X161460552Y-110778500D01*
X152678260Y-110778500D01*
X152591917Y-110758793D01*
X152534742Y-110717353D01*
X152435885Y-110614432D01*
X152435882Y-110614429D01*
X152238980Y-110466468D01*
X152020888Y-110352005D01*
X151787262Y-110274008D01*
X151787265Y-110274008D01*
X151597269Y-110243132D01*
X151544151Y-110234500D01*
X150161522Y-110234500D01*
X150100180Y-110239452D01*
X149977492Y-110249356D01*
X149977482Y-110249358D01*
X149738351Y-110308299D01*
X149511763Y-110404839D01*
X149511758Y-110404841D01*
X149303589Y-110536479D01*
X149303586Y-110536482D01*
X149119230Y-110699806D01*
X149119220Y-110699817D01*
X149114700Y-110705354D01*
X149044829Y-110759773D01*
X148960552Y-110778500D01*
X147808979Y-110778500D01*
X147722636Y-110758793D01*
X147668265Y-110720214D01*
X147343786Y-110395735D01*
X147296667Y-110320747D01*
X147285500Y-110255021D01*
X147285500Y-107168978D01*
X147305207Y-107082635D01*
X147343786Y-107028264D01*
X147668264Y-106703786D01*
X147743252Y-106656667D01*
X147808978Y-106645500D01*
X173215547Y-106645500D01*
X173302911Y-106647714D01*
X173302911Y-106647713D01*
X173302913Y-106647714D01*
X173360718Y-106637352D01*
X173368171Y-106636307D01*
X173426593Y-106630367D01*
X173456409Y-106621011D01*
X173468641Y-106618009D01*
X173499400Y-106612497D01*
X173553921Y-106590718D01*
X173561019Y-106588190D01*
X173617057Y-106570609D01*
X173644375Y-106555445D01*
X173655757Y-106550039D01*
X173684775Y-106538449D01*
X173733811Y-106506130D01*
X173740247Y-106502232D01*
X173791592Y-106473734D01*
X173815292Y-106453386D01*
X173825361Y-106445793D01*
X173851450Y-106428601D01*
X173892972Y-106387077D01*
X173898496Y-106381958D01*
X173943053Y-106343709D01*
X173962182Y-106318994D01*
X173970497Y-106309552D01*
X177230234Y-103049816D01*
X177293562Y-102989619D01*
X177327109Y-102941418D01*
X177331635Y-102935415D01*
X177368751Y-102889898D01*
X177383227Y-102862184D01*
X177389737Y-102851438D01*
X177407597Y-102825780D01*
X177430756Y-102771810D01*
X177433985Y-102765013D01*
X177461174Y-102712965D01*
X177469769Y-102682922D01*
X177473995Y-102671053D01*
X177486318Y-102642340D01*
X177498134Y-102584833D01*
X177499936Y-102577494D01*
X177501726Y-102571234D01*
X177516088Y-102521049D01*
X177518459Y-102489901D01*
X177520211Y-102477408D01*
X177526500Y-102446810D01*
X177526500Y-102388109D01*
X177526787Y-102380551D01*
X177527043Y-102377180D01*
X177531245Y-102322008D01*
X177528951Y-102303995D01*
X177527298Y-102291011D01*
X177526500Y-102278430D01*
X177526500Y-100213107D01*
X177546207Y-100126764D01*
X177579091Y-100078328D01*
X177596157Y-100059788D01*
X177693571Y-99953969D01*
X177825049Y-99752728D01*
X177921610Y-99532591D01*
X177980620Y-99299563D01*
X178000471Y-99060000D01*
X177980620Y-98820437D01*
X177921610Y-98587409D01*
X177825051Y-98367276D01*
X177825050Y-98367273D01*
X177803136Y-98333731D01*
X177693571Y-98166031D01*
X177579090Y-98041671D01*
X177535111Y-97964800D01*
X177526500Y-97906893D01*
X177526500Y-86360004D01*
X178972830Y-86360004D01*
X178991474Y-86585021D01*
X179046907Y-86803921D01*
X179137607Y-87010697D01*
X179137608Y-87010699D01*
X179261112Y-87199735D01*
X179347761Y-87293860D01*
X179391740Y-87370732D01*
X179398011Y-87459073D01*
X179365331Y-87541386D01*
X179300173Y-87601368D01*
X179277512Y-87612488D01*
X179275165Y-87613460D01*
X179275156Y-87613464D01*
X179149718Y-87709718D01*
X179053464Y-87835156D01*
X179053463Y-87835159D01*
X178992957Y-87981235D01*
X178992956Y-87981237D01*
X178977500Y-88098641D01*
X178977500Y-89701357D01*
X178992956Y-89818765D01*
X179053463Y-89964840D01*
X179053464Y-89964843D01*
X179104972Y-90031968D01*
X179149718Y-90090282D01*
X179204209Y-90132094D01*
X179275156Y-90186535D01*
X179275159Y-90186536D01*
X179421238Y-90247044D01*
X179538639Y-90262500D01*
X181141360Y-90262499D01*
X181258762Y-90247044D01*
X181258764Y-90247043D01*
X181258765Y-90247043D01*
X181258765Y-90247042D01*
X181404841Y-90186536D01*
X181404841Y-90186535D01*
X181404843Y-90186535D01*
X181433976Y-90164179D01*
X181530282Y-90090282D01*
X181604179Y-89993976D01*
X181626535Y-89964843D01*
X181626536Y-89964840D01*
X181650966Y-89905861D01*
X181687044Y-89818762D01*
X181702500Y-89701361D01*
X181702499Y-88098640D01*
X181687044Y-87981238D01*
X181687043Y-87981235D01*
X181687043Y-87981234D01*
X181626536Y-87835159D01*
X181626535Y-87835156D01*
X181565374Y-87755451D01*
X181530282Y-87709718D01*
X181488468Y-87677633D01*
X181404843Y-87613464D01*
X181404838Y-87613462D01*
X181402491Y-87612490D01*
X181399594Y-87610434D01*
X181393548Y-87606944D01*
X181393875Y-87606376D01*
X181330263Y-87561241D01*
X181287424Y-87483728D01*
X181282459Y-87395303D01*
X181316351Y-87313482D01*
X181332229Y-87293870D01*
X181418889Y-87199733D01*
X181542390Y-87010701D01*
X181633093Y-86803919D01*
X181688524Y-86585029D01*
X181707170Y-86360000D01*
X181688524Y-86134971D01*
X181633093Y-85916081D01*
X181633092Y-85916078D01*
X181542392Y-85709302D01*
X181542391Y-85709300D01*
X181418887Y-85520264D01*
X181265958Y-85354139D01*
X181265957Y-85354138D01*
X181128355Y-85247039D01*
X181072323Y-85178455D01*
X181051597Y-85092351D01*
X181070283Y-85005781D01*
X181124679Y-84935892D01*
X181128355Y-84932961D01*
X181265959Y-84825860D01*
X181418889Y-84659733D01*
X181542390Y-84470701D01*
X181633093Y-84263919D01*
X181688524Y-84045029D01*
X181707170Y-83820000D01*
X181688524Y-83594971D01*
X181633093Y-83376081D01*
X181633092Y-83376078D01*
X181542392Y-83169302D01*
X181542391Y-83169300D01*
X181418887Y-82980264D01*
X181265958Y-82814139D01*
X181265957Y-82814138D01*
X181128355Y-82707039D01*
X181072323Y-82638455D01*
X181051597Y-82552351D01*
X181070283Y-82465781D01*
X181124679Y-82395892D01*
X181128355Y-82392961D01*
X181265959Y-82285860D01*
X181418889Y-82119733D01*
X181542390Y-81930701D01*
X181633093Y-81723919D01*
X181688524Y-81505029D01*
X181707170Y-81280000D01*
X181688524Y-81054971D01*
X181633093Y-80836081D01*
X181633092Y-80836078D01*
X181542392Y-80629302D01*
X181542391Y-80629300D01*
X181418887Y-80440264D01*
X181265958Y-80274139D01*
X181265957Y-80274138D01*
X181128355Y-80167039D01*
X181072323Y-80098455D01*
X181051597Y-80012351D01*
X181070283Y-79925781D01*
X181124679Y-79855892D01*
X181128355Y-79852961D01*
X181265959Y-79745860D01*
X181418889Y-79579733D01*
X181542390Y-79390701D01*
X181633093Y-79183919D01*
X181688524Y-78965029D01*
X181707170Y-78740000D01*
X181707170Y-78739995D01*
X181688525Y-78514978D01*
X181688524Y-78514975D01*
X181688524Y-78514971D01*
X181633093Y-78296081D01*
X181633092Y-78296078D01*
X181542392Y-78089302D01*
X181542391Y-78089300D01*
X181418887Y-77900264D01*
X181265958Y-77734139D01*
X181265957Y-77734138D01*
X181128355Y-77627039D01*
X181072323Y-77558455D01*
X181051597Y-77472351D01*
X181070283Y-77385781D01*
X181124679Y-77315892D01*
X181128355Y-77312961D01*
X181144048Y-77300747D01*
X181265959Y-77205860D01*
X181418889Y-77039733D01*
X181542390Y-76850701D01*
X181633093Y-76643919D01*
X181688524Y-76425029D01*
X181707170Y-76200000D01*
X181688524Y-75974971D01*
X181633093Y-75756081D01*
X181633092Y-75756078D01*
X181542392Y-75549302D01*
X181542391Y-75549300D01*
X181418887Y-75360264D01*
X181265958Y-75194139D01*
X181265957Y-75194138D01*
X181128355Y-75087039D01*
X181072323Y-75018455D01*
X181051597Y-74932351D01*
X181070283Y-74845781D01*
X181124679Y-74775892D01*
X181128355Y-74772961D01*
X181265959Y-74665860D01*
X181418889Y-74499733D01*
X181542390Y-74310701D01*
X181633093Y-74103919D01*
X181688524Y-73885029D01*
X181707170Y-73660000D01*
X181688524Y-73434971D01*
X181633093Y-73216081D01*
X181633092Y-73216078D01*
X181542392Y-73009302D01*
X181542391Y-73009300D01*
X181418887Y-72820264D01*
X181265958Y-72654139D01*
X181265957Y-72654138D01*
X181128355Y-72547039D01*
X181072323Y-72478455D01*
X181051597Y-72392351D01*
X181070283Y-72305781D01*
X181124679Y-72235892D01*
X181128355Y-72232961D01*
X181265959Y-72125860D01*
X181418889Y-71959733D01*
X181542390Y-71770701D01*
X181633093Y-71563919D01*
X181688524Y-71345029D01*
X181707170Y-71120000D01*
X181688524Y-70894971D01*
X181633093Y-70676081D01*
X181633092Y-70676078D01*
X181542392Y-70469302D01*
X181542391Y-70469300D01*
X181418887Y-70280264D01*
X181265958Y-70114139D01*
X181265957Y-70114138D01*
X181128355Y-70007039D01*
X181072323Y-69938455D01*
X181051597Y-69852351D01*
X181070283Y-69765781D01*
X181124679Y-69695892D01*
X181128355Y-69692961D01*
X181265959Y-69585860D01*
X181418889Y-69419733D01*
X181542390Y-69230701D01*
X181633093Y-69023919D01*
X181688524Y-68805029D01*
X181707170Y-68580000D01*
X181688524Y-68354971D01*
X181633093Y-68136081D01*
X181633092Y-68136078D01*
X181542392Y-67929302D01*
X181542391Y-67929300D01*
X181418887Y-67740264D01*
X181265958Y-67574139D01*
X181265957Y-67574138D01*
X181128355Y-67467039D01*
X181072323Y-67398455D01*
X181051597Y-67312351D01*
X181070283Y-67225781D01*
X181124679Y-67155892D01*
X181128355Y-67152961D01*
X181265959Y-67045860D01*
X181418889Y-66879733D01*
X181542390Y-66690701D01*
X181633093Y-66483919D01*
X181688524Y-66265029D01*
X181707170Y-66040000D01*
X181688524Y-65814971D01*
X181633093Y-65596081D01*
X181633092Y-65596078D01*
X181542392Y-65389302D01*
X181542391Y-65389300D01*
X181418887Y-65200264D01*
X181265958Y-65034139D01*
X181265957Y-65034138D01*
X181128355Y-64927039D01*
X181072323Y-64858455D01*
X181051597Y-64772351D01*
X181070283Y-64685781D01*
X181124679Y-64615892D01*
X181128355Y-64612961D01*
X181265959Y-64505860D01*
X181418889Y-64339733D01*
X181542390Y-64150701D01*
X181633093Y-63943919D01*
X181688524Y-63725029D01*
X181707170Y-63500000D01*
X181688524Y-63274971D01*
X181633093Y-63056081D01*
X181633092Y-63056078D01*
X181542392Y-62849302D01*
X181542391Y-62849300D01*
X181418887Y-62660264D01*
X181265958Y-62494139D01*
X181265957Y-62494138D01*
X181128355Y-62387039D01*
X181072323Y-62318455D01*
X181051597Y-62232351D01*
X181070283Y-62145781D01*
X181124679Y-62075892D01*
X181128355Y-62072961D01*
X181265959Y-61965860D01*
X181418889Y-61799733D01*
X181542390Y-61610701D01*
X181633093Y-61403919D01*
X181688524Y-61185029D01*
X181707170Y-60960000D01*
X181700007Y-60873550D01*
X181688525Y-60734978D01*
X181688524Y-60734975D01*
X181688524Y-60734971D01*
X181633093Y-60516081D01*
X181633092Y-60516078D01*
X181542392Y-60309302D01*
X181542391Y-60309300D01*
X181418887Y-60120264D01*
X181265958Y-59954139D01*
X181265957Y-59954138D01*
X181128355Y-59847039D01*
X181072323Y-59778455D01*
X181051597Y-59692351D01*
X181070283Y-59605781D01*
X181124679Y-59535892D01*
X181128355Y-59532961D01*
X181265959Y-59425860D01*
X181418889Y-59259733D01*
X181542390Y-59070701D01*
X181633093Y-58863919D01*
X181688524Y-58645029D01*
X181707170Y-58420000D01*
X181707170Y-58419995D01*
X181688525Y-58194978D01*
X181688524Y-58194975D01*
X181688524Y-58194971D01*
X181633093Y-57976081D01*
X181633092Y-57976078D01*
X181542392Y-57769302D01*
X181542391Y-57769300D01*
X181418887Y-57580264D01*
X181265958Y-57414139D01*
X181265957Y-57414138D01*
X181087771Y-57275451D01*
X181087768Y-57275449D01*
X180889190Y-57167983D01*
X180777948Y-57129794D01*
X180675620Y-57094665D01*
X180619940Y-57085373D01*
X180452903Y-57057500D01*
X180452900Y-57057500D01*
X180227100Y-57057500D01*
X180227096Y-57057500D01*
X180004380Y-57094665D01*
X179790809Y-57167983D01*
X179592231Y-57275449D01*
X179592228Y-57275451D01*
X179414042Y-57414138D01*
X179414041Y-57414139D01*
X179261112Y-57580264D01*
X179137608Y-57769300D01*
X179137607Y-57769302D01*
X179046907Y-57976078D01*
X178991474Y-58194978D01*
X178972830Y-58419995D01*
X178972830Y-58420004D01*
X178991474Y-58645021D01*
X179046907Y-58863921D01*
X179137607Y-59070697D01*
X179137608Y-59070699D01*
X179261112Y-59259735D01*
X179414041Y-59425860D01*
X179414042Y-59425861D01*
X179551644Y-59532961D01*
X179607677Y-59601546D01*
X179628402Y-59687650D01*
X179609716Y-59774219D01*
X179555319Y-59844108D01*
X179551644Y-59847039D01*
X179414042Y-59954138D01*
X179414041Y-59954139D01*
X179261112Y-60120264D01*
X179137608Y-60309300D01*
X179137607Y-60309302D01*
X179046907Y-60516078D01*
X178991474Y-60734978D01*
X178972830Y-60959995D01*
X178972830Y-60960004D01*
X178991474Y-61185021D01*
X179046907Y-61403921D01*
X179137607Y-61610697D01*
X179137608Y-61610699D01*
X179261112Y-61799735D01*
X179414041Y-61965860D01*
X179414042Y-61965861D01*
X179551644Y-62072961D01*
X179607677Y-62141546D01*
X179628402Y-62227650D01*
X179609716Y-62314219D01*
X179555319Y-62384108D01*
X179551644Y-62387039D01*
X179414042Y-62494138D01*
X179414041Y-62494139D01*
X179261112Y-62660264D01*
X179137608Y-62849300D01*
X179137607Y-62849302D01*
X179046907Y-63056078D01*
X178991474Y-63274978D01*
X178972830Y-63499995D01*
X178972830Y-63500004D01*
X178991474Y-63725021D01*
X179046907Y-63943921D01*
X179137607Y-64150697D01*
X179137608Y-64150699D01*
X179261112Y-64339735D01*
X179414041Y-64505860D01*
X179414042Y-64505861D01*
X179551644Y-64612961D01*
X179607677Y-64681546D01*
X179628402Y-64767650D01*
X179609716Y-64854219D01*
X179555319Y-64924108D01*
X179551644Y-64927039D01*
X179414042Y-65034138D01*
X179414041Y-65034139D01*
X179261112Y-65200264D01*
X179137608Y-65389300D01*
X179137607Y-65389302D01*
X179046907Y-65596078D01*
X178991474Y-65814978D01*
X178972830Y-66039995D01*
X178972830Y-66040004D01*
X178991474Y-66265021D01*
X179046907Y-66483921D01*
X179137607Y-66690697D01*
X179137608Y-66690699D01*
X179261112Y-66879735D01*
X179414041Y-67045860D01*
X179414042Y-67045861D01*
X179551644Y-67152961D01*
X179607677Y-67221546D01*
X179628402Y-67307650D01*
X179609716Y-67394219D01*
X179555319Y-67464108D01*
X179551644Y-67467039D01*
X179414042Y-67574138D01*
X179414041Y-67574139D01*
X179261112Y-67740264D01*
X179137608Y-67929300D01*
X179137607Y-67929302D01*
X179046907Y-68136078D01*
X178991474Y-68354978D01*
X178972830Y-68579995D01*
X178972830Y-68580004D01*
X178991474Y-68805021D01*
X179046907Y-69023921D01*
X179137607Y-69230697D01*
X179137608Y-69230699D01*
X179261112Y-69419735D01*
X179414041Y-69585860D01*
X179414042Y-69585861D01*
X179551644Y-69692961D01*
X179607677Y-69761546D01*
X179628402Y-69847650D01*
X179609716Y-69934219D01*
X179555319Y-70004108D01*
X179551644Y-70007039D01*
X179414042Y-70114138D01*
X179414041Y-70114139D01*
X179261112Y-70280264D01*
X179137608Y-70469300D01*
X179137607Y-70469302D01*
X179046907Y-70676078D01*
X178991474Y-70894978D01*
X178972830Y-71119995D01*
X178972830Y-71120004D01*
X178991474Y-71345021D01*
X179046907Y-71563921D01*
X179137607Y-71770697D01*
X179137608Y-71770699D01*
X179261112Y-71959735D01*
X179414041Y-72125860D01*
X179414042Y-72125861D01*
X179551644Y-72232961D01*
X179607677Y-72301546D01*
X179628402Y-72387650D01*
X179609716Y-72474219D01*
X179555319Y-72544108D01*
X179551644Y-72547039D01*
X179414042Y-72654138D01*
X179414041Y-72654139D01*
X179261112Y-72820264D01*
X179137608Y-73009300D01*
X179137607Y-73009302D01*
X179046907Y-73216078D01*
X178991474Y-73434978D01*
X178972830Y-73659995D01*
X178972830Y-73660004D01*
X178991474Y-73885021D01*
X179046907Y-74103921D01*
X179137607Y-74310697D01*
X179137608Y-74310699D01*
X179261112Y-74499735D01*
X179414041Y-74665860D01*
X179414042Y-74665861D01*
X179551644Y-74772961D01*
X179607677Y-74841546D01*
X179628402Y-74927650D01*
X179609716Y-75014219D01*
X179555319Y-75084108D01*
X179551644Y-75087039D01*
X179414042Y-75194138D01*
X179414041Y-75194139D01*
X179261112Y-75360264D01*
X179137608Y-75549300D01*
X179137607Y-75549302D01*
X179046907Y-75756078D01*
X178991474Y-75974978D01*
X178972830Y-76199995D01*
X178972830Y-76200004D01*
X178991474Y-76425021D01*
X179046907Y-76643921D01*
X179137607Y-76850697D01*
X179137608Y-76850699D01*
X179261112Y-77039735D01*
X179414041Y-77205860D01*
X179414042Y-77205861D01*
X179551644Y-77312961D01*
X179607677Y-77381546D01*
X179628402Y-77467650D01*
X179609716Y-77554219D01*
X179555319Y-77624108D01*
X179551644Y-77627039D01*
X179414042Y-77734138D01*
X179414041Y-77734139D01*
X179261112Y-77900264D01*
X179137608Y-78089300D01*
X179137607Y-78089302D01*
X179046907Y-78296078D01*
X178991474Y-78514978D01*
X178972830Y-78739995D01*
X178972830Y-78740004D01*
X178991474Y-78965021D01*
X179046907Y-79183921D01*
X179137607Y-79390697D01*
X179137608Y-79390699D01*
X179261112Y-79579735D01*
X179414041Y-79745860D01*
X179414042Y-79745861D01*
X179551644Y-79852961D01*
X179607677Y-79921546D01*
X179628402Y-80007650D01*
X179609716Y-80094219D01*
X179555319Y-80164108D01*
X179551644Y-80167039D01*
X179414042Y-80274138D01*
X179414041Y-80274139D01*
X179261112Y-80440264D01*
X179137608Y-80629300D01*
X179137607Y-80629302D01*
X179046907Y-80836078D01*
X178991474Y-81054978D01*
X178972830Y-81279995D01*
X178972830Y-81280004D01*
X178991474Y-81505021D01*
X179046907Y-81723921D01*
X179137607Y-81930697D01*
X179137608Y-81930699D01*
X179261112Y-82119735D01*
X179414041Y-82285860D01*
X179414042Y-82285861D01*
X179551644Y-82392961D01*
X179607677Y-82461546D01*
X179628402Y-82547650D01*
X179609716Y-82634219D01*
X179555319Y-82704108D01*
X179551644Y-82707039D01*
X179414042Y-82814138D01*
X179414041Y-82814139D01*
X179261112Y-82980264D01*
X179137608Y-83169300D01*
X179137607Y-83169302D01*
X179046907Y-83376078D01*
X178991474Y-83594978D01*
X178972830Y-83819995D01*
X178972830Y-83820004D01*
X178991474Y-84045021D01*
X179046907Y-84263921D01*
X179137607Y-84470697D01*
X179137608Y-84470699D01*
X179261112Y-84659735D01*
X179414041Y-84825860D01*
X179414042Y-84825861D01*
X179551644Y-84932961D01*
X179607677Y-85001546D01*
X179628402Y-85087650D01*
X179609716Y-85174219D01*
X179555319Y-85244108D01*
X179551644Y-85247039D01*
X179414042Y-85354138D01*
X179414041Y-85354139D01*
X179261112Y-85520264D01*
X179137608Y-85709300D01*
X179137607Y-85709302D01*
X179046907Y-85916078D01*
X178991474Y-86134978D01*
X178972830Y-86359995D01*
X178972830Y-86360004D01*
X177526500Y-86360004D01*
X177526500Y-60479430D01*
X177528713Y-60392090D01*
X177528712Y-60392089D01*
X177528713Y-60392087D01*
X177518349Y-60334268D01*
X177517309Y-60326851D01*
X177511367Y-60268407D01*
X177502012Y-60238594D01*
X177499007Y-60226347D01*
X177493497Y-60195601D01*
X177471719Y-60141081D01*
X177469182Y-60133954D01*
X177464887Y-60120264D01*
X177451609Y-60077943D01*
X177436446Y-60050626D01*
X177431039Y-60039240D01*
X177419451Y-60010229D01*
X177419450Y-60010227D01*
X177419449Y-60010224D01*
X177387137Y-59961197D01*
X177383231Y-59954750D01*
X177354734Y-59903408D01*
X177354733Y-59903406D01*
X177354732Y-59903405D01*
X177354731Y-59903404D01*
X177347109Y-59894526D01*
X177334376Y-59879695D01*
X177326790Y-59869632D01*
X177311900Y-59847039D01*
X177309601Y-59843550D01*
X177268095Y-59802044D01*
X177262965Y-59796510D01*
X177224709Y-59751947D01*
X177199997Y-59732818D01*
X177190543Y-59724492D01*
X175688801Y-58222751D01*
X174184835Y-56718784D01*
X174124618Y-56655437D01*
X174086005Y-56628562D01*
X174076430Y-56621897D01*
X174070397Y-56617349D01*
X174032451Y-56586408D01*
X174024898Y-56580249D01*
X174024896Y-56580248D01*
X174024895Y-56580247D01*
X174024894Y-56580246D01*
X173997202Y-56565781D01*
X173986427Y-56559253D01*
X173960780Y-56541403D01*
X173960779Y-56541402D01*
X173960777Y-56541401D01*
X173906841Y-56518255D01*
X173900011Y-56515011D01*
X173847969Y-56487828D01*
X173847968Y-56487827D01*
X173847965Y-56487826D01*
X173822222Y-56480459D01*
X173817928Y-56479231D01*
X173806054Y-56475003D01*
X173777341Y-56462682D01*
X173719835Y-56450864D01*
X173712490Y-56449061D01*
X173656050Y-56432912D01*
X173656048Y-56432911D01*
X173633198Y-56431171D01*
X173624886Y-56430538D01*
X173612411Y-56428788D01*
X173604840Y-56427232D01*
X173581811Y-56422500D01*
X173581809Y-56422500D01*
X173523108Y-56422500D01*
X173515569Y-56422213D01*
X173473287Y-56418993D01*
X173457012Y-56417754D01*
X173457007Y-56417754D01*
X173451237Y-56418488D01*
X173426005Y-56421702D01*
X173413430Y-56422500D01*
X169906979Y-56422500D01*
X169820636Y-56402793D01*
X169766265Y-56364214D01*
X169422764Y-56020713D01*
X169375645Y-55945725D01*
X169365729Y-55857718D01*
X169394980Y-55774125D01*
X169422764Y-55739285D01*
X169585215Y-55576834D01*
X169648562Y-55516619D01*
X169682108Y-55468420D01*
X169686640Y-55462408D01*
X169723751Y-55416898D01*
X169738221Y-55389193D01*
X169744741Y-55378431D01*
X169762597Y-55352780D01*
X169785758Y-55298806D01*
X169788981Y-55292019D01*
X169816174Y-55239964D01*
X169824771Y-55209915D01*
X169828988Y-55198069D01*
X169841318Y-55169340D01*
X169853137Y-55111827D01*
X169854934Y-55104499D01*
X169871088Y-55048049D01*
X169873461Y-55016881D01*
X169875209Y-55004415D01*
X169881500Y-54973809D01*
X169881500Y-54915107D01*
X169881786Y-54907571D01*
X169886246Y-54849008D01*
X169882297Y-54818007D01*
X169881500Y-54805429D01*
X169881500Y-54493107D01*
X169901207Y-54406764D01*
X169934091Y-54358328D01*
X169985900Y-54302048D01*
X170048571Y-54233969D01*
X170180049Y-54032728D01*
X170276610Y-53812591D01*
X170335620Y-53579563D01*
X170355471Y-53340004D01*
X178972830Y-53340004D01*
X178991474Y-53565021D01*
X179046907Y-53783921D01*
X179137607Y-53990697D01*
X179137608Y-53990699D01*
X179261112Y-54179735D01*
X179414041Y-54345860D01*
X179414042Y-54345861D01*
X179457629Y-54379786D01*
X179570017Y-54467261D01*
X179592228Y-54484548D01*
X179592231Y-54484550D01*
X179790809Y-54592016D01*
X179790812Y-54592017D01*
X179790814Y-54592018D01*
X180004380Y-54665335D01*
X180227100Y-54702500D01*
X180227102Y-54702500D01*
X180452898Y-54702500D01*
X180452900Y-54702500D01*
X180675620Y-54665335D01*
X180889186Y-54592018D01*
X181087771Y-54484549D01*
X181243345Y-54363460D01*
X181323586Y-54325980D01*
X181365573Y-54321500D01*
X184931021Y-54321500D01*
X185017364Y-54341207D01*
X185071735Y-54379786D01*
X188190214Y-57498265D01*
X188237333Y-57573253D01*
X188248500Y-57638979D01*
X188248500Y-97481524D01*
X188228793Y-97567867D01*
X188173574Y-97637108D01*
X188125655Y-97665376D01*
X188077157Y-97685464D01*
X188077156Y-97685464D01*
X187951718Y-97781718D01*
X187855464Y-97907156D01*
X187855463Y-97907159D01*
X187794957Y-98053235D01*
X187794956Y-98053238D01*
X187780108Y-98166026D01*
X187779500Y-98170641D01*
X187779500Y-99949357D01*
X187794956Y-100066765D01*
X187855463Y-100212840D01*
X187855464Y-100212843D01*
X187905824Y-100278472D01*
X187951718Y-100338282D01*
X188006209Y-100380094D01*
X188077156Y-100434535D01*
X188077159Y-100434536D01*
X188223238Y-100495044D01*
X188340639Y-100510500D01*
X190119360Y-100510499D01*
X190236762Y-100495044D01*
X190236764Y-100495043D01*
X190236765Y-100495043D01*
X190236765Y-100495042D01*
X190382841Y-100434536D01*
X190382841Y-100434535D01*
X190382843Y-100434535D01*
X190411976Y-100412179D01*
X190508282Y-100338282D01*
X190604332Y-100213107D01*
X190604535Y-100212843D01*
X190604536Y-100212840D01*
X190665044Y-100066762D01*
X190680500Y-99949361D01*
X190680499Y-98170640D01*
X190665044Y-98053238D01*
X190665043Y-98053235D01*
X190665043Y-98053234D01*
X190604536Y-97907159D01*
X190604535Y-97907156D01*
X190550094Y-97836209D01*
X190508282Y-97781718D01*
X190437126Y-97727118D01*
X190382842Y-97685464D01*
X190334345Y-97665376D01*
X190262116Y-97614126D01*
X190219277Y-97536613D01*
X190211500Y-97481524D01*
X190211500Y-57162453D01*
X190213714Y-57075087D01*
X190203353Y-57017284D01*
X190202306Y-57009825D01*
X190196367Y-56951407D01*
X190187015Y-56921599D01*
X190184010Y-56909357D01*
X190178497Y-56878601D01*
X190171985Y-56862298D01*
X190156717Y-56824075D01*
X190154191Y-56816981D01*
X190138585Y-56767241D01*
X190136610Y-56760945D01*
X190136609Y-56760943D01*
X190121445Y-56733623D01*
X190116036Y-56722233D01*
X190104449Y-56693225D01*
X190072138Y-56644199D01*
X190068230Y-56637748D01*
X190059435Y-56621903D01*
X190039734Y-56586408D01*
X190019370Y-56562687D01*
X190011793Y-56552637D01*
X189994601Y-56526551D01*
X189953101Y-56485051D01*
X189947959Y-56479503D01*
X189909708Y-56434945D01*
X189884997Y-56415818D01*
X189875534Y-56407484D01*
X186122836Y-52654785D01*
X186062618Y-52591437D01*
X186041617Y-52576820D01*
X186014430Y-52557897D01*
X186008397Y-52553349D01*
X185962898Y-52516249D01*
X185962896Y-52516248D01*
X185962895Y-52516247D01*
X185962894Y-52516246D01*
X185935202Y-52501781D01*
X185924427Y-52495253D01*
X185898780Y-52477403D01*
X185898779Y-52477402D01*
X185898777Y-52477401D01*
X185844841Y-52454255D01*
X185838011Y-52451011D01*
X185785969Y-52423828D01*
X185785968Y-52423827D01*
X185785965Y-52423826D01*
X185755928Y-52415231D01*
X185744054Y-52411003D01*
X185715341Y-52398682D01*
X185657835Y-52386864D01*
X185650490Y-52385061D01*
X185594050Y-52368912D01*
X185594048Y-52368911D01*
X185571198Y-52367171D01*
X185562886Y-52366538D01*
X185550411Y-52364788D01*
X185542840Y-52363232D01*
X185519811Y-52358500D01*
X185519809Y-52358500D01*
X185461108Y-52358500D01*
X185453569Y-52358213D01*
X185411287Y-52354993D01*
X185395012Y-52353754D01*
X185395007Y-52353754D01*
X185389237Y-52354488D01*
X185364005Y-52357702D01*
X185351430Y-52358500D01*
X181365573Y-52358500D01*
X181279230Y-52338793D01*
X181243345Y-52316539D01*
X181243071Y-52316326D01*
X181087771Y-52195451D01*
X181087768Y-52195449D01*
X180889190Y-52087983D01*
X180777948Y-52049794D01*
X180675620Y-52014665D01*
X180619940Y-52005373D01*
X180452903Y-51977500D01*
X180452900Y-51977500D01*
X180227100Y-51977500D01*
X180227096Y-51977500D01*
X180004380Y-52014665D01*
X179790809Y-52087983D01*
X179592231Y-52195449D01*
X179592228Y-52195451D01*
X179414042Y-52334138D01*
X179414041Y-52334139D01*
X179261112Y-52500264D01*
X179137608Y-52689300D01*
X179137607Y-52689302D01*
X179046907Y-52896078D01*
X178991474Y-53114978D01*
X178972830Y-53339995D01*
X178972830Y-53340004D01*
X170355471Y-53340004D01*
X170355471Y-53340000D01*
X170349416Y-53266933D01*
X170335621Y-53100449D01*
X170335620Y-53100439D01*
X170335620Y-53100437D01*
X170276610Y-52867409D01*
X170180051Y-52647276D01*
X170180050Y-52647273D01*
X170158136Y-52613731D01*
X170048571Y-52446031D01*
X169885764Y-52269175D01*
X169885763Y-52269174D01*
X169885757Y-52269168D01*
X169696067Y-52121528D01*
X169696064Y-52121526D01*
X169484660Y-52007119D01*
X169396986Y-51977021D01*
X169257297Y-51929066D01*
X169162455Y-51913239D01*
X169020195Y-51889500D01*
X169020192Y-51889500D01*
X168779808Y-51889500D01*
X168779804Y-51889500D01*
X168598201Y-51919805D01*
X168542703Y-51929066D01*
X168469053Y-51954349D01*
X168315339Y-52007119D01*
X168103935Y-52121526D01*
X168103932Y-52121528D01*
X167914242Y-52269168D01*
X167914241Y-52269169D01*
X167776409Y-52418895D01*
X167703431Y-52469071D01*
X167615909Y-52482616D01*
X167531179Y-52456844D01*
X167483591Y-52418894D01*
X167394091Y-52321671D01*
X167350112Y-52244799D01*
X167341500Y-52186892D01*
X167341500Y-52072453D01*
X167343714Y-51985087D01*
X167342268Y-51977021D01*
X167333353Y-51927284D01*
X167332306Y-51919825D01*
X167326367Y-51861407D01*
X167317015Y-51831599D01*
X167314010Y-51819357D01*
X167308498Y-51788609D01*
X167308497Y-51788601D01*
X167294131Y-51752638D01*
X167286718Y-51734077D01*
X167284181Y-51726951D01*
X167281799Y-51719359D01*
X167266609Y-51670943D01*
X167251446Y-51643625D01*
X167246039Y-51632240D01*
X167234450Y-51603225D01*
X167202142Y-51554204D01*
X167198235Y-51547758D01*
X167169734Y-51496408D01*
X167149380Y-51472698D01*
X167141791Y-51462632D01*
X167124600Y-51436550D01*
X167083101Y-51395051D01*
X167077959Y-51389503D01*
X167039708Y-51344945D01*
X167014997Y-51325818D01*
X167005534Y-51317484D01*
X163262836Y-47574785D01*
X163202618Y-47511437D01*
X163154867Y-47478202D01*
X163154430Y-47477897D01*
X163148397Y-47473349D01*
X163102898Y-47436249D01*
X163102896Y-47436248D01*
X163102895Y-47436247D01*
X163102894Y-47436246D01*
X163075202Y-47421781D01*
X163064427Y-47415253D01*
X163038780Y-47397403D01*
X163038779Y-47397402D01*
X163038777Y-47397401D01*
X162984841Y-47374255D01*
X162978011Y-47371011D01*
X162925969Y-47343828D01*
X162925968Y-47343827D01*
X162925965Y-47343826D01*
X162895928Y-47335231D01*
X162884054Y-47331003D01*
X162855341Y-47318682D01*
X162797835Y-47306864D01*
X162790490Y-47305061D01*
X162734050Y-47288912D01*
X162734048Y-47288911D01*
X162711198Y-47287171D01*
X162702886Y-47286538D01*
X162690411Y-47284788D01*
X162682840Y-47283232D01*
X162659811Y-47278500D01*
X162659809Y-47278500D01*
X162601108Y-47278500D01*
X162593569Y-47278213D01*
X162551287Y-47274993D01*
X162535012Y-47273754D01*
X162535007Y-47273754D01*
X162529237Y-47274488D01*
X162504005Y-47277702D01*
X162491430Y-47278500D01*
X152666453Y-47278500D01*
X152579087Y-47276285D01*
X152579086Y-47276285D01*
X152521295Y-47286643D01*
X152513808Y-47287693D01*
X152455405Y-47293633D01*
X152455401Y-47293634D01*
X152425594Y-47302985D01*
X152413357Y-47305989D01*
X152382605Y-47311501D01*
X152382594Y-47311504D01*
X152328085Y-47333277D01*
X152320964Y-47335813D01*
X152264947Y-47353388D01*
X152264938Y-47353393D01*
X152237618Y-47368556D01*
X152226233Y-47373963D01*
X152197223Y-47385551D01*
X152148203Y-47417857D01*
X152141739Y-47421774D01*
X152090405Y-47450267D01*
X152066699Y-47470617D01*
X152056640Y-47478202D01*
X152030549Y-47495399D01*
X151989033Y-47536913D01*
X151983489Y-47542051D01*
X151938949Y-47580287D01*
X151919818Y-47605002D01*
X151911487Y-47614460D01*
X151249147Y-48276801D01*
X148920784Y-50605165D01*
X148891961Y-50632563D01*
X148857442Y-50665376D01*
X148857436Y-50665383D01*
X148823904Y-50713559D01*
X148819353Y-50719594D01*
X148782251Y-50765097D01*
X148782245Y-50765107D01*
X148767780Y-50792797D01*
X148761253Y-50803570D01*
X148743405Y-50829215D01*
X148720247Y-50883174D01*
X148717005Y-50890002D01*
X148689825Y-50942035D01*
X148681230Y-50972073D01*
X148677003Y-50983944D01*
X148664682Y-51012658D01*
X148652863Y-51070170D01*
X148651060Y-51077514D01*
X148634912Y-51133947D01*
X148634911Y-51133956D01*
X148632537Y-51165111D01*
X148630787Y-51177588D01*
X148624500Y-51208188D01*
X148624500Y-51266891D01*
X148624213Y-51274429D01*
X148619754Y-51332992D01*
X148622181Y-51352051D01*
X148623702Y-51363986D01*
X148624500Y-51376570D01*
X148624500Y-95745546D01*
X148622285Y-95832912D01*
X148632643Y-95890703D01*
X148633693Y-95898191D01*
X148639632Y-95956589D01*
X148639633Y-95956592D01*
X148648986Y-95986406D01*
X148651990Y-95998646D01*
X148657501Y-96029395D01*
X148657504Y-96029403D01*
X148679280Y-96083922D01*
X148681815Y-96091043D01*
X148699389Y-96147052D01*
X148699392Y-96147060D01*
X148714555Y-96174377D01*
X148719963Y-96185766D01*
X148731551Y-96214775D01*
X148763858Y-96263796D01*
X148767768Y-96270251D01*
X148796266Y-96321592D01*
X148816621Y-96345302D01*
X148824204Y-96355360D01*
X148841399Y-96381450D01*
X148841401Y-96381452D01*
X148841405Y-96381457D01*
X148882903Y-96422955D01*
X148888044Y-96428501D01*
X148926293Y-96473055D01*
X148951001Y-96492180D01*
X148960463Y-96500514D01*
X155253164Y-102793214D01*
X155284118Y-102825778D01*
X155313381Y-102856562D01*
X155361582Y-102890110D01*
X155367607Y-102894654D01*
X155413102Y-102931751D01*
X155425697Y-102938330D01*
X155440793Y-102946216D01*
X155451575Y-102952748D01*
X155477220Y-102970597D01*
X155531177Y-102993751D01*
X155537985Y-102996985D01*
X155590035Y-103024174D01*
X155620074Y-103032768D01*
X155631944Y-103036995D01*
X155638462Y-103039791D01*
X155660660Y-103049318D01*
X155718171Y-103061135D01*
X155725496Y-103062933D01*
X155781951Y-103079088D01*
X155813116Y-103081461D01*
X155825584Y-103083210D01*
X155856191Y-103089500D01*
X155914892Y-103089500D01*
X155922430Y-103089786D01*
X155980992Y-103094246D01*
X156011994Y-103090297D01*
X156024570Y-103089500D01*
X168404547Y-103089500D01*
X168491911Y-103091714D01*
X168491911Y-103091713D01*
X168491913Y-103091714D01*
X168549718Y-103081352D01*
X168557171Y-103080307D01*
X168615593Y-103074367D01*
X168645409Y-103065011D01*
X168657641Y-103062009D01*
X168688400Y-103056497D01*
X168742921Y-103034718D01*
X168750019Y-103032190D01*
X168806057Y-103014609D01*
X168833375Y-102999445D01*
X168844757Y-102994039D01*
X168873775Y-102982449D01*
X168922811Y-102950130D01*
X168929247Y-102946232D01*
X168980592Y-102917734D01*
X169004292Y-102897386D01*
X169014361Y-102889793D01*
X169040450Y-102872601D01*
X169081972Y-102831077D01*
X169087496Y-102825958D01*
X169132053Y-102787709D01*
X169151188Y-102762987D01*
X169159498Y-102753551D01*
X171344264Y-100568786D01*
X171419253Y-100521667D01*
X171484978Y-100510500D01*
X171585190Y-100510500D01*
X171585192Y-100510500D01*
X171822297Y-100470934D01*
X172049656Y-100392882D01*
X172261067Y-100278472D01*
X172419613Y-100155071D01*
X172450757Y-100130831D01*
X172450759Y-100130828D01*
X172450764Y-100130825D01*
X172613571Y-99953969D01*
X172745049Y-99752728D01*
X172841610Y-99532591D01*
X172900620Y-99299563D01*
X172920471Y-99060000D01*
X172900620Y-98820437D01*
X172841610Y-98587409D01*
X172745051Y-98367276D01*
X172745050Y-98367273D01*
X172723136Y-98333731D01*
X172613571Y-98166031D01*
X172499090Y-98041671D01*
X172455111Y-97964800D01*
X172446500Y-97906893D01*
X172446500Y-95277453D01*
X172448714Y-95190087D01*
X172447370Y-95182587D01*
X172438353Y-95132284D01*
X172437306Y-95124825D01*
X172431367Y-95066407D01*
X172422015Y-95036599D01*
X172419010Y-95024357D01*
X172413497Y-94993601D01*
X172391717Y-94939075D01*
X172389191Y-94931981D01*
X172371609Y-94875943D01*
X172356442Y-94848617D01*
X172351036Y-94837233D01*
X172339450Y-94808227D01*
X172307146Y-94759209D01*
X172303228Y-94752742D01*
X172274738Y-94701414D01*
X172274733Y-94701407D01*
X172254375Y-94677693D01*
X172246794Y-94667639D01*
X172229601Y-94641550D01*
X172188095Y-94600044D01*
X172182965Y-94594510D01*
X172144709Y-94549947D01*
X172119997Y-94530818D01*
X172110543Y-94522492D01*
X167687802Y-90099752D01*
X163262836Y-85674785D01*
X163202618Y-85611437D01*
X163181617Y-85596820D01*
X163154430Y-85577897D01*
X163148397Y-85573349D01*
X163102898Y-85536249D01*
X163102896Y-85536248D01*
X163102895Y-85536247D01*
X163102894Y-85536246D01*
X163075202Y-85521781D01*
X163064427Y-85515253D01*
X163038780Y-85497403D01*
X163038779Y-85497402D01*
X163038777Y-85497401D01*
X162984841Y-85474255D01*
X162978011Y-85471011D01*
X162925969Y-85443828D01*
X162925968Y-85443827D01*
X162925965Y-85443826D01*
X162895928Y-85435231D01*
X162884054Y-85431003D01*
X162855341Y-85418682D01*
X162797835Y-85406864D01*
X162790490Y-85405061D01*
X162734050Y-85388912D01*
X162734048Y-85388911D01*
X162711198Y-85387171D01*
X162702886Y-85386538D01*
X162690411Y-85384788D01*
X162682840Y-85383232D01*
X162659811Y-85378500D01*
X162659809Y-85378500D01*
X162601108Y-85378500D01*
X162593569Y-85378213D01*
X162551287Y-85374993D01*
X162535012Y-85373754D01*
X162535007Y-85373754D01*
X162529237Y-85374488D01*
X162504005Y-85377702D01*
X162491430Y-85378500D01*
X155965573Y-85378500D01*
X155879230Y-85358793D01*
X155843345Y-85336539D01*
X155728355Y-85247039D01*
X155672323Y-85178455D01*
X155651597Y-85092351D01*
X155670283Y-85005781D01*
X155724679Y-84935892D01*
X155728355Y-84932961D01*
X155865959Y-84825860D01*
X156018889Y-84659733D01*
X156142390Y-84470701D01*
X156233093Y-84263919D01*
X156288524Y-84045029D01*
X156307170Y-83820000D01*
X156288524Y-83594971D01*
X156233093Y-83376081D01*
X156233092Y-83376078D01*
X156142392Y-83169302D01*
X156142391Y-83169300D01*
X156018887Y-82980264D01*
X155865958Y-82814139D01*
X155865957Y-82814138D01*
X155728355Y-82707039D01*
X155672323Y-82638455D01*
X155651597Y-82552351D01*
X155670283Y-82465781D01*
X155724679Y-82395892D01*
X155728355Y-82392961D01*
X155865959Y-82285860D01*
X156018889Y-82119733D01*
X156142390Y-81930701D01*
X156233093Y-81723919D01*
X156288524Y-81505029D01*
X156307170Y-81280000D01*
X156288524Y-81054971D01*
X156233093Y-80836081D01*
X156233092Y-80836078D01*
X156142392Y-80629302D01*
X156142391Y-80629300D01*
X156018887Y-80440264D01*
X155865958Y-80274139D01*
X155865957Y-80274138D01*
X155728355Y-80167039D01*
X155672323Y-80098455D01*
X155651597Y-80012351D01*
X155670283Y-79925781D01*
X155724679Y-79855892D01*
X155728355Y-79852961D01*
X155865959Y-79745860D01*
X156018889Y-79579733D01*
X156142390Y-79390701D01*
X156233093Y-79183919D01*
X156288524Y-78965029D01*
X156307170Y-78740000D01*
X156307170Y-78739995D01*
X156288525Y-78514978D01*
X156288524Y-78514975D01*
X156288524Y-78514971D01*
X156233093Y-78296081D01*
X156233092Y-78296078D01*
X156142392Y-78089302D01*
X156142391Y-78089300D01*
X156018887Y-77900264D01*
X155865958Y-77734139D01*
X155865957Y-77734138D01*
X155728355Y-77627039D01*
X155672323Y-77558455D01*
X155651597Y-77472351D01*
X155670283Y-77385781D01*
X155724679Y-77315892D01*
X155728355Y-77312961D01*
X155744048Y-77300747D01*
X155865959Y-77205860D01*
X156018889Y-77039733D01*
X156142390Y-76850701D01*
X156233093Y-76643919D01*
X156288524Y-76425029D01*
X156307170Y-76200000D01*
X156288524Y-75974971D01*
X156233093Y-75756081D01*
X156233092Y-75756078D01*
X156142392Y-75549302D01*
X156142391Y-75549300D01*
X156018887Y-75360264D01*
X155865958Y-75194139D01*
X155865957Y-75194138D01*
X155728355Y-75087039D01*
X155672323Y-75018455D01*
X155651597Y-74932351D01*
X155670283Y-74845781D01*
X155724679Y-74775892D01*
X155728355Y-74772961D01*
X155865959Y-74665860D01*
X156018889Y-74499733D01*
X156142390Y-74310701D01*
X156233093Y-74103919D01*
X156288524Y-73885029D01*
X156307170Y-73660000D01*
X156288524Y-73434971D01*
X156233093Y-73216081D01*
X156233092Y-73216078D01*
X156142392Y-73009302D01*
X156142391Y-73009300D01*
X156018887Y-72820264D01*
X155865958Y-72654139D01*
X155865957Y-72654138D01*
X155728355Y-72547039D01*
X155672323Y-72478455D01*
X155651597Y-72392351D01*
X155670283Y-72305781D01*
X155724679Y-72235892D01*
X155728355Y-72232961D01*
X155865959Y-72125860D01*
X156018889Y-71959733D01*
X156142390Y-71770701D01*
X156233093Y-71563919D01*
X156288524Y-71345029D01*
X156307170Y-71120000D01*
X156288524Y-70894971D01*
X156233093Y-70676081D01*
X156233092Y-70676078D01*
X156142392Y-70469302D01*
X156142391Y-70469300D01*
X156018887Y-70280264D01*
X155865958Y-70114139D01*
X155865957Y-70114138D01*
X155728355Y-70007039D01*
X155672323Y-69938455D01*
X155651597Y-69852351D01*
X155670283Y-69765781D01*
X155724679Y-69695892D01*
X155728355Y-69692961D01*
X155865959Y-69585860D01*
X156018889Y-69419733D01*
X156142390Y-69230701D01*
X156233093Y-69023919D01*
X156288524Y-68805029D01*
X156307170Y-68580000D01*
X156288524Y-68354971D01*
X156233093Y-68136081D01*
X156233092Y-68136078D01*
X156142392Y-67929302D01*
X156142391Y-67929300D01*
X156018887Y-67740264D01*
X155865958Y-67574139D01*
X155865957Y-67574138D01*
X155728355Y-67467039D01*
X155672323Y-67398455D01*
X155651597Y-67312351D01*
X155670283Y-67225781D01*
X155724679Y-67155892D01*
X155728355Y-67152961D01*
X155865959Y-67045860D01*
X156018889Y-66879733D01*
X156142390Y-66690701D01*
X156233093Y-66483919D01*
X156288524Y-66265029D01*
X156307170Y-66040000D01*
X156288524Y-65814971D01*
X156233093Y-65596081D01*
X156233092Y-65596078D01*
X156142392Y-65389302D01*
X156142391Y-65389300D01*
X156018887Y-65200264D01*
X155865958Y-65034139D01*
X155865957Y-65034138D01*
X155728355Y-64927039D01*
X155672323Y-64858455D01*
X155651597Y-64772351D01*
X155670283Y-64685781D01*
X155724679Y-64615892D01*
X155728355Y-64612961D01*
X155865959Y-64505860D01*
X156018889Y-64339733D01*
X156142390Y-64150701D01*
X156233093Y-63943919D01*
X156288524Y-63725029D01*
X156307170Y-63500000D01*
X156288524Y-63274971D01*
X156233093Y-63056081D01*
X156233092Y-63056078D01*
X156142392Y-62849302D01*
X156142391Y-62849300D01*
X156018887Y-62660264D01*
X155865958Y-62494139D01*
X155865957Y-62494138D01*
X155728355Y-62387039D01*
X155672323Y-62318455D01*
X155651597Y-62232351D01*
X155670283Y-62145781D01*
X155724679Y-62075892D01*
X155728355Y-62072961D01*
X155865959Y-61965860D01*
X156018889Y-61799733D01*
X156142390Y-61610701D01*
X156233093Y-61403919D01*
X156288524Y-61185029D01*
X156307170Y-60960000D01*
X156300007Y-60873550D01*
X156288525Y-60734978D01*
X156288524Y-60734975D01*
X156288524Y-60734971D01*
X156233093Y-60516081D01*
X156233092Y-60516078D01*
X156142392Y-60309302D01*
X156142391Y-60309300D01*
X156018887Y-60120264D01*
X155865958Y-59954139D01*
X155865957Y-59954138D01*
X155728355Y-59847039D01*
X155672323Y-59778455D01*
X155651597Y-59692351D01*
X155670283Y-59605781D01*
X155724679Y-59535892D01*
X155728355Y-59532961D01*
X155865959Y-59425860D01*
X156018889Y-59259733D01*
X156142390Y-59070701D01*
X156233093Y-58863919D01*
X156288524Y-58645029D01*
X156307170Y-58420000D01*
X156307170Y-58419995D01*
X156288525Y-58194978D01*
X156288524Y-58194975D01*
X156288524Y-58194971D01*
X156233093Y-57976081D01*
X156233092Y-57976078D01*
X156142392Y-57769302D01*
X156142391Y-57769300D01*
X156018887Y-57580264D01*
X155865958Y-57414139D01*
X155865957Y-57414138D01*
X155687771Y-57275451D01*
X155687768Y-57275449D01*
X155489190Y-57167983D01*
X155377948Y-57129794D01*
X155275620Y-57094665D01*
X155219940Y-57085373D01*
X155052903Y-57057500D01*
X155052900Y-57057500D01*
X154827100Y-57057500D01*
X154827096Y-57057500D01*
X154604380Y-57094665D01*
X154390809Y-57167983D01*
X154192231Y-57275449D01*
X154192228Y-57275451D01*
X154014042Y-57414138D01*
X154014041Y-57414139D01*
X153861112Y-57580264D01*
X153737608Y-57769300D01*
X153737607Y-57769302D01*
X153646907Y-57976078D01*
X153591474Y-58194978D01*
X153572830Y-58419995D01*
X153572830Y-58420004D01*
X153591474Y-58645021D01*
X153646907Y-58863921D01*
X153737607Y-59070697D01*
X153737608Y-59070699D01*
X153861112Y-59259735D01*
X154014041Y-59425860D01*
X154014042Y-59425861D01*
X154151644Y-59532961D01*
X154207677Y-59601546D01*
X154228402Y-59687650D01*
X154209716Y-59774219D01*
X154155319Y-59844108D01*
X154151644Y-59847039D01*
X154014042Y-59954138D01*
X154014041Y-59954139D01*
X153861112Y-60120264D01*
X153737608Y-60309300D01*
X153737607Y-60309302D01*
X153646907Y-60516078D01*
X153591474Y-60734978D01*
X153572830Y-60959995D01*
X153572830Y-60960004D01*
X153591474Y-61185021D01*
X153646907Y-61403921D01*
X153737607Y-61610697D01*
X153737608Y-61610699D01*
X153861112Y-61799735D01*
X154014041Y-61965860D01*
X154014042Y-61965861D01*
X154151644Y-62072961D01*
X154207677Y-62141546D01*
X154228402Y-62227650D01*
X154209716Y-62314219D01*
X154155319Y-62384108D01*
X154151644Y-62387039D01*
X154014042Y-62494138D01*
X154014041Y-62494139D01*
X153861112Y-62660264D01*
X153737608Y-62849300D01*
X153737607Y-62849302D01*
X153646907Y-63056078D01*
X153591474Y-63274978D01*
X153572830Y-63499995D01*
X153572830Y-63500004D01*
X153591474Y-63725021D01*
X153646907Y-63943921D01*
X153737607Y-64150697D01*
X153737608Y-64150699D01*
X153861112Y-64339735D01*
X154014041Y-64505860D01*
X154014042Y-64505861D01*
X154151644Y-64612961D01*
X154207677Y-64681546D01*
X154228402Y-64767650D01*
X154209716Y-64854219D01*
X154155319Y-64924108D01*
X154151644Y-64927039D01*
X154014042Y-65034138D01*
X154014041Y-65034139D01*
X153861112Y-65200264D01*
X153737608Y-65389300D01*
X153737607Y-65389302D01*
X153646907Y-65596078D01*
X153591474Y-65814978D01*
X153572830Y-66039995D01*
X153572830Y-66040004D01*
X153591474Y-66265021D01*
X153646907Y-66483921D01*
X153737607Y-66690697D01*
X153737608Y-66690699D01*
X153861112Y-66879735D01*
X154014041Y-67045860D01*
X154014042Y-67045861D01*
X154151644Y-67152961D01*
X154207677Y-67221546D01*
X154228402Y-67307650D01*
X154209716Y-67394219D01*
X154155319Y-67464108D01*
X154151644Y-67467039D01*
X154014042Y-67574138D01*
X154014041Y-67574139D01*
X153861112Y-67740264D01*
X153737608Y-67929300D01*
X153737607Y-67929302D01*
X153646907Y-68136078D01*
X153591474Y-68354978D01*
X153572830Y-68579995D01*
X153572830Y-68580004D01*
X153591474Y-68805021D01*
X153646907Y-69023921D01*
X153737607Y-69230697D01*
X153737608Y-69230699D01*
X153861112Y-69419735D01*
X154014041Y-69585860D01*
X154014042Y-69585861D01*
X154151644Y-69692961D01*
X154207677Y-69761546D01*
X154228402Y-69847650D01*
X154209716Y-69934219D01*
X154155319Y-70004108D01*
X154151644Y-70007039D01*
X154014042Y-70114138D01*
X154014041Y-70114139D01*
X153861112Y-70280264D01*
X153737608Y-70469300D01*
X153737607Y-70469302D01*
X153646907Y-70676078D01*
X153591474Y-70894978D01*
X153572830Y-71119995D01*
X153572830Y-71120004D01*
X153591474Y-71345021D01*
X153646907Y-71563921D01*
X153737607Y-71770697D01*
X153737608Y-71770699D01*
X153861112Y-71959735D01*
X154014041Y-72125860D01*
X154014042Y-72125861D01*
X154151644Y-72232961D01*
X154207677Y-72301546D01*
X154228402Y-72387650D01*
X154209716Y-72474219D01*
X154155319Y-72544108D01*
X154151644Y-72547039D01*
X154014042Y-72654138D01*
X154014041Y-72654139D01*
X153861112Y-72820264D01*
X153737608Y-73009300D01*
X153737607Y-73009302D01*
X153646907Y-73216078D01*
X153591474Y-73434978D01*
X153572830Y-73659995D01*
X153572830Y-73660004D01*
X153591474Y-73885021D01*
X153646907Y-74103921D01*
X153737607Y-74310697D01*
X153737608Y-74310699D01*
X153861112Y-74499735D01*
X154014041Y-74665860D01*
X154014042Y-74665861D01*
X154151644Y-74772961D01*
X154207677Y-74841546D01*
X154228402Y-74927650D01*
X154209716Y-75014219D01*
X154155319Y-75084108D01*
X154151644Y-75087039D01*
X154014042Y-75194138D01*
X154014041Y-75194139D01*
X153861112Y-75360264D01*
X153737608Y-75549300D01*
X153737607Y-75549302D01*
X153646907Y-75756078D01*
X153591474Y-75974978D01*
X153572830Y-76199995D01*
X153572830Y-76200004D01*
X153591474Y-76425021D01*
X153646907Y-76643921D01*
X153737607Y-76850697D01*
X153737608Y-76850699D01*
X153861112Y-77039735D01*
X154014041Y-77205860D01*
X154014042Y-77205861D01*
X154151644Y-77312961D01*
X154207677Y-77381546D01*
X154228402Y-77467650D01*
X154209716Y-77554219D01*
X154155319Y-77624108D01*
X154151658Y-77627027D01*
X154036653Y-77716540D01*
X153956415Y-77754020D01*
X153914427Y-77758500D01*
X152634979Y-77758500D01*
X152548636Y-77738793D01*
X152494265Y-77700214D01*
X152169786Y-77375735D01*
X152122667Y-77300747D01*
X152111500Y-77235021D01*
X152111500Y-52558979D01*
X152131207Y-52472636D01*
X152169786Y-52418265D01*
X154018265Y-50569786D01*
X154093253Y-50522667D01*
X154158979Y-50511500D01*
X159521021Y-50511500D01*
X159607364Y-50531207D01*
X159661735Y-50569786D01*
X160004761Y-50912812D01*
X160051880Y-50987800D01*
X160061796Y-51075807D01*
X160032545Y-51159400D01*
X159969921Y-51222024D01*
X159886328Y-51251275D01*
X159798321Y-51241359D01*
X159750366Y-51216859D01*
X159736779Y-51207402D01*
X159682841Y-51184255D01*
X159676011Y-51181011D01*
X159623969Y-51153828D01*
X159623968Y-51153827D01*
X159623965Y-51153826D01*
X159593928Y-51145231D01*
X159582054Y-51141003D01*
X159553341Y-51128682D01*
X159495835Y-51116864D01*
X159488490Y-51115061D01*
X159432050Y-51098912D01*
X159432048Y-51098911D01*
X159409198Y-51097171D01*
X159400886Y-51096538D01*
X159388411Y-51094788D01*
X159380840Y-51093232D01*
X159357811Y-51088500D01*
X159357809Y-51088500D01*
X159299108Y-51088500D01*
X159291569Y-51088213D01*
X159249287Y-51084993D01*
X159233012Y-51083754D01*
X159233007Y-51083754D01*
X159227237Y-51084488D01*
X159202005Y-51087702D01*
X159189430Y-51088500D01*
X155460431Y-51088500D01*
X155373090Y-51086286D01*
X155315315Y-51096640D01*
X155307830Y-51097690D01*
X155249411Y-51103631D01*
X155249404Y-51103633D01*
X155219590Y-51112986D01*
X155207355Y-51115990D01*
X155176605Y-51121503D01*
X155176596Y-51121505D01*
X155122088Y-51143276D01*
X155114969Y-51145811D01*
X155058942Y-51163390D01*
X155058940Y-51163391D01*
X155031620Y-51178555D01*
X155020236Y-51183961D01*
X154991222Y-51195551D01*
X154942206Y-51227854D01*
X154935743Y-51231770D01*
X154884411Y-51260264D01*
X154884403Y-51260270D01*
X154860705Y-51280614D01*
X154850641Y-51288202D01*
X154824553Y-51305395D01*
X154824552Y-51305397D01*
X154783033Y-51346913D01*
X154777489Y-51352051D01*
X154732949Y-51390288D01*
X154713817Y-51415003D01*
X154705486Y-51424461D01*
X154582214Y-51547734D01*
X154254783Y-51875166D01*
X154239704Y-51889500D01*
X154191442Y-51935376D01*
X154191436Y-51935383D01*
X154157904Y-51983559D01*
X154153353Y-51989594D01*
X154116251Y-52035097D01*
X154116245Y-52035107D01*
X154101780Y-52062797D01*
X154095253Y-52073570D01*
X154077405Y-52099215D01*
X154054247Y-52153174D01*
X154051005Y-52160002D01*
X154023825Y-52212035D01*
X154015230Y-52242073D01*
X154011003Y-52253944D01*
X153998683Y-52282656D01*
X153991763Y-52316326D01*
X153955076Y-52396934D01*
X153943248Y-52411040D01*
X153861108Y-52500269D01*
X153861106Y-52500272D01*
X153737612Y-52689294D01*
X153737607Y-52689302D01*
X153646907Y-52896078D01*
X153591474Y-53114978D01*
X153572830Y-53339995D01*
X153572830Y-53340004D01*
X153591474Y-53565021D01*
X153646907Y-53783921D01*
X153737607Y-53990697D01*
X153737608Y-53990699D01*
X153861112Y-54179735D01*
X154014041Y-54345860D01*
X154014042Y-54345861D01*
X154057629Y-54379786D01*
X154170017Y-54467261D01*
X154192228Y-54484548D01*
X154192231Y-54484550D01*
X154390809Y-54592016D01*
X154390812Y-54592017D01*
X154390814Y-54592018D01*
X154604380Y-54665335D01*
X154827100Y-54702500D01*
X154827102Y-54702500D01*
X155052898Y-54702500D01*
X155052900Y-54702500D01*
X155275620Y-54665335D01*
X155489186Y-54592018D01*
X155687771Y-54484549D01*
X155865959Y-54345860D01*
X156018889Y-54179733D01*
X156142390Y-53990701D01*
X156233093Y-53783919D01*
X156288524Y-53565029D01*
X156307170Y-53340000D01*
X156301116Y-53266933D01*
X156313626Y-53179258D01*
X156362937Y-53105693D01*
X156439285Y-53060809D01*
X156499436Y-53051500D01*
X158769021Y-53051500D01*
X158855364Y-53071207D01*
X158909735Y-53109786D01*
X162365182Y-56565234D01*
X162385310Y-56586408D01*
X162425381Y-56628562D01*
X162438579Y-56637748D01*
X162473569Y-56662102D01*
X162479588Y-56666640D01*
X162525102Y-56703751D01*
X162552803Y-56718220D01*
X162563571Y-56724744D01*
X162589220Y-56742597D01*
X162643166Y-56765747D01*
X162649988Y-56768986D01*
X162702036Y-56796174D01*
X162732081Y-56804770D01*
X162743942Y-56808993D01*
X162772660Y-56821318D01*
X162830197Y-56833141D01*
X162837488Y-56834931D01*
X162893952Y-56851088D01*
X162925106Y-56853460D01*
X162937582Y-56855209D01*
X162968191Y-56861500D01*
X163026892Y-56861500D01*
X163034430Y-56861786D01*
X163092992Y-56866246D01*
X163123994Y-56862297D01*
X163136570Y-56861500D01*
X167405021Y-56861500D01*
X167491364Y-56881207D01*
X167545735Y-56919786D01*
X168715183Y-58089234D01*
X168775378Y-58152559D01*
X168775380Y-58152561D01*
X168823557Y-58186093D01*
X168829599Y-58190648D01*
X168875095Y-58227747D01*
X168875099Y-58227749D01*
X168875101Y-58227751D01*
X168902389Y-58242004D01*
X168902798Y-58242218D01*
X168913573Y-58248746D01*
X168939220Y-58266597D01*
X168993174Y-58289750D01*
X168999994Y-58292990D01*
X169052030Y-58320172D01*
X169052032Y-58320172D01*
X169052035Y-58320174D01*
X169082074Y-58328768D01*
X169093944Y-58332995D01*
X169100462Y-58335791D01*
X169122660Y-58345318D01*
X169180171Y-58357135D01*
X169187502Y-58358935D01*
X169243951Y-58375088D01*
X169275097Y-58377459D01*
X169287591Y-58379211D01*
X169318189Y-58385500D01*
X169318191Y-58385500D01*
X169376890Y-58385500D01*
X169384448Y-58385787D01*
X169388469Y-58386093D01*
X169442992Y-58390245D01*
X169473988Y-58386297D01*
X169486562Y-58385500D01*
X172993021Y-58385500D01*
X173079364Y-58405207D01*
X173133735Y-58443786D01*
X175505214Y-60815264D01*
X175552333Y-60890252D01*
X175563500Y-60955978D01*
X175563500Y-97906893D01*
X175543793Y-97993236D01*
X175510909Y-98041672D01*
X175396433Y-98166026D01*
X175396431Y-98166028D01*
X175396429Y-98166031D01*
X175372527Y-98202616D01*
X175264949Y-98367273D01*
X175264948Y-98367276D01*
X175168391Y-98587406D01*
X175109379Y-98820439D01*
X175109378Y-98820449D01*
X175089529Y-99059995D01*
X175089529Y-99060004D01*
X175109378Y-99299550D01*
X175109379Y-99299560D01*
X175168391Y-99532593D01*
X175264948Y-99752723D01*
X175264949Y-99752726D01*
X175308777Y-99819808D01*
X175396429Y-99953969D01*
X175447578Y-100009532D01*
X175510909Y-100078328D01*
X175554889Y-100155200D01*
X175563500Y-100213107D01*
X175563500Y-101858021D01*
X175543793Y-101944364D01*
X175505214Y-101998735D01*
X172879736Y-104624214D01*
X172804748Y-104671333D01*
X172739022Y-104682500D01*
X147332453Y-104682500D01*
X147245087Y-104680285D01*
X147245086Y-104680285D01*
X147187295Y-104690643D01*
X147179808Y-104691693D01*
X147121405Y-104697633D01*
X147121401Y-104697634D01*
X147091594Y-104706985D01*
X147079357Y-104709989D01*
X147048605Y-104715501D01*
X147048594Y-104715504D01*
X146994085Y-104737277D01*
X146986964Y-104739813D01*
X146930947Y-104757388D01*
X146930938Y-104757393D01*
X146903618Y-104772556D01*
X146892233Y-104777963D01*
X146863223Y-104789551D01*
X146814203Y-104821857D01*
X146807739Y-104825774D01*
X146756405Y-104854267D01*
X146732699Y-104874617D01*
X146722640Y-104882202D01*
X146696549Y-104899399D01*
X146655033Y-104940913D01*
X146649489Y-104946051D01*
X146604949Y-104984288D01*
X146585817Y-105009003D01*
X146577486Y-105018461D01*
X146097025Y-105498922D01*
X145618784Y-105977165D01*
X145589961Y-106004563D01*
X145555442Y-106037376D01*
X145555436Y-106037383D01*
X145521904Y-106085559D01*
X145517353Y-106091594D01*
X145480251Y-106137097D01*
X145480245Y-106137107D01*
X145465780Y-106164797D01*
X145459253Y-106175570D01*
X145441405Y-106201215D01*
X145418247Y-106255174D01*
X145415005Y-106262002D01*
X145387825Y-106314035D01*
X145379230Y-106344073D01*
X145375003Y-106355944D01*
X145362682Y-106384658D01*
X145350863Y-106442170D01*
X145349060Y-106449514D01*
X145332912Y-106505947D01*
X145332911Y-106505956D01*
X145330537Y-106537111D01*
X145328787Y-106549588D01*
X145322500Y-106580188D01*
X145322500Y-106638891D01*
X145322213Y-106646429D01*
X145319208Y-106685889D01*
X145317754Y-106704987D01*
X145317754Y-106704992D01*
X138940500Y-106704992D01*
X138940500Y-99949357D01*
X144599500Y-99949357D01*
X144614956Y-100066765D01*
X144675463Y-100212840D01*
X144675464Y-100212843D01*
X144725824Y-100278472D01*
X144771718Y-100338282D01*
X144826209Y-100380094D01*
X144897156Y-100434535D01*
X144897159Y-100434536D01*
X145043238Y-100495044D01*
X145160639Y-100510500D01*
X146939360Y-100510499D01*
X147056762Y-100495044D01*
X147056764Y-100495043D01*
X147056765Y-100495043D01*
X147056765Y-100495042D01*
X147202841Y-100434536D01*
X147202841Y-100434535D01*
X147202843Y-100434535D01*
X147231976Y-100412179D01*
X147328282Y-100338282D01*
X147424332Y-100213107D01*
X147424535Y-100212843D01*
X147424536Y-100212840D01*
X147485044Y-100066762D01*
X147500500Y-99949361D01*
X147500499Y-98170640D01*
X147485044Y-98053238D01*
X147485043Y-98053235D01*
X147485043Y-98053234D01*
X147424536Y-97907159D01*
X147424535Y-97907156D01*
X147370094Y-97836209D01*
X147328282Y-97781718D01*
X147286468Y-97749633D01*
X147202843Y-97685464D01*
X147202840Y-97685463D01*
X147056764Y-97624957D01*
X147056762Y-97624956D01*
X147031498Y-97621630D01*
X146939361Y-97609500D01*
X146939358Y-97609500D01*
X145160642Y-97609500D01*
X145043234Y-97624956D01*
X145043234Y-97624957D01*
X144897159Y-97685463D01*
X144897156Y-97685464D01*
X144771718Y-97781718D01*
X144675464Y-97907156D01*
X144675463Y-97907159D01*
X144614957Y-98053235D01*
X144614956Y-98053238D01*
X144600108Y-98166026D01*
X144599500Y-98170641D01*
X144599500Y-99949357D01*
X138940500Y-99949357D01*
X138940500Y-47121183D01*
X141505500Y-47121183D01*
X141544603Y-47380608D01*
X141544606Y-47380623D01*
X141621938Y-47631327D01*
X141735772Y-47867703D01*
X141735776Y-47867711D01*
X141883564Y-48084476D01*
X142062015Y-48276801D01*
X142062021Y-48276807D01*
X142164581Y-48358595D01*
X142267141Y-48440384D01*
X142267141Y-48440385D01*
X142494359Y-48571569D01*
X142537585Y-48588533D01*
X142738584Y-48667420D01*
X142994370Y-48725802D01*
X143131710Y-48736093D01*
X143190502Y-48740500D01*
X143190506Y-48740500D01*
X143321498Y-48740500D01*
X143376191Y-48736401D01*
X143517630Y-48725802D01*
X143773416Y-48667420D01*
X144017643Y-48571568D01*
X144244857Y-48440386D01*
X144449981Y-48276805D01*
X144628433Y-48084479D01*
X144776228Y-47867704D01*
X144890063Y-47631323D01*
X144967396Y-47380615D01*
X145006500Y-47121183D01*
X190273500Y-47121183D01*
X190312603Y-47380608D01*
X190312606Y-47380623D01*
X190389938Y-47631327D01*
X190503772Y-47867703D01*
X190503776Y-47867711D01*
X190651564Y-48084476D01*
X190830015Y-48276801D01*
X190830021Y-48276807D01*
X190932581Y-48358595D01*
X191035141Y-48440384D01*
X191035141Y-48440385D01*
X191262359Y-48571569D01*
X191305585Y-48588533D01*
X191506584Y-48667420D01*
X191762370Y-48725802D01*
X191899710Y-48736093D01*
X191958502Y-48740500D01*
X191958506Y-48740500D01*
X192089498Y-48740500D01*
X192144191Y-48736401D01*
X192285630Y-48725802D01*
X192541416Y-48667420D01*
X192785643Y-48571568D01*
X193012857Y-48440386D01*
X193217981Y-48276805D01*
X193396433Y-48084479D01*
X193544228Y-47867704D01*
X193658063Y-47631323D01*
X193735396Y-47380615D01*
X193774500Y-47121182D01*
X193774500Y-46858818D01*
X193735396Y-46599385D01*
X193658063Y-46348677D01*
X193544228Y-46112296D01*
X193544223Y-46112288D01*
X193396435Y-45895523D01*
X193217984Y-45703198D01*
X193217978Y-45703192D01*
X193012858Y-45539615D01*
X193012858Y-45539614D01*
X192785640Y-45408430D01*
X192620301Y-45343540D01*
X192541416Y-45312580D01*
X192477469Y-45297984D01*
X192285633Y-45254198D01*
X192089498Y-45239500D01*
X192089494Y-45239500D01*
X191958506Y-45239500D01*
X191958502Y-45239500D01*
X191762366Y-45254198D01*
X191506584Y-45312580D01*
X191262360Y-45408430D01*
X191262359Y-45408430D01*
X191035141Y-45539614D01*
X191035141Y-45539615D01*
X190830021Y-45703192D01*
X190830015Y-45703198D01*
X190651564Y-45895523D01*
X190503776Y-46112288D01*
X190503772Y-46112296D01*
X190389938Y-46348672D01*
X190312606Y-46599376D01*
X190312603Y-46599391D01*
X190273500Y-46858816D01*
X190273500Y-47121183D01*
X145006500Y-47121183D01*
X145006500Y-47121182D01*
X145006500Y-46858818D01*
X144967396Y-46599385D01*
X144890063Y-46348677D01*
X144776228Y-46112296D01*
X144776223Y-46112288D01*
X144628435Y-45895523D01*
X144449984Y-45703198D01*
X144449978Y-45703192D01*
X144244858Y-45539615D01*
X144244858Y-45539614D01*
X144017640Y-45408430D01*
X143852301Y-45343540D01*
X143773416Y-45312580D01*
X143709469Y-45297984D01*
X143517633Y-45254198D01*
X143321498Y-45239500D01*
X143321494Y-45239500D01*
X143190506Y-45239500D01*
X143190502Y-45239500D01*
X142994366Y-45254198D01*
X142738584Y-45312580D01*
X142494360Y-45408430D01*
X142494359Y-45408430D01*
X142267141Y-45539614D01*
X142267141Y-45539615D01*
X142062021Y-45703192D01*
X142062015Y-45703198D01*
X141883564Y-45895523D01*
X141735776Y-46112288D01*
X141735772Y-46112296D01*
X141621938Y-46348672D01*
X141544606Y-46599376D01*
X141544603Y-46599391D01*
X141505500Y-46858816D01*
X141505500Y-47121183D01*
X138940500Y-47121183D01*
X138940500Y-42809500D01*
X138960207Y-42723157D01*
X139015426Y-42653916D01*
X139095218Y-42615489D01*
X139139500Y-42610500D01*
X196140500Y-42610500D01*
X196226843Y-42630207D01*
G37*
%TD.AperFunction*%
%TD*%
D18*
X138240000Y-41910000D02*
X197040000Y-41910000D01*
X197040000Y-141430000D01*
X138240000Y-141430000D01*
X138240000Y-41910000D01*
M02*
