%TF.GenerationSoftware,KiCad,Pcbnew,7.0.9*%
%TF.CreationDate,2023-11-17T12:10:22-05:00*%
%TF.ProjectId,TamagotchiPCB,54616d61-676f-4746-9368-695043422e6b,rev?*%
%TF.SameCoordinates,Original*%
%TF.FileFunction,Legend,Top*%
%TF.FilePolarity,Positive*%
%FSLAX46Y46*%
G04 Gerber Fmt 4.6, Leading zero omitted, Abs format (unit mm)*
G04 Created by KiCad (PCBNEW 7.0.9) date 2023-11-17 12:10:22*
%MOMM*%
%LPD*%
G01*
G04 APERTURE LIST*
%ADD10C,0.150000*%
%ADD11C,0.120000*%
%ADD12C,1.000000*%
%ADD13C,0.800000*%
%TA.AperFunction,Profile*%
%ADD14C,0.100000*%
%TD*%
G04 APERTURE END LIST*
D10*
X142494095Y-132852819D02*
X142494095Y-131852819D01*
X142494095Y-132329009D02*
X143065523Y-132329009D01*
X143065523Y-132852819D02*
X143065523Y-131852819D01*
X143970285Y-132186152D02*
X143970285Y-132852819D01*
X143732190Y-131805200D02*
X143494095Y-132519485D01*
X143494095Y-132519485D02*
X144113142Y-132519485D01*
X191262095Y-132852819D02*
X191262095Y-131852819D01*
X191262095Y-132329009D02*
X191833523Y-132329009D01*
X191833523Y-132852819D02*
X191833523Y-131852819D01*
X192214476Y-131852819D02*
X192833523Y-131852819D01*
X192833523Y-131852819D02*
X192500190Y-132233771D01*
X192500190Y-132233771D02*
X192643047Y-132233771D01*
X192643047Y-132233771D02*
X192738285Y-132281390D01*
X192738285Y-132281390D02*
X192785904Y-132329009D01*
X192785904Y-132329009D02*
X192833523Y-132424247D01*
X192833523Y-132424247D02*
X192833523Y-132662342D01*
X192833523Y-132662342D02*
X192785904Y-132757580D01*
X192785904Y-132757580D02*
X192738285Y-132805200D01*
X192738285Y-132805200D02*
X192643047Y-132852819D01*
X192643047Y-132852819D02*
X192357333Y-132852819D01*
X192357333Y-132852819D02*
X192262095Y-132805200D01*
X192262095Y-132805200D02*
X192214476Y-132757580D01*
X191262095Y-43444819D02*
X191262095Y-42444819D01*
X191262095Y-42921009D02*
X191833523Y-42921009D01*
X191833523Y-43444819D02*
X191833523Y-42444819D01*
X192262095Y-42540057D02*
X192309714Y-42492438D01*
X192309714Y-42492438D02*
X192404952Y-42444819D01*
X192404952Y-42444819D02*
X192643047Y-42444819D01*
X192643047Y-42444819D02*
X192738285Y-42492438D01*
X192738285Y-42492438D02*
X192785904Y-42540057D01*
X192785904Y-42540057D02*
X192833523Y-42635295D01*
X192833523Y-42635295D02*
X192833523Y-42730533D01*
X192833523Y-42730533D02*
X192785904Y-42873390D01*
X192785904Y-42873390D02*
X192214476Y-43444819D01*
X192214476Y-43444819D02*
X192833523Y-43444819D01*
X147066095Y-45412819D02*
X147066095Y-44412819D01*
X147066095Y-44889009D02*
X147637523Y-44889009D01*
X147637523Y-45412819D02*
X147637523Y-44412819D01*
X148637523Y-45412819D02*
X148066095Y-45412819D01*
X148351809Y-45412819D02*
X148351809Y-44412819D01*
X148351809Y-44412819D02*
X148256571Y-44555676D01*
X148256571Y-44555676D02*
X148161333Y-44650914D01*
X148161333Y-44650914D02*
X148066095Y-44698533D01*
X143645237Y-96661009D02*
X143788094Y-96708628D01*
X143788094Y-96708628D02*
X143835713Y-96756247D01*
X143835713Y-96756247D02*
X143883332Y-96851485D01*
X143883332Y-96851485D02*
X143883332Y-96994342D01*
X143883332Y-96994342D02*
X143835713Y-97089580D01*
X143835713Y-97089580D02*
X143788094Y-97137200D01*
X143788094Y-97137200D02*
X143692856Y-97184819D01*
X143692856Y-97184819D02*
X143311904Y-97184819D01*
X143311904Y-97184819D02*
X143311904Y-96184819D01*
X143311904Y-96184819D02*
X143645237Y-96184819D01*
X143645237Y-96184819D02*
X143740475Y-96232438D01*
X143740475Y-96232438D02*
X143788094Y-96280057D01*
X143788094Y-96280057D02*
X143835713Y-96375295D01*
X143835713Y-96375295D02*
X143835713Y-96470533D01*
X143835713Y-96470533D02*
X143788094Y-96565771D01*
X143788094Y-96565771D02*
X143740475Y-96613390D01*
X143740475Y-96613390D02*
X143645237Y-96661009D01*
X143645237Y-96661009D02*
X143311904Y-96661009D01*
X144740475Y-96518152D02*
X144740475Y-97184819D01*
X144311904Y-96518152D02*
X144311904Y-97041961D01*
X144311904Y-97041961D02*
X144359523Y-97137200D01*
X144359523Y-97137200D02*
X144454761Y-97184819D01*
X144454761Y-97184819D02*
X144597618Y-97184819D01*
X144597618Y-97184819D02*
X144692856Y-97137200D01*
X144692856Y-97137200D02*
X144740475Y-97089580D01*
X145121428Y-96518152D02*
X145645237Y-96518152D01*
X145645237Y-96518152D02*
X145121428Y-97184819D01*
X145121428Y-97184819D02*
X145645237Y-97184819D01*
X145930952Y-96518152D02*
X146454761Y-96518152D01*
X146454761Y-96518152D02*
X145930952Y-97184819D01*
X145930952Y-97184819D02*
X146454761Y-97184819D01*
X147216666Y-97137200D02*
X147121428Y-97184819D01*
X147121428Y-97184819D02*
X146930952Y-97184819D01*
X146930952Y-97184819D02*
X146835714Y-97137200D01*
X146835714Y-97137200D02*
X146788095Y-97041961D01*
X146788095Y-97041961D02*
X146788095Y-96661009D01*
X146788095Y-96661009D02*
X146835714Y-96565771D01*
X146835714Y-96565771D02*
X146930952Y-96518152D01*
X146930952Y-96518152D02*
X147121428Y-96518152D01*
X147121428Y-96518152D02*
X147216666Y-96565771D01*
X147216666Y-96565771D02*
X147264285Y-96661009D01*
X147264285Y-96661009D02*
X147264285Y-96756247D01*
X147264285Y-96756247D02*
X146788095Y-96851485D01*
X147692857Y-97184819D02*
X147692857Y-96518152D01*
X147692857Y-96708628D02*
X147740476Y-96613390D01*
X147740476Y-96613390D02*
X147788095Y-96565771D01*
X147788095Y-96565771D02*
X147883333Y-96518152D01*
X147883333Y-96518152D02*
X147978571Y-96518152D01*
X148835714Y-97184819D02*
X148264286Y-97184819D01*
X148550000Y-97184819D02*
X148550000Y-96184819D01*
X148550000Y-96184819D02*
X148454762Y-96327676D01*
X148454762Y-96327676D02*
X148359524Y-96422914D01*
X148359524Y-96422914D02*
X148264286Y-96470533D01*
X166878095Y-77884819D02*
X166878095Y-78694342D01*
X166878095Y-78694342D02*
X166925714Y-78789580D01*
X166925714Y-78789580D02*
X166973333Y-78837200D01*
X166973333Y-78837200D02*
X167068571Y-78884819D01*
X167068571Y-78884819D02*
X167259047Y-78884819D01*
X167259047Y-78884819D02*
X167354285Y-78837200D01*
X167354285Y-78837200D02*
X167401904Y-78789580D01*
X167401904Y-78789580D02*
X167449523Y-78694342D01*
X167449523Y-78694342D02*
X167449523Y-77884819D01*
X168449523Y-78884819D02*
X167878095Y-78884819D01*
X168163809Y-78884819D02*
X168163809Y-77884819D01*
X168163809Y-77884819D02*
X168068571Y-78027676D01*
X168068571Y-78027676D02*
X167973333Y-78122914D01*
X167973333Y-78122914D02*
X167878095Y-78170533D01*
X158900952Y-49151009D02*
X159043809Y-49198628D01*
X159043809Y-49198628D02*
X159091428Y-49246247D01*
X159091428Y-49246247D02*
X159139047Y-49341485D01*
X159139047Y-49341485D02*
X159139047Y-49484342D01*
X159139047Y-49484342D02*
X159091428Y-49579580D01*
X159091428Y-49579580D02*
X159043809Y-49627200D01*
X159043809Y-49627200D02*
X158948571Y-49674819D01*
X158948571Y-49674819D02*
X158567619Y-49674819D01*
X158567619Y-49674819D02*
X158567619Y-48674819D01*
X158567619Y-48674819D02*
X158900952Y-48674819D01*
X158900952Y-48674819D02*
X158996190Y-48722438D01*
X158996190Y-48722438D02*
X159043809Y-48770057D01*
X159043809Y-48770057D02*
X159091428Y-48865295D01*
X159091428Y-48865295D02*
X159091428Y-48960533D01*
X159091428Y-48960533D02*
X159043809Y-49055771D01*
X159043809Y-49055771D02*
X158996190Y-49103390D01*
X158996190Y-49103390D02*
X158900952Y-49151009D01*
X158900952Y-49151009D02*
X158567619Y-49151009D01*
X159710476Y-49674819D02*
X159615238Y-49627200D01*
X159615238Y-49627200D02*
X159567619Y-49579580D01*
X159567619Y-49579580D02*
X159520000Y-49484342D01*
X159520000Y-49484342D02*
X159520000Y-49198628D01*
X159520000Y-49198628D02*
X159567619Y-49103390D01*
X159567619Y-49103390D02*
X159615238Y-49055771D01*
X159615238Y-49055771D02*
X159710476Y-49008152D01*
X159710476Y-49008152D02*
X159853333Y-49008152D01*
X159853333Y-49008152D02*
X159948571Y-49055771D01*
X159948571Y-49055771D02*
X159996190Y-49103390D01*
X159996190Y-49103390D02*
X160043809Y-49198628D01*
X160043809Y-49198628D02*
X160043809Y-49484342D01*
X160043809Y-49484342D02*
X159996190Y-49579580D01*
X159996190Y-49579580D02*
X159948571Y-49627200D01*
X159948571Y-49627200D02*
X159853333Y-49674819D01*
X159853333Y-49674819D02*
X159710476Y-49674819D01*
X160615238Y-49674819D02*
X160520000Y-49627200D01*
X160520000Y-49627200D02*
X160472381Y-49579580D01*
X160472381Y-49579580D02*
X160424762Y-49484342D01*
X160424762Y-49484342D02*
X160424762Y-49198628D01*
X160424762Y-49198628D02*
X160472381Y-49103390D01*
X160472381Y-49103390D02*
X160520000Y-49055771D01*
X160520000Y-49055771D02*
X160615238Y-49008152D01*
X160615238Y-49008152D02*
X160758095Y-49008152D01*
X160758095Y-49008152D02*
X160853333Y-49055771D01*
X160853333Y-49055771D02*
X160900952Y-49103390D01*
X160900952Y-49103390D02*
X160948571Y-49198628D01*
X160948571Y-49198628D02*
X160948571Y-49484342D01*
X160948571Y-49484342D02*
X160900952Y-49579580D01*
X160900952Y-49579580D02*
X160853333Y-49627200D01*
X160853333Y-49627200D02*
X160758095Y-49674819D01*
X160758095Y-49674819D02*
X160615238Y-49674819D01*
X161234286Y-49008152D02*
X161615238Y-49008152D01*
X161377143Y-48674819D02*
X161377143Y-49531961D01*
X161377143Y-49531961D02*
X161424762Y-49627200D01*
X161424762Y-49627200D02*
X161520000Y-49674819D01*
X161520000Y-49674819D02*
X161615238Y-49674819D01*
X172998095Y-49151009D02*
X173331428Y-49151009D01*
X173474285Y-49674819D02*
X172998095Y-49674819D01*
X172998095Y-49674819D02*
X172998095Y-48674819D01*
X172998095Y-48674819D02*
X173474285Y-48674819D01*
X173902857Y-49008152D02*
X173902857Y-49674819D01*
X173902857Y-49103390D02*
X173950476Y-49055771D01*
X173950476Y-49055771D02*
X174045714Y-49008152D01*
X174045714Y-49008152D02*
X174188571Y-49008152D01*
X174188571Y-49008152D02*
X174283809Y-49055771D01*
X174283809Y-49055771D02*
X174331428Y-49151009D01*
X174331428Y-49151009D02*
X174331428Y-49674819D01*
X175236190Y-49674819D02*
X175236190Y-49151009D01*
X175236190Y-49151009D02*
X175188571Y-49055771D01*
X175188571Y-49055771D02*
X175093333Y-49008152D01*
X175093333Y-49008152D02*
X174902857Y-49008152D01*
X174902857Y-49008152D02*
X174807619Y-49055771D01*
X175236190Y-49627200D02*
X175140952Y-49674819D01*
X175140952Y-49674819D02*
X174902857Y-49674819D01*
X174902857Y-49674819D02*
X174807619Y-49627200D01*
X174807619Y-49627200D02*
X174760000Y-49531961D01*
X174760000Y-49531961D02*
X174760000Y-49436723D01*
X174760000Y-49436723D02*
X174807619Y-49341485D01*
X174807619Y-49341485D02*
X174902857Y-49293866D01*
X174902857Y-49293866D02*
X175140952Y-49293866D01*
X175140952Y-49293866D02*
X175236190Y-49246247D01*
X175712381Y-49674819D02*
X175712381Y-48674819D01*
X175712381Y-49055771D02*
X175807619Y-49008152D01*
X175807619Y-49008152D02*
X175998095Y-49008152D01*
X175998095Y-49008152D02*
X176093333Y-49055771D01*
X176093333Y-49055771D02*
X176140952Y-49103390D01*
X176140952Y-49103390D02*
X176188571Y-49198628D01*
X176188571Y-49198628D02*
X176188571Y-49484342D01*
X176188571Y-49484342D02*
X176140952Y-49579580D01*
X176140952Y-49579580D02*
X176093333Y-49627200D01*
X176093333Y-49627200D02*
X175998095Y-49674819D01*
X175998095Y-49674819D02*
X175807619Y-49674819D01*
X175807619Y-49674819D02*
X175712381Y-49627200D01*
X176760000Y-49674819D02*
X176664762Y-49627200D01*
X176664762Y-49627200D02*
X176617143Y-49531961D01*
X176617143Y-49531961D02*
X176617143Y-48674819D01*
X177521905Y-49627200D02*
X177426667Y-49674819D01*
X177426667Y-49674819D02*
X177236191Y-49674819D01*
X177236191Y-49674819D02*
X177140953Y-49627200D01*
X177140953Y-49627200D02*
X177093334Y-49531961D01*
X177093334Y-49531961D02*
X177093334Y-49151009D01*
X177093334Y-49151009D02*
X177140953Y-49055771D01*
X177140953Y-49055771D02*
X177236191Y-49008152D01*
X177236191Y-49008152D02*
X177426667Y-49008152D01*
X177426667Y-49008152D02*
X177521905Y-49055771D01*
X177521905Y-49055771D02*
X177569524Y-49151009D01*
X177569524Y-49151009D02*
X177569524Y-49246247D01*
X177569524Y-49246247D02*
X177093334Y-49341485D01*
X166378095Y-44864819D02*
X166378095Y-45674342D01*
X166378095Y-45674342D02*
X166425714Y-45769580D01*
X166425714Y-45769580D02*
X166473333Y-45817200D01*
X166473333Y-45817200D02*
X166568571Y-45864819D01*
X166568571Y-45864819D02*
X166759047Y-45864819D01*
X166759047Y-45864819D02*
X166854285Y-45817200D01*
X166854285Y-45817200D02*
X166901904Y-45769580D01*
X166901904Y-45769580D02*
X166949523Y-45674342D01*
X166949523Y-45674342D02*
X166949523Y-44864819D01*
X167378095Y-45817200D02*
X167520952Y-45864819D01*
X167520952Y-45864819D02*
X167759047Y-45864819D01*
X167759047Y-45864819D02*
X167854285Y-45817200D01*
X167854285Y-45817200D02*
X167901904Y-45769580D01*
X167901904Y-45769580D02*
X167949523Y-45674342D01*
X167949523Y-45674342D02*
X167949523Y-45579104D01*
X167949523Y-45579104D02*
X167901904Y-45483866D01*
X167901904Y-45483866D02*
X167854285Y-45436247D01*
X167854285Y-45436247D02*
X167759047Y-45388628D01*
X167759047Y-45388628D02*
X167568571Y-45341009D01*
X167568571Y-45341009D02*
X167473333Y-45293390D01*
X167473333Y-45293390D02*
X167425714Y-45245771D01*
X167425714Y-45245771D02*
X167378095Y-45150533D01*
X167378095Y-45150533D02*
X167378095Y-45055295D01*
X167378095Y-45055295D02*
X167425714Y-44960057D01*
X167425714Y-44960057D02*
X167473333Y-44912438D01*
X167473333Y-44912438D02*
X167568571Y-44864819D01*
X167568571Y-44864819D02*
X167806666Y-44864819D01*
X167806666Y-44864819D02*
X167949523Y-44912438D01*
X168711428Y-45341009D02*
X168854285Y-45388628D01*
X168854285Y-45388628D02*
X168901904Y-45436247D01*
X168901904Y-45436247D02*
X168949523Y-45531485D01*
X168949523Y-45531485D02*
X168949523Y-45674342D01*
X168949523Y-45674342D02*
X168901904Y-45769580D01*
X168901904Y-45769580D02*
X168854285Y-45817200D01*
X168854285Y-45817200D02*
X168759047Y-45864819D01*
X168759047Y-45864819D02*
X168378095Y-45864819D01*
X168378095Y-45864819D02*
X168378095Y-44864819D01*
X168378095Y-44864819D02*
X168711428Y-44864819D01*
X168711428Y-44864819D02*
X168806666Y-44912438D01*
X168806666Y-44912438D02*
X168854285Y-44960057D01*
X168854285Y-44960057D02*
X168901904Y-45055295D01*
X168901904Y-45055295D02*
X168901904Y-45150533D01*
X168901904Y-45150533D02*
X168854285Y-45245771D01*
X168854285Y-45245771D02*
X168806666Y-45293390D01*
X168806666Y-45293390D02*
X168711428Y-45341009D01*
X168711428Y-45341009D02*
X168378095Y-45341009D01*
X164378095Y-102054819D02*
X164378095Y-101054819D01*
X164378095Y-101054819D02*
X164711428Y-101769104D01*
X164711428Y-101769104D02*
X165044761Y-101054819D01*
X165044761Y-101054819D02*
X165044761Y-102054819D01*
X165520952Y-102054819D02*
X165520952Y-101054819D01*
X165520952Y-101054819D02*
X165901904Y-101054819D01*
X165901904Y-101054819D02*
X165997142Y-101102438D01*
X165997142Y-101102438D02*
X166044761Y-101150057D01*
X166044761Y-101150057D02*
X166092380Y-101245295D01*
X166092380Y-101245295D02*
X166092380Y-101388152D01*
X166092380Y-101388152D02*
X166044761Y-101483390D01*
X166044761Y-101483390D02*
X165997142Y-101531009D01*
X165997142Y-101531009D02*
X165901904Y-101578628D01*
X165901904Y-101578628D02*
X165520952Y-101578628D01*
X166520952Y-101054819D02*
X166520952Y-101864342D01*
X166520952Y-101864342D02*
X166568571Y-101959580D01*
X166568571Y-101959580D02*
X166616190Y-102007200D01*
X166616190Y-102007200D02*
X166711428Y-102054819D01*
X166711428Y-102054819D02*
X166901904Y-102054819D01*
X166901904Y-102054819D02*
X166997142Y-102007200D01*
X166997142Y-102007200D02*
X167044761Y-101959580D01*
X167044761Y-101959580D02*
X167092380Y-101864342D01*
X167092380Y-101864342D02*
X167092380Y-101054819D01*
X167997142Y-101054819D02*
X167806666Y-101054819D01*
X167806666Y-101054819D02*
X167711428Y-101102438D01*
X167711428Y-101102438D02*
X167663809Y-101150057D01*
X167663809Y-101150057D02*
X167568571Y-101292914D01*
X167568571Y-101292914D02*
X167520952Y-101483390D01*
X167520952Y-101483390D02*
X167520952Y-101864342D01*
X167520952Y-101864342D02*
X167568571Y-101959580D01*
X167568571Y-101959580D02*
X167616190Y-102007200D01*
X167616190Y-102007200D02*
X167711428Y-102054819D01*
X167711428Y-102054819D02*
X167901904Y-102054819D01*
X167901904Y-102054819D02*
X167997142Y-102007200D01*
X167997142Y-102007200D02*
X168044761Y-101959580D01*
X168044761Y-101959580D02*
X168092380Y-101864342D01*
X168092380Y-101864342D02*
X168092380Y-101626247D01*
X168092380Y-101626247D02*
X168044761Y-101531009D01*
X168044761Y-101531009D02*
X167997142Y-101483390D01*
X167997142Y-101483390D02*
X167901904Y-101435771D01*
X167901904Y-101435771D02*
X167711428Y-101435771D01*
X167711428Y-101435771D02*
X167616190Y-101483390D01*
X167616190Y-101483390D02*
X167568571Y-101531009D01*
X167568571Y-101531009D02*
X167520952Y-101626247D01*
X168711428Y-101054819D02*
X168806666Y-101054819D01*
X168806666Y-101054819D02*
X168901904Y-101102438D01*
X168901904Y-101102438D02*
X168949523Y-101150057D01*
X168949523Y-101150057D02*
X168997142Y-101245295D01*
X168997142Y-101245295D02*
X169044761Y-101435771D01*
X169044761Y-101435771D02*
X169044761Y-101673866D01*
X169044761Y-101673866D02*
X168997142Y-101864342D01*
X168997142Y-101864342D02*
X168949523Y-101959580D01*
X168949523Y-101959580D02*
X168901904Y-102007200D01*
X168901904Y-102007200D02*
X168806666Y-102054819D01*
X168806666Y-102054819D02*
X168711428Y-102054819D01*
X168711428Y-102054819D02*
X168616190Y-102007200D01*
X168616190Y-102007200D02*
X168568571Y-101959580D01*
X168568571Y-101959580D02*
X168520952Y-101864342D01*
X168520952Y-101864342D02*
X168473333Y-101673866D01*
X168473333Y-101673866D02*
X168473333Y-101435771D01*
X168473333Y-101435771D02*
X168520952Y-101245295D01*
X168520952Y-101245295D02*
X168568571Y-101150057D01*
X168568571Y-101150057D02*
X168616190Y-101102438D01*
X168616190Y-101102438D02*
X168711428Y-101054819D01*
X169949523Y-101054819D02*
X169473333Y-101054819D01*
X169473333Y-101054819D02*
X169425714Y-101531009D01*
X169425714Y-101531009D02*
X169473333Y-101483390D01*
X169473333Y-101483390D02*
X169568571Y-101435771D01*
X169568571Y-101435771D02*
X169806666Y-101435771D01*
X169806666Y-101435771D02*
X169901904Y-101483390D01*
X169901904Y-101483390D02*
X169949523Y-101531009D01*
X169949523Y-101531009D02*
X169997142Y-101626247D01*
X169997142Y-101626247D02*
X169997142Y-101864342D01*
X169997142Y-101864342D02*
X169949523Y-101959580D01*
X169949523Y-101959580D02*
X169901904Y-102007200D01*
X169901904Y-102007200D02*
X169806666Y-102054819D01*
X169806666Y-102054819D02*
X169568571Y-102054819D01*
X169568571Y-102054819D02*
X169473333Y-102007200D01*
X169473333Y-102007200D02*
X169425714Y-101959580D01*
X170616190Y-101054819D02*
X170711428Y-101054819D01*
X170711428Y-101054819D02*
X170806666Y-101102438D01*
X170806666Y-101102438D02*
X170854285Y-101150057D01*
X170854285Y-101150057D02*
X170901904Y-101245295D01*
X170901904Y-101245295D02*
X170949523Y-101435771D01*
X170949523Y-101435771D02*
X170949523Y-101673866D01*
X170949523Y-101673866D02*
X170901904Y-101864342D01*
X170901904Y-101864342D02*
X170854285Y-101959580D01*
X170854285Y-101959580D02*
X170806666Y-102007200D01*
X170806666Y-102007200D02*
X170711428Y-102054819D01*
X170711428Y-102054819D02*
X170616190Y-102054819D01*
X170616190Y-102054819D02*
X170520952Y-102007200D01*
X170520952Y-102007200D02*
X170473333Y-101959580D01*
X170473333Y-101959580D02*
X170425714Y-101864342D01*
X170425714Y-101864342D02*
X170378095Y-101673866D01*
X170378095Y-101673866D02*
X170378095Y-101435771D01*
X170378095Y-101435771D02*
X170425714Y-101245295D01*
X170425714Y-101245295D02*
X170473333Y-101150057D01*
X170473333Y-101150057D02*
X170520952Y-101102438D01*
X170520952Y-101102438D02*
X170616190Y-101054819D01*
X186682380Y-96661009D02*
X186825237Y-96708628D01*
X186825237Y-96708628D02*
X186872856Y-96756247D01*
X186872856Y-96756247D02*
X186920475Y-96851485D01*
X186920475Y-96851485D02*
X186920475Y-96994342D01*
X186920475Y-96994342D02*
X186872856Y-97089580D01*
X186872856Y-97089580D02*
X186825237Y-97137200D01*
X186825237Y-97137200D02*
X186729999Y-97184819D01*
X186729999Y-97184819D02*
X186349047Y-97184819D01*
X186349047Y-97184819D02*
X186349047Y-96184819D01*
X186349047Y-96184819D02*
X186682380Y-96184819D01*
X186682380Y-96184819D02*
X186777618Y-96232438D01*
X186777618Y-96232438D02*
X186825237Y-96280057D01*
X186825237Y-96280057D02*
X186872856Y-96375295D01*
X186872856Y-96375295D02*
X186872856Y-96470533D01*
X186872856Y-96470533D02*
X186825237Y-96565771D01*
X186825237Y-96565771D02*
X186777618Y-96613390D01*
X186777618Y-96613390D02*
X186682380Y-96661009D01*
X186682380Y-96661009D02*
X186349047Y-96661009D01*
X187777618Y-97184819D02*
X187777618Y-96661009D01*
X187777618Y-96661009D02*
X187729999Y-96565771D01*
X187729999Y-96565771D02*
X187634761Y-96518152D01*
X187634761Y-96518152D02*
X187444285Y-96518152D01*
X187444285Y-96518152D02*
X187349047Y-96565771D01*
X187777618Y-97137200D02*
X187682380Y-97184819D01*
X187682380Y-97184819D02*
X187444285Y-97184819D01*
X187444285Y-97184819D02*
X187349047Y-97137200D01*
X187349047Y-97137200D02*
X187301428Y-97041961D01*
X187301428Y-97041961D02*
X187301428Y-96946723D01*
X187301428Y-96946723D02*
X187349047Y-96851485D01*
X187349047Y-96851485D02*
X187444285Y-96803866D01*
X187444285Y-96803866D02*
X187682380Y-96803866D01*
X187682380Y-96803866D02*
X187777618Y-96756247D01*
X188110952Y-96518152D02*
X188491904Y-96518152D01*
X188253809Y-96184819D02*
X188253809Y-97041961D01*
X188253809Y-97041961D02*
X188301428Y-97137200D01*
X188301428Y-97137200D02*
X188396666Y-97184819D01*
X188396666Y-97184819D02*
X188491904Y-97184819D01*
X188682381Y-96518152D02*
X189063333Y-96518152D01*
X188825238Y-96184819D02*
X188825238Y-97041961D01*
X188825238Y-97041961D02*
X188872857Y-97137200D01*
X188872857Y-97137200D02*
X188968095Y-97184819D01*
X188968095Y-97184819D02*
X189063333Y-97184819D01*
X189777619Y-97137200D02*
X189682381Y-97184819D01*
X189682381Y-97184819D02*
X189491905Y-97184819D01*
X189491905Y-97184819D02*
X189396667Y-97137200D01*
X189396667Y-97137200D02*
X189349048Y-97041961D01*
X189349048Y-97041961D02*
X189349048Y-96661009D01*
X189349048Y-96661009D02*
X189396667Y-96565771D01*
X189396667Y-96565771D02*
X189491905Y-96518152D01*
X189491905Y-96518152D02*
X189682381Y-96518152D01*
X189682381Y-96518152D02*
X189777619Y-96565771D01*
X189777619Y-96565771D02*
X189825238Y-96661009D01*
X189825238Y-96661009D02*
X189825238Y-96756247D01*
X189825238Y-96756247D02*
X189349048Y-96851485D01*
X190253810Y-97184819D02*
X190253810Y-96518152D01*
X190253810Y-96708628D02*
X190301429Y-96613390D01*
X190301429Y-96613390D02*
X190349048Y-96565771D01*
X190349048Y-96565771D02*
X190444286Y-96518152D01*
X190444286Y-96518152D02*
X190539524Y-96518152D01*
X190777620Y-96518152D02*
X191015715Y-97184819D01*
X191253810Y-96518152D02*
X191015715Y-97184819D01*
X191015715Y-97184819D02*
X190920477Y-97422914D01*
X190920477Y-97422914D02*
X190872858Y-97470533D01*
X190872858Y-97470533D02*
X190777620Y-97518152D01*
X192158572Y-97184819D02*
X191587144Y-97184819D01*
X191872858Y-97184819D02*
X191872858Y-96184819D01*
X191872858Y-96184819D02*
X191777620Y-96327676D01*
X191777620Y-96327676D02*
X191682382Y-96422914D01*
X191682382Y-96422914D02*
X191587144Y-96470533D01*
D11*
%TO.C,Buzzer1*%
X144720000Y-97730000D02*
X146050000Y-97730000D01*
X144720000Y-99060000D02*
X144720000Y-97730000D01*
X144720000Y-100330000D02*
X144720000Y-102930000D01*
X144720000Y-100330000D02*
X147380000Y-100330000D01*
X144720000Y-102930000D02*
X147380000Y-102930000D01*
X147380000Y-100330000D02*
X147380000Y-102930000D01*
%TO.C,U1*%
X181640000Y-92940000D02*
X181640000Y-45440000D01*
X179640000Y-94940000D02*
X155640000Y-94940000D01*
X179640000Y-43440000D02*
X155640000Y-43440000D01*
X176530000Y-93670000D02*
X158750000Y-93670000D01*
X176530000Y-88590000D02*
X176530000Y-93670000D01*
X176530000Y-47950000D02*
X173990000Y-47950000D01*
X176530000Y-44140000D02*
X176530000Y-47950000D01*
X175260000Y-92908000D02*
X172720000Y-92908000D01*
X175260000Y-89352000D02*
X175260000Y-92908000D01*
X175140000Y-87940000D02*
X160140000Y-87940000D01*
X175140000Y-69940000D02*
X175140000Y-87940000D01*
X173990000Y-47950000D02*
X173990000Y-44140000D01*
X173990000Y-44140000D02*
X176530000Y-44140000D01*
X172720000Y-92908000D02*
X172720000Y-90876000D01*
X172720000Y-90876000D02*
X170180000Y-90876000D01*
X171640000Y-49440000D02*
X171640000Y-43440000D01*
X171640000Y-49440000D02*
X163640000Y-49440000D01*
X170180000Y-92908000D02*
X167640000Y-92908000D01*
X170180000Y-90876000D02*
X170180000Y-92908000D01*
X167640000Y-92908000D02*
X167640000Y-90876000D01*
X167640000Y-90876000D02*
X165100000Y-90876000D01*
X165100000Y-92908000D02*
X160020000Y-92908000D01*
X165100000Y-90876000D02*
X165100000Y-92908000D01*
X163640000Y-49440000D02*
X163640000Y-43440000D01*
X162560000Y-92908000D02*
X162560000Y-89352000D01*
X161290000Y-47950000D02*
X158750000Y-47950000D01*
X161290000Y-44140000D02*
X161290000Y-47950000D01*
X160140000Y-87940000D02*
X160140000Y-69940000D01*
X160140000Y-69940000D02*
X175140000Y-69940000D01*
X160020000Y-92908000D02*
X160020000Y-89352000D01*
X158750000Y-93670000D02*
X158750000Y-88590000D01*
X158750000Y-88590000D02*
X176530000Y-88590000D01*
X158750000Y-47950000D02*
X158750000Y-44140000D01*
X158750000Y-44140000D02*
X161290000Y-44140000D01*
X153640000Y-45440000D02*
X153640000Y-92940000D01*
X179640000Y-94940000D02*
G75*
G03*
X181640000Y-92940000I1J1999999D01*
G01*
X181640000Y-45440000D02*
G75*
G03*
X179640000Y-43440000I-1999999J1D01*
G01*
X153640000Y-92940000D02*
G75*
G03*
X155640000Y-94940000I2000000J0D01*
G01*
X155640000Y-43440000D02*
G75*
G03*
X153640000Y-45440000I0J-2000000D01*
G01*
X180840000Y-92940000D02*
G75*
G03*
X180840000Y-92940000I-1500000J0D01*
G01*
X180840000Y-45440000D02*
G75*
G03*
X180840000Y-45440000I-1500000J0D01*
G01*
D12*
X175560000Y-46045000D02*
G75*
G03*
X175560000Y-46045000I-300000J0D01*
G01*
D13*
X173120000Y-72080000D02*
G75*
G03*
X173120000Y-72080000I-400000J0D01*
G01*
D12*
X160320000Y-46045000D02*
G75*
G03*
X160320000Y-46045000I-300000J0D01*
G01*
D11*
X157440000Y-92940000D02*
G75*
G03*
X157440000Y-92940000I-1500000J0D01*
G01*
X157440000Y-45440000D02*
G75*
G03*
X157440000Y-45440000I-1500000J0D01*
G01*
%TO.C,MPU6050*%
X157435000Y-100390000D02*
X157435000Y-99060000D01*
X158765000Y-100390000D02*
X157435000Y-100390000D01*
X160035000Y-100390000D02*
X177875000Y-100390000D01*
X160035000Y-100390000D02*
X160035000Y-97730000D01*
X177875000Y-100390000D02*
X177875000Y-97730000D01*
X160035000Y-97730000D02*
X177875000Y-97730000D01*
%TO.C,Battery1*%
X190560000Y-100330000D02*
X190560000Y-102930000D01*
X187900000Y-102930000D02*
X190560000Y-102930000D01*
X187900000Y-100330000D02*
X190560000Y-100330000D01*
X187900000Y-100330000D02*
X187900000Y-102930000D01*
X187900000Y-99060000D02*
X187900000Y-97730000D01*
X187900000Y-97730000D02*
X189230000Y-97730000D01*
%TD*%
D14*
X138240000Y-41910000D02*
X197040000Y-41910000D01*
X197040000Y-141430000D01*
X138240000Y-141430000D01*
X138240000Y-41910000D01*
M02*
