%TF.GenerationSoftware,KiCad,Pcbnew,7.0.9*%
%TF.CreationDate,2023-11-17T12:10:22-05:00*%
%TF.ProjectId,TamagotchiPCB,54616d61-676f-4746-9368-695043422e6b,rev?*%
%TF.SameCoordinates,Original*%
%TF.FileFunction,Legend,Bot*%
%TF.FilePolarity,Positive*%
%FSLAX46Y46*%
G04 Gerber Fmt 4.6, Leading zero omitted, Abs format (unit mm)*
G04 Created by KiCad (PCBNEW 7.0.9) date 2023-11-17 12:10:22*
%MOMM*%
%LPD*%
G01*
G04 APERTURE LIST*
%ADD10C,0.150000*%
%ADD11C,0.120000*%
%TA.AperFunction,Profile*%
%ADD12C,0.100000*%
%TD*%
G04 APERTURE END LIST*
D10*
X180052667Y-107554819D02*
X180528857Y-107554819D01*
X180528857Y-107554819D02*
X180528857Y-106554819D01*
X179338381Y-107507200D02*
X179433619Y-107554819D01*
X179433619Y-107554819D02*
X179624095Y-107554819D01*
X179624095Y-107554819D02*
X179719333Y-107507200D01*
X179719333Y-107507200D02*
X179766952Y-107411961D01*
X179766952Y-107411961D02*
X179766952Y-107031009D01*
X179766952Y-107031009D02*
X179719333Y-106935771D01*
X179719333Y-106935771D02*
X179624095Y-106888152D01*
X179624095Y-106888152D02*
X179433619Y-106888152D01*
X179433619Y-106888152D02*
X179338381Y-106935771D01*
X179338381Y-106935771D02*
X179290762Y-107031009D01*
X179290762Y-107031009D02*
X179290762Y-107126247D01*
X179290762Y-107126247D02*
X179766952Y-107221485D01*
X179005047Y-106888152D02*
X178624095Y-106888152D01*
X178862190Y-107554819D02*
X178862190Y-106697676D01*
X178862190Y-106697676D02*
X178814571Y-106602438D01*
X178814571Y-106602438D02*
X178719333Y-106554819D01*
X178719333Y-106554819D02*
X178624095Y-106554819D01*
X178433618Y-106888152D02*
X178052666Y-106888152D01*
X178290761Y-106554819D02*
X178290761Y-107411961D01*
X178290761Y-107411961D02*
X178243142Y-107507200D01*
X178243142Y-107507200D02*
X178147904Y-107554819D01*
X178147904Y-107554819D02*
X178052666Y-107554819D01*
X177195523Y-107554819D02*
X177766951Y-107554819D01*
X177481237Y-107554819D02*
X177481237Y-106554819D01*
X177481237Y-106554819D02*
X177576475Y-106697676D01*
X177576475Y-106697676D02*
X177671713Y-106792914D01*
X177671713Y-106792914D02*
X177766951Y-106840533D01*
X194222476Y-124391009D02*
X194079619Y-124438628D01*
X194079619Y-124438628D02*
X194032000Y-124486247D01*
X194032000Y-124486247D02*
X193984381Y-124581485D01*
X193984381Y-124581485D02*
X193984381Y-124724342D01*
X193984381Y-124724342D02*
X194032000Y-124819580D01*
X194032000Y-124819580D02*
X194079619Y-124867200D01*
X194079619Y-124867200D02*
X194174857Y-124914819D01*
X194174857Y-124914819D02*
X194555809Y-124914819D01*
X194555809Y-124914819D02*
X194555809Y-123914819D01*
X194555809Y-123914819D02*
X194222476Y-123914819D01*
X194222476Y-123914819D02*
X194127238Y-123962438D01*
X194127238Y-123962438D02*
X194079619Y-124010057D01*
X194079619Y-124010057D02*
X194032000Y-124105295D01*
X194032000Y-124105295D02*
X194032000Y-124200533D01*
X194032000Y-124200533D02*
X194079619Y-124295771D01*
X194079619Y-124295771D02*
X194127238Y-124343390D01*
X194127238Y-124343390D02*
X194222476Y-124391009D01*
X194222476Y-124391009D02*
X194555809Y-124391009D01*
X193127238Y-124914819D02*
X193127238Y-124391009D01*
X193127238Y-124391009D02*
X193174857Y-124295771D01*
X193174857Y-124295771D02*
X193270095Y-124248152D01*
X193270095Y-124248152D02*
X193460571Y-124248152D01*
X193460571Y-124248152D02*
X193555809Y-124295771D01*
X193127238Y-124867200D02*
X193222476Y-124914819D01*
X193222476Y-124914819D02*
X193460571Y-124914819D01*
X193460571Y-124914819D02*
X193555809Y-124867200D01*
X193555809Y-124867200D02*
X193603428Y-124771961D01*
X193603428Y-124771961D02*
X193603428Y-124676723D01*
X193603428Y-124676723D02*
X193555809Y-124581485D01*
X193555809Y-124581485D02*
X193460571Y-124533866D01*
X193460571Y-124533866D02*
X193222476Y-124533866D01*
X193222476Y-124533866D02*
X193127238Y-124486247D01*
X192222476Y-124867200D02*
X192317714Y-124914819D01*
X192317714Y-124914819D02*
X192508190Y-124914819D01*
X192508190Y-124914819D02*
X192603428Y-124867200D01*
X192603428Y-124867200D02*
X192651047Y-124819580D01*
X192651047Y-124819580D02*
X192698666Y-124724342D01*
X192698666Y-124724342D02*
X192698666Y-124438628D01*
X192698666Y-124438628D02*
X192651047Y-124343390D01*
X192651047Y-124343390D02*
X192603428Y-124295771D01*
X192603428Y-124295771D02*
X192508190Y-124248152D01*
X192508190Y-124248152D02*
X192317714Y-124248152D01*
X192317714Y-124248152D02*
X192222476Y-124295771D01*
X191793904Y-124914819D02*
X191793904Y-123914819D01*
X191698666Y-124533866D02*
X191412952Y-124914819D01*
X191412952Y-124248152D02*
X191793904Y-124629104D01*
X190460571Y-124914819D02*
X191031999Y-124914819D01*
X190746285Y-124914819D02*
X190746285Y-123914819D01*
X190746285Y-123914819D02*
X190841523Y-124057676D01*
X190841523Y-124057676D02*
X190936761Y-124152914D01*
X190936761Y-124152914D02*
X191031999Y-124200533D01*
X158837238Y-107554819D02*
X159170571Y-107078628D01*
X159408666Y-107554819D02*
X159408666Y-106554819D01*
X159408666Y-106554819D02*
X159027714Y-106554819D01*
X159027714Y-106554819D02*
X158932476Y-106602438D01*
X158932476Y-106602438D02*
X158884857Y-106650057D01*
X158884857Y-106650057D02*
X158837238Y-106745295D01*
X158837238Y-106745295D02*
X158837238Y-106888152D01*
X158837238Y-106888152D02*
X158884857Y-106983390D01*
X158884857Y-106983390D02*
X158932476Y-107031009D01*
X158932476Y-107031009D02*
X159027714Y-107078628D01*
X159027714Y-107078628D02*
X159408666Y-107078628D01*
X158408666Y-107554819D02*
X158408666Y-106888152D01*
X158408666Y-106554819D02*
X158456285Y-106602438D01*
X158456285Y-106602438D02*
X158408666Y-106650057D01*
X158408666Y-106650057D02*
X158361047Y-106602438D01*
X158361047Y-106602438D02*
X158408666Y-106554819D01*
X158408666Y-106554819D02*
X158408666Y-106650057D01*
X157503905Y-106888152D02*
X157503905Y-107697676D01*
X157503905Y-107697676D02*
X157551524Y-107792914D01*
X157551524Y-107792914D02*
X157599143Y-107840533D01*
X157599143Y-107840533D02*
X157694381Y-107888152D01*
X157694381Y-107888152D02*
X157837238Y-107888152D01*
X157837238Y-107888152D02*
X157932476Y-107840533D01*
X157503905Y-107507200D02*
X157599143Y-107554819D01*
X157599143Y-107554819D02*
X157789619Y-107554819D01*
X157789619Y-107554819D02*
X157884857Y-107507200D01*
X157884857Y-107507200D02*
X157932476Y-107459580D01*
X157932476Y-107459580D02*
X157980095Y-107364342D01*
X157980095Y-107364342D02*
X157980095Y-107078628D01*
X157980095Y-107078628D02*
X157932476Y-106983390D01*
X157932476Y-106983390D02*
X157884857Y-106935771D01*
X157884857Y-106935771D02*
X157789619Y-106888152D01*
X157789619Y-106888152D02*
X157599143Y-106888152D01*
X157599143Y-106888152D02*
X157503905Y-106935771D01*
X157027714Y-107554819D02*
X157027714Y-106554819D01*
X156599143Y-107554819D02*
X156599143Y-107031009D01*
X156599143Y-107031009D02*
X156646762Y-106935771D01*
X156646762Y-106935771D02*
X156742000Y-106888152D01*
X156742000Y-106888152D02*
X156884857Y-106888152D01*
X156884857Y-106888152D02*
X156980095Y-106935771D01*
X156980095Y-106935771D02*
X157027714Y-106983390D01*
X156265809Y-106888152D02*
X155884857Y-106888152D01*
X156122952Y-106554819D02*
X156122952Y-107411961D01*
X156122952Y-107411961D02*
X156075333Y-107507200D01*
X156075333Y-107507200D02*
X155980095Y-107554819D01*
X155980095Y-107554819D02*
X155884857Y-107554819D01*
X155027714Y-107554819D02*
X155599142Y-107554819D01*
X155313428Y-107554819D02*
X155313428Y-106554819D01*
X155313428Y-106554819D02*
X155408666Y-106697676D01*
X155408666Y-106697676D02*
X155503904Y-106792914D01*
X155503904Y-106792914D02*
X155599142Y-106840533D01*
X172473333Y-50254819D02*
X172282857Y-50254819D01*
X172282857Y-50254819D02*
X172187619Y-50302438D01*
X172187619Y-50302438D02*
X172092381Y-50397676D01*
X172092381Y-50397676D02*
X172044762Y-50588152D01*
X172044762Y-50588152D02*
X172044762Y-50921485D01*
X172044762Y-50921485D02*
X172092381Y-51111961D01*
X172092381Y-51111961D02*
X172187619Y-51207200D01*
X172187619Y-51207200D02*
X172282857Y-51254819D01*
X172282857Y-51254819D02*
X172473333Y-51254819D01*
X172473333Y-51254819D02*
X172568571Y-51207200D01*
X172568571Y-51207200D02*
X172663809Y-51111961D01*
X172663809Y-51111961D02*
X172711428Y-50921485D01*
X172711428Y-50921485D02*
X172711428Y-50588152D01*
X172711428Y-50588152D02*
X172663809Y-50397676D01*
X172663809Y-50397676D02*
X172568571Y-50302438D01*
X172568571Y-50302438D02*
X172473333Y-50254819D01*
X171140000Y-51254819D02*
X171616190Y-51254819D01*
X171616190Y-51254819D02*
X171616190Y-50254819D01*
X170806666Y-50731009D02*
X170473333Y-50731009D01*
X170330476Y-51254819D02*
X170806666Y-51254819D01*
X170806666Y-51254819D02*
X170806666Y-50254819D01*
X170806666Y-50254819D02*
X170330476Y-50254819D01*
X169901904Y-51254819D02*
X169901904Y-50254819D01*
X169901904Y-50254819D02*
X169663809Y-50254819D01*
X169663809Y-50254819D02*
X169520952Y-50302438D01*
X169520952Y-50302438D02*
X169425714Y-50397676D01*
X169425714Y-50397676D02*
X169378095Y-50492914D01*
X169378095Y-50492914D02*
X169330476Y-50683390D01*
X169330476Y-50683390D02*
X169330476Y-50826247D01*
X169330476Y-50826247D02*
X169378095Y-51016723D01*
X169378095Y-51016723D02*
X169425714Y-51111961D01*
X169425714Y-51111961D02*
X169520952Y-51207200D01*
X169520952Y-51207200D02*
X169663809Y-51254819D01*
X169663809Y-51254819D02*
X169901904Y-51254819D01*
X169140000Y-51350057D02*
X168378095Y-51350057D01*
X168187618Y-51207200D02*
X168044761Y-51254819D01*
X168044761Y-51254819D02*
X167806666Y-51254819D01*
X167806666Y-51254819D02*
X167711428Y-51207200D01*
X167711428Y-51207200D02*
X167663809Y-51159580D01*
X167663809Y-51159580D02*
X167616190Y-51064342D01*
X167616190Y-51064342D02*
X167616190Y-50969104D01*
X167616190Y-50969104D02*
X167663809Y-50873866D01*
X167663809Y-50873866D02*
X167711428Y-50826247D01*
X167711428Y-50826247D02*
X167806666Y-50778628D01*
X167806666Y-50778628D02*
X167997142Y-50731009D01*
X167997142Y-50731009D02*
X168092380Y-50683390D01*
X168092380Y-50683390D02*
X168139999Y-50635771D01*
X168139999Y-50635771D02*
X168187618Y-50540533D01*
X168187618Y-50540533D02*
X168187618Y-50445295D01*
X168187618Y-50445295D02*
X168139999Y-50350057D01*
X168139999Y-50350057D02*
X168092380Y-50302438D01*
X168092380Y-50302438D02*
X167997142Y-50254819D01*
X167997142Y-50254819D02*
X167759047Y-50254819D01*
X167759047Y-50254819D02*
X167616190Y-50302438D01*
X166759047Y-51207200D02*
X166854285Y-51254819D01*
X166854285Y-51254819D02*
X167044761Y-51254819D01*
X167044761Y-51254819D02*
X167139999Y-51207200D01*
X167139999Y-51207200D02*
X167187618Y-51159580D01*
X167187618Y-51159580D02*
X167235237Y-51064342D01*
X167235237Y-51064342D02*
X167235237Y-50778628D01*
X167235237Y-50778628D02*
X167187618Y-50683390D01*
X167187618Y-50683390D02*
X167139999Y-50635771D01*
X167139999Y-50635771D02*
X167044761Y-50588152D01*
X167044761Y-50588152D02*
X166854285Y-50588152D01*
X166854285Y-50588152D02*
X166759047Y-50635771D01*
X166330475Y-51254819D02*
X166330475Y-50588152D01*
X166330475Y-50778628D02*
X166282856Y-50683390D01*
X166282856Y-50683390D02*
X166235237Y-50635771D01*
X166235237Y-50635771D02*
X166139999Y-50588152D01*
X166139999Y-50588152D02*
X166044761Y-50588152D01*
X165330475Y-51207200D02*
X165425713Y-51254819D01*
X165425713Y-51254819D02*
X165616189Y-51254819D01*
X165616189Y-51254819D02*
X165711427Y-51207200D01*
X165711427Y-51207200D02*
X165759046Y-51111961D01*
X165759046Y-51111961D02*
X165759046Y-50731009D01*
X165759046Y-50731009D02*
X165711427Y-50635771D01*
X165711427Y-50635771D02*
X165616189Y-50588152D01*
X165616189Y-50588152D02*
X165425713Y-50588152D01*
X165425713Y-50588152D02*
X165330475Y-50635771D01*
X165330475Y-50635771D02*
X165282856Y-50731009D01*
X165282856Y-50731009D02*
X165282856Y-50826247D01*
X165282856Y-50826247D02*
X165759046Y-50921485D01*
X164473332Y-51207200D02*
X164568570Y-51254819D01*
X164568570Y-51254819D02*
X164759046Y-51254819D01*
X164759046Y-51254819D02*
X164854284Y-51207200D01*
X164854284Y-51207200D02*
X164901903Y-51111961D01*
X164901903Y-51111961D02*
X164901903Y-50731009D01*
X164901903Y-50731009D02*
X164854284Y-50635771D01*
X164854284Y-50635771D02*
X164759046Y-50588152D01*
X164759046Y-50588152D02*
X164568570Y-50588152D01*
X164568570Y-50588152D02*
X164473332Y-50635771D01*
X164473332Y-50635771D02*
X164425713Y-50731009D01*
X164425713Y-50731009D02*
X164425713Y-50826247D01*
X164425713Y-50826247D02*
X164901903Y-50921485D01*
X163997141Y-50588152D02*
X163997141Y-51254819D01*
X163997141Y-50683390D02*
X163949522Y-50635771D01*
X163949522Y-50635771D02*
X163854284Y-50588152D01*
X163854284Y-50588152D02*
X163711427Y-50588152D01*
X163711427Y-50588152D02*
X163616189Y-50635771D01*
X163616189Y-50635771D02*
X163568570Y-50731009D01*
X163568570Y-50731009D02*
X163568570Y-51254819D01*
X162568570Y-51254819D02*
X163139998Y-51254819D01*
X162854284Y-51254819D02*
X162854284Y-50254819D01*
X162854284Y-50254819D02*
X162949522Y-50397676D01*
X162949522Y-50397676D02*
X163044760Y-50492914D01*
X163044760Y-50492914D02*
X163139998Y-50540533D01*
X169662666Y-135781009D02*
X169329333Y-135781009D01*
X169186476Y-136304819D02*
X169662666Y-136304819D01*
X169662666Y-136304819D02*
X169662666Y-135304819D01*
X169662666Y-135304819D02*
X169186476Y-135304819D01*
X168757904Y-135638152D02*
X168757904Y-136304819D01*
X168757904Y-135733390D02*
X168710285Y-135685771D01*
X168710285Y-135685771D02*
X168615047Y-135638152D01*
X168615047Y-135638152D02*
X168472190Y-135638152D01*
X168472190Y-135638152D02*
X168376952Y-135685771D01*
X168376952Y-135685771D02*
X168329333Y-135781009D01*
X168329333Y-135781009D02*
X168329333Y-136304819D01*
X167995999Y-135638152D02*
X167615047Y-135638152D01*
X167853142Y-135304819D02*
X167853142Y-136161961D01*
X167853142Y-136161961D02*
X167805523Y-136257200D01*
X167805523Y-136257200D02*
X167710285Y-136304819D01*
X167710285Y-136304819D02*
X167615047Y-136304819D01*
X166900761Y-136257200D02*
X166995999Y-136304819D01*
X166995999Y-136304819D02*
X167186475Y-136304819D01*
X167186475Y-136304819D02*
X167281713Y-136257200D01*
X167281713Y-136257200D02*
X167329332Y-136161961D01*
X167329332Y-136161961D02*
X167329332Y-135781009D01*
X167329332Y-135781009D02*
X167281713Y-135685771D01*
X167281713Y-135685771D02*
X167186475Y-135638152D01*
X167186475Y-135638152D02*
X166995999Y-135638152D01*
X166995999Y-135638152D02*
X166900761Y-135685771D01*
X166900761Y-135685771D02*
X166853142Y-135781009D01*
X166853142Y-135781009D02*
X166853142Y-135876247D01*
X166853142Y-135876247D02*
X167329332Y-135971485D01*
X166424570Y-136304819D02*
X166424570Y-135638152D01*
X166424570Y-135828628D02*
X166376951Y-135733390D01*
X166376951Y-135733390D02*
X166329332Y-135685771D01*
X166329332Y-135685771D02*
X166234094Y-135638152D01*
X166234094Y-135638152D02*
X166138856Y-135638152D01*
X165281713Y-136304819D02*
X165853141Y-136304819D01*
X165567427Y-136304819D02*
X165567427Y-135304819D01*
X165567427Y-135304819D02*
X165662665Y-135447676D01*
X165662665Y-135447676D02*
X165757903Y-135542914D01*
X165757903Y-135542914D02*
X165853141Y-135590533D01*
D11*
%TO.C,Left1*%
X184866000Y-120410000D02*
X184866000Y-117690000D01*
X184866000Y-115830000D02*
X184866000Y-112690000D01*
X184866000Y-110830000D02*
X184866000Y-108110000D01*
X184866000Y-108110000D02*
X172566000Y-108110000D01*
X172566000Y-120410000D02*
X184866000Y-120410000D01*
X172566000Y-117690000D02*
X172566000Y-120410000D01*
X172566000Y-112690000D02*
X172566000Y-115830000D01*
X172566000Y-108110000D02*
X172566000Y-110830000D01*
X183195050Y-114300000D02*
G75*
G03*
X183195050Y-114300000I-4579050J0D01*
G01*
%TO.C,Back1*%
X184866000Y-135142000D02*
X184866000Y-132422000D01*
X184866000Y-130562000D02*
X184866000Y-127422000D01*
X184866000Y-125562000D02*
X184866000Y-122842000D01*
X184866000Y-122842000D02*
X172566000Y-122842000D01*
X172566000Y-135142000D02*
X184866000Y-135142000D01*
X172566000Y-132422000D02*
X172566000Y-135142000D01*
X172566000Y-127422000D02*
X172566000Y-130562000D01*
X172566000Y-122842000D02*
X172566000Y-125562000D01*
X183195050Y-129032000D02*
G75*
G03*
X183195050Y-129032000I-4579050J0D01*
G01*
%TO.C,Right1*%
X163222000Y-120410000D02*
X163222000Y-117690000D01*
X163222000Y-115830000D02*
X163222000Y-112690000D01*
X163222000Y-110830000D02*
X163222000Y-108110000D01*
X163222000Y-108110000D02*
X150922000Y-108110000D01*
X150922000Y-120410000D02*
X163222000Y-120410000D01*
X150922000Y-117690000D02*
X150922000Y-120410000D01*
X150922000Y-112690000D02*
X150922000Y-115830000D01*
X150922000Y-108110000D02*
X150922000Y-110830000D01*
X161551050Y-114300000D02*
G75*
G03*
X161551050Y-114300000I-4579050J0D01*
G01*
%TO.C,OLED_Screen1*%
X162490000Y-54670000D02*
X162490000Y-52010000D01*
X170170000Y-54670000D02*
X162490000Y-54670000D01*
X170170000Y-54670000D02*
X170170000Y-52010000D01*
X171440000Y-54670000D02*
X172770000Y-54670000D01*
X172770000Y-54670000D02*
X172770000Y-53340000D01*
X170170000Y-52010000D02*
X162490000Y-52010000D01*
%TO.C,Enter1*%
X163222000Y-135396000D02*
X163222000Y-132676000D01*
X163222000Y-130816000D02*
X163222000Y-127676000D01*
X163222000Y-125816000D02*
X163222000Y-123096000D01*
X163222000Y-123096000D02*
X150922000Y-123096000D01*
X150922000Y-135396000D02*
X163222000Y-135396000D01*
X150922000Y-132676000D02*
X150922000Y-135396000D01*
X150922000Y-127676000D02*
X150922000Y-130816000D01*
X150922000Y-123096000D02*
X150922000Y-125816000D01*
X161551050Y-129286000D02*
G75*
G03*
X161551050Y-129286000I-4579050J0D01*
G01*
%TD*%
D12*
X138240000Y-41910000D02*
X197040000Y-41910000D01*
X197040000Y-141430000D01*
X138240000Y-141430000D01*
X138240000Y-41910000D01*
M02*
