M48
; DRILL file {KiCad 7.0.9} date Fri Nov 17 12:10:59 2023
; FORMAT={2:4/ absolute / inch / keep zeros}
; #@! TF.CreationDate,2023-11-17T12:10:59-05:00
; #@! TF.GenerationSoftware,Kicad,Pcbnew,7.0.9
; #@! TF.FileFunction,Plated,1,2,PTH
FMAT,2
INCH
; #@! TA.AperFunction,Plated,PTH,ComponentDrill
T1C0.0300
; #@! TA.AperFunction,Plated,PTH,ComponentDrill
T2C0.0394
; #@! TA.AperFunction,Plated,PTH,ComponentDrill
T3C0.0512
%
G90
G05
T1
X061000Y-021000
X061000Y-022000
X061000Y-023000
X061000Y-024000
X061000Y-025000
X061000Y-026000
X061000Y-027000
X061000Y-028000
X061000Y-029000
X061000Y-030000
X061000Y-031000
X061000Y-032000
X061000Y-033000
X061000Y-034000
X061000Y-035000
X071000Y-021000
X071000Y-022000
X071000Y-023000
X071000Y-024000
X071000Y-025000
X071000Y-026000
X071000Y-027000
X071000Y-028000
X071000Y-029000
X071000Y-030000
X071000Y-031000
X071000Y-032000
X071000Y-033000
X071000Y-034000
X071000Y-035000
T2
X057500Y-039000
X057500Y-040000
X062506Y-039000
X063506Y-039000
X064496Y-021000
X064506Y-039000
X065496Y-021000
X065506Y-039000
X066496Y-021000
X066506Y-039000
X067496Y-021000
X067506Y-039000
X068506Y-039000
X069506Y-039000
X074500Y-039000
X074500Y-040000
T3
X059379Y-044000
X059379Y-045969
X059379Y-049900
X059379Y-051869
X064300Y-044000
X064300Y-045969
X064300Y-049900
X064300Y-051869
X067900Y-044000
X067900Y-045969
X067900Y-049800
X067900Y-051769
X072821Y-044000
X072821Y-045969
X072821Y-049800
X072821Y-051769
T0
M30
